<svg width="300" height="389" viewBox="0 0 300 389" fill="none" xmlns="http://www.w3.org/2000/svg">
<path d="M30.7052 388.75C21.5668 388.75 14.0732 386.191 8.22462 381.074C2.74154 375.591 0 368.646 0 360.238C0 331.726 10.9662 305.59 32.8985 281.83C55.1963 257.705 90.288 234.31 138.174 211.647C162.299 199.95 180.576 189.714 193.004 180.942C205.798 171.803 214.754 162.482 219.871 152.978C224.989 143.474 227.548 131.959 227.548 118.434C227.548 99.0609 220.968 84.2566 207.809 74.0216C195.015 63.4209 176.555 58.1206 152.43 58.1206C125.38 58.1206 104.727 63.9692 90.4708 75.6665C76.2148 87.3637 69.0868 104.544 69.0868 127.207C69.0868 136.346 69.8178 144.388 71.28 151.333C66.1625 152.064 62.1415 152.43 59.2172 152.43C43.8646 152.43 30.7052 147.86 19.7391 138.722C8.77292 129.583 3.28985 118.434 3.28985 105.275C3.28985 85.536 9.86954 67.6246 23.0289 51.5409C36.1883 35.4572 54.0997 22.8462 76.7631 13.7077C99.4265 4.56923 124.649 0 152.43 0C180.942 0 205.798 4.93476 226.999 14.8043C248.566 24.3083 265.198 38.016 276.895 55.9274C288.593 73.8388 294.441 94.6745 294.441 118.434C294.441 145.119 284.572 169.244 264.833 190.811C245.459 212.378 214.571 233.396 172.169 253.866C140.367 269.219 116.607 283.292 100.889 296.086C85.1705 308.514 76.3975 320.395 74.5699 331.726H248.932C265.746 331.726 278.358 336.661 286.765 346.53C295.538 356.034 299.924 370.108 299.924 388.75H30.7052Z" fill="#F4F6F7"/>
</svg>
