<svg width="307" height="394" viewBox="0 0 307 394" fill="none" xmlns="http://www.w3.org/2000/svg">
<path d="M152.265 393.685C123.022 393.685 96.8862 389.298 73.8573 380.526C50.8284 371.387 32.917 358.776 20.1231 342.692C7.3293 326.609 0.932373 308.332 0.932373 287.862C0.932373 272.143 6.04991 260.629 16.285 253.318C26.5201 246.007 42.9693 242.352 65.6327 242.352C64.5361 250.028 63.9878 257.887 63.9878 265.929C63.9878 288.593 71.4813 305.956 86.4684 318.018C101.455 329.716 123.388 335.564 152.265 335.564C210.751 335.564 239.995 316.739 239.995 279.089C239.995 260.081 233.415 245.642 220.255 235.772C207.096 225.903 187.723 220.968 162.135 220.968H143.492C135.451 220.968 128.688 218.409 123.205 213.292C118.087 207.809 115.529 201.046 115.529 193.004C115.529 184.231 118.087 177.286 123.205 172.169C128.323 167.051 135.085 164.492 143.492 164.492H162.683C183.884 164.492 200.151 159.74 211.483 150.236C223.18 140.732 229.028 127.39 229.028 110.21C229.028 93.3951 222.631 80.4185 209.838 71.28C197.044 62.1415 178.767 57.5723 155.007 57.5723C129.054 57.5723 108.949 62.1415 94.693 71.28C80.8025 80.4185 73.8573 93.5779 73.8573 110.758C73.8573 117.703 74.5884 125.014 76.0505 132.69C56.677 133.422 40.9588 130.132 28.8961 122.821C16.8333 115.145 10.8019 104.91 10.8019 92.1157C10.8019 74.2043 16.8333 58.3034 28.8961 44.4129C41.3244 30.5225 58.5047 19.7391 80.437 12.0628C102.369 4.02092 127.226 0 155.007 0C183.153 0 207.827 4.56923 229.028 13.7077C250.595 22.8462 267.044 35.8228 278.376 52.6375C290.073 69.0868 295.922 88.2775 295.922 110.21C295.922 145.667 277.462 173.082 240.543 192.456C264.303 202.691 281.3 214.571 291.535 228.096C301.771 241.255 306.888 258.253 306.888 279.089C306.888 302.118 300.491 322.405 287.697 339.951C274.903 357.131 256.809 370.473 233.415 379.977C210.386 389.116 183.336 393.685 152.265 393.685Z" fill="#F4F6F7"/>
</svg>
