<svg width="174" height="144" viewBox="0 0 174 144" fill="none" xmlns="http://www.w3.org/2000/svg">
<path d="M170.087 0H3.9129C3.12155 0.00119049 2.36295 0.316079 1.80338 0.875649C1.24381 1.43522 0.928925 2.19382 0.927734 2.98517V101.164C0.928925 101.955 1.24381 102.714 1.80338 103.274C2.36295 103.833 3.12155 104.148 3.9129 104.149H170.087C170.879 104.148 171.637 103.833 172.197 103.274C172.756 102.714 173.071 101.955 173.072 101.164V2.98517C173.071 2.19382 172.756 1.43522 172.197 0.875649C171.637 0.316079 170.879 0.00119049 170.087 0ZM172.409 101.164C172.408 101.78 172.164 102.37 171.728 102.805C171.293 103.24 170.703 103.485 170.087 103.486H3.9129C3.29733 103.485 2.70717 103.24 2.2719 102.805C1.83662 102.37 1.59179 101.78 1.59111 101.164V2.98517C1.59179 2.3696 1.83662 1.77944 2.2719 1.34416C2.70717 0.908888 3.29733 0.664054 3.9129 0.663371H170.087C170.703 0.664054 171.293 0.908888 171.728 1.34416C172.164 1.77944 172.408 2.3696 172.409 2.98517V101.164Z" fill="#424D57"/>
<path d="M172.741 11.2775H1.25928V11.9408H172.741V11.2775Z" fill="#424D57"/>
<path d="M6.89817 7.46309C7.8141 7.46309 8.5566 6.72059 8.5566 5.80467C8.5566 4.88874 7.8141 4.14624 6.89817 4.14624C5.98225 4.14624 5.23975 4.88874 5.23975 5.80467C5.23975 6.72059 5.98225 7.46309 6.89817 7.46309Z" fill="#CCCCCC"/>
<path d="M11.8733 7.46309C12.7892 7.46309 13.5317 6.72059 13.5317 5.80467C13.5317 4.88874 12.7892 4.14624 11.8733 4.14624C10.9573 4.14624 10.2148 4.88874 10.2148 5.80467C10.2148 6.72059 10.9573 7.46309 11.8733 7.46309Z" fill="#CCCCCC"/>
<path d="M16.8486 7.46309C17.7645 7.46309 18.507 6.72059 18.507 5.80467C18.507 4.88874 17.7645 4.14624 16.8486 4.14624C15.9327 4.14624 15.1902 4.88874 15.1902 5.80467C15.1902 6.72059 15.9327 7.46309 16.8486 7.46309Z" fill="#CCCCCC"/>
<path d="M127.134 143.786H46.8662C46.1187 143.785 45.4021 143.488 44.8736 142.959C44.345 142.431 44.0477 141.714 44.0469 140.967V51.0798C44.0477 50.3324 44.345 49.6157 44.8736 49.0872C45.4021 48.5586 46.1187 48.2613 46.8662 48.2605H127.134C127.882 48.2613 128.598 48.5586 129.127 49.0872C129.655 49.6157 129.953 50.3323 129.953 51.0798V140.967C129.953 141.714 129.655 142.431 129.127 142.959C128.598 143.488 127.882 143.785 127.134 143.786Z" fill="#24ACB1"/>
<path d="M110.55 94.3644H63.4505C62.3509 94.3644 61.2963 93.9276 60.5188 93.15C59.7413 92.3725 59.3044 91.3179 59.3044 90.2183C59.3044 89.1187 59.7413 88.0642 60.5188 87.2866C61.2963 86.5091 62.3509 86.0723 63.4505 86.0723H110.55C111.649 86.0723 112.704 86.5091 113.482 87.2866C114.259 88.0642 114.696 89.1187 114.696 90.2183C114.696 91.3179 114.259 92.3725 113.482 93.15C112.704 93.9276 111.649 94.3644 110.55 94.3644Z" fill="white"/>
<path d="M110.55 109.788H63.4505C62.3509 109.788 61.2963 109.351 60.5188 108.574C59.7413 107.796 59.3044 106.742 59.3044 105.642C59.3044 104.542 59.7413 103.488 60.5188 102.71C61.2963 101.933 62.3509 101.496 63.4505 101.496H110.55C111.649 101.496 112.704 101.933 113.482 102.71C114.259 103.488 114.696 104.542 114.696 105.642C114.696 106.742 114.259 107.796 113.482 108.574C112.704 109.351 111.649 109.788 110.55 109.788Z" fill="white"/>
<path d="M110.55 125.377H63.4505C62.3509 125.377 61.2963 124.94 60.5188 124.163C59.7413 123.385 59.3044 122.331 59.3044 121.231C59.3044 120.131 59.7413 119.077 60.5188 118.299C61.2963 117.522 62.3509 117.085 63.4505 117.085H110.55C111.649 117.085 112.704 117.522 113.482 118.299C114.259 119.077 114.696 120.131 114.696 121.231C114.696 122.331 114.259 123.385 113.482 124.163C112.704 124.94 111.649 125.377 110.55 125.377Z" fill="white"/>
<path d="M96.1214 73.9657H77.8787C76.7791 73.9657 75.7246 73.5289 74.947 72.7514C74.1695 71.9738 73.7327 70.9193 73.7327 69.8197C73.7327 68.72 74.1695 67.6655 74.947 66.8879C75.7246 66.1104 76.7791 65.6736 77.8787 65.6736H96.1214C97.221 65.6736 98.2756 66.1104 99.0531 66.8879C99.8307 67.6655 100.267 68.72 100.267 69.8197C100.267 70.9193 99.8307 71.9738 99.0531 72.7514C98.2756 73.5289 97.221 73.9657 96.1214 73.9657Z" fill="white"/>
<path d="M155.327 23.5497H18.6729C16.7494 23.5497 15.1902 25.1089 15.1902 27.0324V27.0324C15.1902 28.9558 16.7494 30.5151 18.6729 30.5151H155.327C157.251 30.5151 158.81 28.9558 158.81 27.0324C158.81 25.1089 157.251 23.5497 155.327 23.5497Z" fill="#CCCCCC"/>
</svg>
