<svg width="332" height="71" viewBox="0 0 332 71" fill="none" xmlns="http://www.w3.org/2000/svg">
<path d="M37.6039 45.9234C39.2793 45.5496 40.8616 44.802 42.2577 43.5871C46.6787 39.7557 47.2372 33.0742 43.4211 28.5886C40.815 25.5048 36.8593 24.3367 33.1829 25.0843C31.5075 25.4581 29.9253 26.2057 28.5291 27.4205C24.1081 31.2519 23.5496 37.9335 27.3657 42.419C29.9718 45.5028 33.9275 46.7177 37.6039 45.9234Z" fill="#00A4AF"/>
<path d="M36.9985 0.0400616C34.1132 -0.100112 31.3209 0.133519 28.6218 0.647487C13.9625 3.5444 2.18851 15.6927 0.280476 31.1118C-0.789885 39.6623 1.25775 47.7924 5.49266 54.474C6.05111 55.3617 7.0284 55.6888 7.95915 55.5019C8.37799 55.4085 8.79682 55.2216 9.12259 54.8478L16.7547 47.185C10.6583 37.4196 12.9852 24.1966 22.9442 17.2814C25.6434 15.4124 28.7148 14.1976 31.8328 13.6836C38.7204 12.5622 45.9802 14.7582 51.0528 19.9447C60.0811 29.1961 59.2899 43.961 49.6567 52.2312C46.7714 54.7076 43.4672 56.2962 40.0234 57.0438C39.9769 57.0438 39.9769 57.0438 39.9304 57.0438C39.6977 57.0905 39.465 57.1373 39.2323 57.184C34.4389 58.025 29.4129 57.2774 25.0849 54.9412L17.4062 62.6507C16.3359 63.7254 16.5686 65.5477 17.8716 66.342C22.3392 68.9118 27.4583 70.5472 32.9963 70.921C35.9281 71.1079 38.8135 70.9677 41.6057 70.4537C56.6838 67.697 68.8301 55.2216 70.552 39.3353C72.7858 18.9634 57.4284 0.974549 36.9985 0.0400616Z" fill="#00A4AF"/>
<path d="M123.746 14.8948C123.746 13.3529 122.489 12.0913 120.953 12.0913H86.4226V20.9689H100.058V22.2772V46.6206V61.2921H110.064V47.7887V22.2772V20.9689H123.699V14.8948H123.746Z" fill="white"/>
<path d="M154.368 30.1269C152.972 28.3981 151.25 27.0898 149.063 26.1086C146.922 25.1274 144.363 24.6135 141.384 24.6135C138.871 24.6135 136.544 25.0807 134.404 25.9685C132.263 26.8562 130.401 28.1178 128.819 29.7531C127.237 31.3885 125.98 33.3509 125.096 35.6404C124.212 37.9299 123.747 40.4997 123.747 43.3499C123.747 45.873 124.212 48.256 125.143 50.452C126.073 52.6481 127.423 54.5638 129.145 56.1524C130.913 57.7411 133.008 59.0026 135.474 59.8904C137.94 60.8249 140.733 61.2454 143.804 61.2454H153.903V53.0219H143.944C141.338 53.0219 139.15 52.4612 137.382 51.3865C135.614 50.2651 134.45 48.6298 133.938 46.4337H158.091C158.184 46.1067 158.231 45.6394 158.324 45.032C158.37 44.4246 158.417 43.8639 158.417 43.3499C158.417 40.7801 158.091 38.3504 157.44 36.0609C156.742 33.8182 155.718 31.8557 154.368 30.1269ZM133.892 39.9858C134.031 39.0513 134.264 38.1168 134.636 37.229C135.009 36.3413 135.474 35.547 136.079 34.8461C136.684 34.1452 137.429 33.5845 138.359 33.164C139.29 32.7435 140.314 32.5099 141.477 32.5099C143.711 32.5099 145.433 33.164 146.643 34.519C147.853 35.874 148.598 37.6496 148.83 39.9858H133.892Z" fill="white"/>
<path d="M219.38 29.1457C217.891 27.744 216.123 26.6693 214.028 25.8283C211.934 24.9872 209.514 24.6135 206.815 24.6135C204.209 24.6135 201.882 25.0807 199.834 25.9685C197.787 26.8562 196.018 28.0711 194.529 29.613C193.086 28.0711 191.318 26.8562 189.27 25.9685C187.223 25.0807 184.896 24.6135 182.29 24.6135C179.591 24.6135 177.171 25.034 175.077 25.8283C172.982 26.6693 171.214 27.744 169.725 29.1457C168.236 30.5475 167.119 32.1361 166.374 34.0518C165.583 35.9208 165.211 37.9299 165.211 40.0325V61.3388H174.797V40.0325C174.797 39.0513 174.983 38.1168 175.402 37.2758C175.821 36.388 176.333 35.6404 177.031 34.9863C177.729 34.3321 178.52 33.8182 179.404 33.4444C180.335 33.0706 181.266 32.8837 182.29 32.8837C183.314 32.8837 184.291 33.0706 185.175 33.4444C186.106 33.8182 186.897 34.3321 187.549 34.9863C188.247 35.6404 188.758 36.388 189.177 37.2758C189.596 38.1635 189.782 39.0513 189.782 40.0325V61.3388H199.369V40.0325C199.369 39.0513 199.555 38.1168 199.974 37.2758C200.346 36.388 200.905 35.6404 201.603 34.9863C202.254 34.3321 203.092 33.8182 203.976 33.4444C204.907 33.0706 205.838 32.8837 206.862 32.8837C207.885 32.8837 208.863 33.0706 209.747 33.4444C210.678 33.8182 211.469 34.3321 212.12 34.9863C212.772 35.6404 213.33 36.388 213.749 37.2758C214.121 38.1635 214.354 39.0513 214.354 40.0325V61.3388H223.941V40.0325C223.941 37.9299 223.568 35.9208 222.777 34.0518C221.986 32.1361 220.869 30.5475 219.38 29.1457Z" fill="white"/>
<path d="M242.044 10.6427C241.486 10.0821 240.881 9.66154 240.136 9.33447C239.392 9.0074 238.647 8.8205 237.81 8.8205C236.972 8.8205 236.181 9.0074 235.483 9.33447C234.738 9.66154 234.133 10.0821 233.575 10.6427C233.016 11.2034 232.597 11.8109 232.272 12.5584C231.946 13.306 231.76 14.0536 231.76 14.8947C231.76 15.7357 231.899 16.53 232.272 17.2309C232.597 17.9785 233.016 18.5859 233.575 19.1466C234.133 19.7073 234.738 20.1278 235.483 20.4549C236.227 20.7819 236.972 20.9688 237.81 20.9688C238.647 20.9688 239.438 20.7819 240.136 20.4549C240.881 20.1278 241.486 19.7073 242.044 19.1466C242.603 18.5859 243.022 17.9785 243.347 17.2309C243.673 16.4833 243.859 15.7357 243.859 14.8947C243.859 14.0536 243.673 13.2593 243.347 12.5584C243.022 11.8576 242.603 11.2034 242.044 10.6427Z" fill="white"/>
<path d="M242.647 25.4545H232.967V61.2921H242.647V25.4545Z" fill="white"/>
<path d="M287.606 12.0914H277.508V26.7162C277.042 26.4825 276.577 26.2489 276.065 26.062C273.692 25.0808 271.132 24.6136 268.433 24.6136C265.687 24.6136 263.128 25.1275 260.754 26.1087C258.381 27.09 256.38 28.445 254.658 30.127C252.936 31.8091 251.586 33.7716 250.609 36.061C249.632 38.3505 249.12 40.7802 249.12 43.3968C249.12 46.0133 249.632 48.4897 250.609 50.7792C251.586 53.0687 252.936 55.0779 254.658 56.7599C256.38 58.442 258.381 59.7503 260.754 60.7315C263.128 61.7127 265.687 62.18 268.433 62.18C271.178 62.18 273.738 61.7127 276.065 60.7315C278.438 59.7503 280.439 58.442 282.208 56.7599C283.837 55.1713 285.14 53.3023 286.07 51.153C286.117 51.0128 286.164 50.9194 286.21 50.7792C286.955 48.957 287.42 46.9945 287.56 44.9854C287.606 44.4714 287.606 43.9575 287.606 43.4435C287.606 42.9295 287.56 42.4156 287.56 41.9016V12.0914H287.606ZM275.367 50.8727C274.529 51.8539 273.552 52.6015 272.388 53.1154C271.225 53.6761 269.875 53.9098 268.386 53.9098C266.944 53.9098 265.641 53.6294 264.431 53.1154C263.221 52.5548 262.243 51.8072 261.406 50.8727C260.568 49.8915 259.963 48.7701 259.498 47.5085C259.032 46.2002 258.846 44.8452 258.846 43.3968C258.846 41.9016 259.079 40.4999 259.498 39.2383C259.916 37.9767 260.568 36.8554 261.406 35.9209C262.197 34.9397 263.221 34.1921 264.431 33.6781C265.641 33.1174 266.944 32.8838 268.386 32.8838C269.875 32.8838 271.225 33.1641 272.388 33.6781C273.552 34.2388 274.529 34.9864 275.367 35.9209C276.205 36.9021 276.81 37.9767 277.275 39.2383C277.368 39.5186 277.461 39.7523 277.508 40.0326C277.787 41.0606 277.926 42.1819 277.926 43.35C277.926 44.4714 277.787 45.5928 277.508 46.6675C277.461 46.9478 277.368 47.2282 277.275 47.5085C276.81 48.7701 276.205 49.8915 275.367 50.8727Z" fill="white"/>
<path d="M331.907 41.808C331.767 39.7522 331.302 37.8365 330.557 36.0142C330.511 35.874 330.464 35.7806 330.418 35.6404C329.487 33.4911 328.184 31.6221 326.555 30.0335C324.833 28.3514 322.786 27.0431 320.412 26.0619C318.039 25.0807 315.479 24.6135 312.78 24.6135C310.034 24.6135 307.475 25.0807 305.101 26.0619C302.728 27.0431 300.727 28.3514 299.005 30.0335C297.283 31.7156 295.934 33.7247 294.956 36.0142C293.979 38.3037 293.467 40.7801 293.467 43.3967C293.467 46.0132 293.979 48.4429 294.956 50.7324C295.934 53.0219 297.283 54.9843 299.005 56.6664C300.727 58.3485 302.728 59.7035 305.101 60.6847C307.475 61.6659 310.034 62.1799 312.78 62.1799C315.526 62.1799 318.085 61.6659 320.412 60.7314C320.924 60.5445 321.389 60.3109 321.855 60.0773V62.1799H331.954V44.9853C332 44.4713 332 43.9574 332 43.4434C331.954 42.836 331.953 42.322 331.907 41.808ZM321.576 47.5084C321.157 48.77 320.505 49.8913 319.668 50.8258C318.83 51.807 317.853 52.5546 316.689 53.0686C315.526 53.5826 314.176 53.8629 312.687 53.8629C311.244 53.8629 309.941 53.5826 308.731 53.0686C307.521 52.5079 306.544 51.7603 305.706 50.8258C304.869 49.8446 304.264 48.77 303.798 47.5084C303.333 46.2469 303.147 44.8451 303.147 43.3499C303.147 41.9015 303.38 40.4997 303.798 39.2382C304.217 37.9766 304.869 36.8085 305.706 35.874C306.498 34.8928 307.521 34.1452 308.731 33.6313C309.941 33.0706 311.244 32.8369 312.687 32.8369C314.176 32.8369 315.526 33.1173 316.689 33.6313C317.853 34.1452 318.83 34.9395 319.668 35.874C320.505 36.8552 321.11 37.9766 321.576 39.2382C321.669 39.5185 321.762 39.7989 321.808 40.0792C322.088 41.1072 322.227 42.2285 322.227 43.3967C322.227 44.6115 322.088 45.6862 321.808 46.7141C321.762 46.9944 321.669 47.2748 321.576 47.5084Z" fill="white"/>
</svg>
