<svg width="50" height="32" viewBox="0 0 50 32" fill="none" xmlns="http://www.w3.org/2000/svg">
<g clip-path="url(#clip0_90_1309)">
<path d="M48 0H2C0.89543 0 0 0.89543 0 2V30C0 31.1046 0.89543 32 2 32H48C49.1046 32 50 31.1046 50 30V2C50 0.89543 49.1046 0 48 0Z" fill="white"/>
<path d="M48 0.5H2C1.17157 0.5 0.5 1.17157 0.5 2V30C0.5 30.8284 1.17157 31.5 2 31.5H48C48.8284 31.5 49.5 30.8284 49.5 30V2C49.5 1.17157 48.8284 0.5 48 0.5Z" stroke="#707070"/>
<mask id="mask0_90_1309" style="mask-type:luminance" maskUnits="userSpaceOnUse" x="6" y="8" width="38" height="16">
<path d="M43.788 8H6V23.516H43.788V8Z" fill="white"/>
</mask>
<g mask="url(#mask0_90_1309)">
<path d="M12.9001 10C12.6784 10.2794 12.3952 10.504 12.0726 10.6563C11.7501 10.8086 11.3967 10.8844 11.0401 10.878C11.0178 10.5287 11.0653 10.1784 11.18 9.8477C11.2947 9.51699 11.4743 9.21248 11.7081 8.952C12.177 8.40767 12.8387 8.06641 13.5541 8C13.6044 8.72634 13.3698 9.44372 12.9001 10ZM13.5421 11.019C12.5201 10.96 11.6421 11.6 11.1551 11.6C10.6681 11.6 9.91508 11.048 9.10008 11.063C8.57204 11.0771 8.05685 11.229 7.60554 11.5035C7.15423 11.778 6.78247 12.1656 6.52708 12.628C5.42008 14.532 6.23908 17.352 7.30908 18.9C7.83308 19.668 8.46008 20.509 9.28708 20.48C10.0691 20.45 10.3791 19.971 11.3241 19.971C12.2691 19.971 12.5491 20.48 13.3761 20.466C14.2321 20.451 14.7761 19.698 15.2951 18.931C15.665 18.3879 15.9534 17.7936 16.1511 17.167C15.6582 16.9515 15.2384 16.5978 14.9425 16.1485C14.6466 15.6993 14.4874 15.1739 14.4841 14.636C14.4911 14.1581 14.6186 13.6897 14.8547 13.2742C15.0909 12.8587 15.4281 12.5095 15.8351 12.259C15.5753 11.8897 15.2335 11.5857 14.8366 11.3705C14.4396 11.1554 13.9983 11.0351 13.5471 11.019M19.4741 8.878V20.386H21.2601V16.452H23.7331C24.2409 16.4794 24.7489 16.4005 25.2245 16.2202C25.7 16.04 26.1327 15.7624 26.4948 15.4052C26.8568 15.048 27.1403 14.6192 27.327 14.1461C27.5137 13.673 27.5996 13.1662 27.5791 12.658C27.6036 12.1545 27.5224 11.6515 27.3407 11.1813C27.1589 10.7111 26.8807 10.2842 26.5239 9.92809C26.1672 9.57197 25.7398 9.29455 25.2692 9.11369C24.7987 8.93283 24.2955 8.85254 23.7921 8.878H19.4741ZM21.2601 10.384H23.3191C23.6359 10.3401 23.9585 10.3676 24.2634 10.4644C24.5683 10.5612 24.8476 10.7249 25.0811 10.9435C25.3146 11.1621 25.4963 11.4301 25.6129 11.728C25.7295 12.0258 25.7781 12.346 25.7551 12.665C25.778 12.9849 25.7293 13.306 25.6123 13.6047C25.4953 13.9033 25.3131 14.1721 25.079 14.3914C24.8449 14.6107 24.5648 14.7749 24.2591 14.872C23.9534 14.9692 23.6298 14.9969 23.3121 14.953H21.2601V10.384ZM30.8411 20.474C31.3717 20.4884 31.8965 20.3596 32.3602 20.1011C32.8238 19.8426 33.2093 19.464 33.4761 19.005H33.5131V20.385H35.1661V14.658C35.1661 12.997 33.8371 11.927 31.7931 11.927C29.8931 11.927 28.4931 13.012 28.4421 14.503H30.0511C30.1439 14.1364 30.366 13.8157 30.6766 13.6C30.9871 13.3843 31.3652 13.288 31.7411 13.329C32.8331 13.329 33.4461 13.838 33.4461 14.776V15.411L31.2171 15.544C29.1431 15.669 28.0171 16.518 28.0171 17.995C28.022 18.3488 28.1011 18.6976 28.2492 19.019C28.3972 19.3404 28.611 19.6271 28.8767 19.8608C29.1424 20.0945 29.4542 20.2699 29.7918 20.3756C30.1295 20.4814 30.4855 20.5153 30.8371 20.475M31.3171 19.109C30.3651 19.109 29.7601 18.651 29.7601 17.95C29.7601 17.227 30.3431 16.806 31.4601 16.739L33.4461 16.614V17.264C33.4343 17.5271 33.3691 17.785 33.2544 18.0221C33.1398 18.2591 32.9781 18.4704 32.7792 18.643C32.5803 18.8156 32.3484 18.9459 32.0976 19.026C31.8467 19.1061 31.5822 19.1344 31.3201 19.109M37.3731 23.516C39.1151 23.516 39.9341 22.852 40.6501 20.837L43.7871 12.037H41.9721L39.8721 18.837H39.8351L37.7351 12.037H35.8601L38.8861 20.415L38.7241 20.924C38.6697 21.2766 38.4846 21.5959 38.2056 21.8183C37.9265 22.0406 37.574 22.1498 37.2181 22.124C37.0781 22.124 36.8051 22.109 36.6941 22.094V23.474C36.9191 23.5043 37.146 23.519 37.3731 23.518" fill="black"/>
</g>
</g>
<defs>
<clipPath id="clip0_90_1309">
<rect width="50" height="32" fill="white"/>
</clipPath>
</defs>
</svg>
