<svg width="61" height="20" viewBox="0 0 61 20" fill="none" xmlns="http://www.w3.org/2000/svg">
<g clip-path="url(#clip0_90_1380)">
<mask id="mask0_90_1380" style="mask-type:luminance" maskUnits="userSpaceOnUse" x="0" y="0" width="61" height="20">
<path d="M60.966 0.265381H0.953979V19.7344H60.966V0.265381Z" fill="white"/>
</mask>
<g mask="url(#mask0_90_1380)">
<path d="M26.97 19.4104H22.07L25.133 0.601381H30.033L26.97 19.4104ZM17.954 0.601381L13.285 13.5384L12.733 10.7524L11.085 2.29538C10.9858 1.77055 10.6904 1.30322 10.2588 0.988519C9.82726 0.673813 9.292 0.535375 8.76198 0.601381H1.04498L0.953979 0.920381C2.76045 1.37127 4.48762 2.09491 6.07598 3.06638L10.331 19.4104H15.431L23.224 0.601381H17.954ZM56.47 19.4104H60.97L57.046 0.601381H53.109C52.6322 0.564196 52.1561 0.679861 51.7495 0.931597C51.343 1.18333 51.0272 1.55805 50.848 2.00138L43.548 19.4084H48.648L49.669 16.6144H55.894L56.47 19.4104ZM51.081 12.7564L53.654 5.71838L55.101 12.7574L51.081 12.7564ZM43.929 5.12438L44.629 1.08538C43.2152 0.580087 41.7299 0.303284 40.229 0.265381C37.799 0.265381 32.029 1.32738 32.029 6.49238C32.029 11.3514 38.802 11.4124 38.802 13.9644C38.802 16.5164 32.727 16.0644 30.722 14.4504L29.994 18.6734C31.7432 19.4054 33.6251 19.767 35.521 19.7354C38.863 19.7354 43.904 18.0054 43.904 13.2964C43.904 8.40638 37.07 7.95038 37.07 5.82438C37.07 3.69838 41.833 3.96638 43.929 5.12438Z" fill="#2566AF"/>
<path d="M12.733 10.7533L11.085 2.29433C10.9856 1.76968 10.69 1.3026 10.2585 0.988099C9.82697 0.673596 9.29184 0.535296 8.76196 0.601331H1.04496L0.954956 0.919331C3.61289 1.59604 6.09252 2.84097 8.22296 4.56833C10.2475 6.19404 11.8042 8.32805 12.734 10.7523" fill="#E6A540"/>
</g>
</g>
<defs>
<clipPath id="clip0_90_1380">
<rect width="60.012" height="19.469" fill="white" transform="translate(0.953979 0.265381)"/>
</clipPath>
</defs>
</svg>
