<svg width="168" height="153" viewBox="0 0 168 153" fill="none" xmlns="http://www.w3.org/2000/svg">
<g clip-path="url(#clip0_24_1134)">
<path d="M144.482 14.0202L4.40967 54.8315L8.11979 67.5654L148.193 26.7541L144.482 14.0202Z" fill="#737B7D"/>
<path d="M21.145 113.323L0.499354 42.4632C0.346293 41.9378 0.408201 41.3732 0.671451 40.8935C0.934701 40.4138 1.37773 40.0583 1.90308 39.9052L138.58 0.0831453C139.105 -0.0694013 139.67 -0.00728284 140.149 0.255872C140.629 0.519028 140.985 0.961716 141.138 1.48677L159.429 64.2634L158.863 64.4283L140.572 1.65169C140.462 1.27682 140.208 0.960788 139.866 0.772849C139.523 0.584909 139.12 0.540379 138.745 0.649022L2.06797 40.4711C1.69272 40.5804 1.37627 40.8344 1.18824 41.177C1.0002 41.5197 0.955983 41.923 1.06531 42.2983L21.7109 113.158L21.145 113.323Z" fill="#737B7D"/>
<path d="M129.177 64.5548C128.763 64.5544 128.359 64.4196 128.028 64.1708C127.696 63.922 127.454 63.5725 127.337 63.1745L123.874 51.2895C123.733 50.8017 123.791 50.2777 124.035 49.8324C124.279 49.3872 124.69 49.057 125.178 48.9143L137.063 45.4516C137.551 45.31 138.075 45.3678 138.52 45.6122C138.965 45.8566 139.295 46.2676 139.438 46.7552L142.901 58.6401C143.042 59.1279 142.984 59.6519 142.74 60.0972C142.496 60.5425 142.085 60.8727 141.597 61.0153L129.712 64.4781C129.538 64.5289 129.358 64.5547 129.177 64.5548Z" fill="#4EAFBB"/>
<path d="M20.8256 42.6821C20.79 42.56 20.7477 42.44 20.6988 42.3225C20.3665 41.516 19.7479 40.8607 18.9618 40.4826C18.1756 40.1045 17.2775 40.0302 16.44 40.2741C15.6025 40.5179 14.8846 41.0627 14.4243 41.8036C13.964 42.5446 13.7938 43.4296 13.9464 44.2885C13.9678 44.4138 13.9963 44.5378 14.0318 44.6598C14.2471 45.3945 14.6945 46.0397 15.3071 46.4988C15.9198 46.9578 16.6646 47.2061 17.4302 47.2064C17.7644 47.2072 18.097 47.1595 18.4176 47.0649C19.3174 46.802 20.0762 46.193 20.5276 45.3713C20.9791 44.5497 21.0862 43.5826 20.8256 42.6821ZM18.2525 46.499C17.5021 46.7168 16.6959 46.6281 16.0108 46.2524C15.3257 45.8767 14.8175 45.2446 14.5977 44.4948C14.5632 44.3727 14.5357 44.2487 14.5151 44.1234C14.4046 43.4158 14.5556 42.6921 14.9398 42.0877C15.3241 41.4833 15.9154 41.0396 16.6031 40.8395C17.2908 40.6394 18.0278 40.6966 18.6764 41.0005C19.325 41.3044 19.8406 41.8341 20.127 42.4905C20.1804 42.6058 20.2247 42.725 20.2597 42.8472C20.4772 43.5976 20.388 44.4037 20.0117 45.0884C19.6353 45.7731 19.0026 46.2804 18.2525 46.499Z" fill="#4EAFBB"/>
<path d="M12.1506 45.208C11.9619 44.5602 11.9801 43.8697 12.2024 43.2327C12.4247 42.5957 12.8402 42.0439 13.3909 41.6542C12.875 41.6291 12.3604 41.7276 11.8902 41.9416C11.42 42.1555 11.0078 42.4788 10.6878 42.8843C10.3678 43.2899 10.1494 43.766 10.0507 44.2731C9.95199 44.7802 9.97589 45.3035 10.1204 45.7995C10.2649 46.2954 10.5258 46.7497 10.8814 47.1244C11.2371 47.4991 11.6771 47.7834 12.1648 47.9536C12.6525 48.1239 13.1739 48.1751 13.6854 48.103C14.197 48.0309 14.6839 47.8377 15.1056 47.5393C14.4317 47.5064 13.7849 47.2641 13.2552 46.8463C12.7255 46.4284 12.3394 45.8557 12.1506 45.208Z" fill="#4EAFBB"/>
<path d="M103.775 59.8154C103.712 59.5898 103.605 59.3789 103.461 59.1945C103.317 59.0102 103.137 58.8561 102.933 58.7412C102.729 58.6262 102.505 58.5526 102.272 58.5245C102.04 58.4964 101.804 58.5144 101.579 58.5775L82.0109 64.0508L79.9036 64.6403H93.1374L95.2448 64.0508L102.54 62.0112C102.994 61.8835 103.38 61.5805 103.611 61.1688C103.843 60.7571 103.902 60.2703 103.775 59.8154Z" fill="#CCCCCC"/>
<path d="M89.9306 55.7274C89.8031 55.2725 89.5001 54.8869 89.0883 54.6553C88.6765 54.4237 88.1896 54.3651 87.7347 54.4925L58.3726 62.704C57.9623 62.8202 57.6071 63.0792 57.3709 63.4342C57.1347 63.7893 57.0332 64.2171 57.0846 64.6404H64.686L66.7962 64.0509L88.6956 57.9262C89.1507 57.798 89.5364 57.4945 89.7679 57.0823C89.9994 56.67 90.0579 56.1828 89.9306 55.7274Z" fill="#CCCCCC"/>
<path d="M165.521 64.0502H23.1608C22.6138 64.0508 22.0894 64.2684 21.7026 64.6551C21.3158 65.0419 21.0983 65.5664 21.0977 66.1134V150.409C21.0982 150.956 21.3158 151.481 21.7026 151.868C22.0894 152.254 22.6138 152.472 23.1608 152.473H165.521C166.068 152.472 166.593 152.254 166.979 151.868C167.366 151.481 167.584 150.956 167.584 150.409V66.1134C167.584 65.5664 167.366 65.042 166.979 64.6552C166.593 64.2684 166.068 64.0508 165.521 64.0502ZM166.995 150.409C166.995 150.8 166.839 151.175 166.563 151.451C166.287 151.728 165.912 151.883 165.521 151.883H23.1608C22.77 151.883 22.3953 151.728 22.1189 151.451C21.8426 151.175 21.6873 150.8 21.6871 150.409V66.1134C21.6873 65.7226 21.8426 65.3478 22.119 65.0715C22.3953 64.7951 22.77 64.6398 23.1608 64.6397H165.521C165.912 64.6398 166.287 64.7951 166.563 65.0715C166.839 65.3478 166.995 65.7226 166.995 66.1134V150.409Z" fill="#737B7D"/>
<path d="M37.0127 75.5457C36.3132 75.5457 35.6294 75.3383 35.0477 74.9497C34.4661 74.561 34.0128 74.0086 33.7451 73.3623C33.4774 72.7161 33.4073 72.0049 33.5438 71.3188C33.6803 70.6327 34.0171 70.0025 34.5118 69.5079C35.0064 69.0132 35.6366 68.6764 36.3227 68.5399C37.0088 68.4034 37.72 68.4735 38.3662 68.7412C39.0125 69.0089 39.5649 69.4622 39.9536 70.0438C40.3422 70.6255 40.5496 71.3093 40.5496 72.0088C40.5486 72.9465 40.1756 73.8455 39.5125 74.5086C38.8494 75.1717 37.9504 75.5446 37.0127 75.5457ZM37.0127 69.0614C36.4298 69.0614 35.8599 69.2343 35.3752 69.5581C34.8905 69.882 34.5128 70.3423 34.2897 70.8809C34.0666 71.4195 34.0082 72.0121 34.122 72.5838C34.2357 73.1556 34.5164 73.6808 34.9286 74.093C35.3408 74.5052 35.866 74.7859 36.4377 74.8996C37.0095 75.0133 37.6021 74.955 38.1407 74.7319C38.6792 74.5088 39.1395 74.131 39.4634 73.6463C39.7873 73.1616 39.9601 72.5918 39.9601 72.0088C39.9593 71.2274 39.6485 70.4782 39.0959 69.9257C38.5433 69.3731 37.7942 69.0623 37.0127 69.0614Z" fill="#4EAFBB"/>
<path d="M31.5152 72.009C31.5153 71.3343 31.7259 70.6765 32.1175 70.1271C32.5091 69.5777 33.0624 69.1642 33.7001 68.9441C33.2118 68.7756 32.6903 68.7263 32.179 68.8002C31.6677 68.8741 31.1815 69.0691 30.7608 69.369C30.3402 69.6688 29.9973 70.0648 29.7607 70.5241C29.5241 70.9833 29.4006 71.4924 29.4006 72.009C29.4006 72.5256 29.5241 73.0347 29.7607 73.4939C29.9973 73.9532 30.3402 74.3492 30.7608 74.6491C31.1815 74.9489 31.6677 75.1439 32.179 75.2178C32.6903 75.2917 33.2118 75.2424 33.7001 75.0739C33.0624 74.8538 32.5091 74.4403 32.1175 73.8909C31.7259 73.3415 31.5153 72.6837 31.5152 72.009Z" fill="#4EAFBB"/>
<path d="M51.3502 113.797C50.6469 113.796 49.9726 113.516 49.4753 113.019C48.978 112.522 48.6983 111.847 48.6975 111.144V103.186C48.6975 102.482 48.977 101.808 49.4745 101.31C49.9719 100.813 50.6467 100.533 51.3502 100.533C52.0537 100.533 52.7284 100.813 53.2259 101.31C53.7234 101.808 54.0029 102.482 54.0029 103.186V111.144C54.0021 111.847 53.7223 112.522 53.225 113.019C52.7277 113.516 52.0535 113.796 51.3502 113.797Z" fill="#4EAFBB"/>
<path d="M58.4239 113.797C57.7206 113.796 57.0464 113.516 56.5491 113.019C56.0518 112.522 55.772 111.847 55.7712 111.144V103.186C55.7712 102.482 56.0507 101.808 56.5482 101.31C57.0457 100.813 57.7204 100.533 58.4239 100.533C59.1274 100.533 59.8022 100.813 60.2996 101.31C60.7971 101.808 61.0766 102.482 61.0766 103.186V111.144C61.0758 111.847 60.796 112.522 60.2987 113.019C59.8014 113.516 59.1272 113.796 58.4239 113.797Z" fill="#4EAFBB"/>
<path d="M65.4976 113.797C64.7944 113.796 64.1201 113.516 63.6228 113.019C63.1255 112.522 62.8458 111.847 62.845 111.144V103.186C62.845 102.482 63.1245 101.808 63.6219 101.31C64.1194 100.813 64.7941 100.533 65.4976 100.533C66.2012 100.533 66.8759 100.813 67.3734 101.31C67.8708 101.808 68.1503 102.482 68.1503 103.186V111.144C68.1495 111.847 67.8698 112.522 67.3725 113.019C66.8752 113.516 66.2009 113.796 65.4976 113.797Z" fill="#4EAFBB"/>
<path d="M76.4032 113.797C75.6999 113.796 75.0256 113.516 74.5283 113.019C74.031 112.522 73.7513 111.847 73.7505 111.144V103.186C73.7505 102.482 74.03 101.808 74.5274 101.31C75.0249 100.813 75.6996 100.533 76.4032 100.533C77.1067 100.533 77.7814 100.813 78.2789 101.31C78.7764 101.808 79.0558 102.482 79.0558 103.186V111.144C79.055 111.847 78.7753 112.522 78.278 113.019C77.7807 113.516 77.1064 113.796 76.4032 113.797Z" fill="#4EAFBB"/>
<path d="M83.4769 113.797C82.7736 113.796 82.0994 113.516 81.6021 113.019C81.1048 112.522 80.825 111.847 80.8242 111.144V103.186C80.8242 102.482 81.1037 101.808 81.6012 101.31C82.0986 100.813 82.7734 100.533 83.4769 100.533C84.1804 100.533 84.8551 100.813 85.3526 101.31C85.8501 101.808 86.1296 102.482 86.1296 103.186V111.144C86.1288 111.847 85.849 112.522 85.3517 113.019C84.8544 113.516 84.1802 113.796 83.4769 113.797Z" fill="#4EAFBB"/>
<path d="M90.5506 113.797C89.8473 113.796 89.1731 113.516 88.6758 113.019C88.1785 112.522 87.8988 111.847 87.8979 111.144V103.186C87.8979 102.482 88.1774 101.808 88.6749 101.31C89.1724 100.813 89.8471 100.533 90.5506 100.533C91.2542 100.533 91.9289 100.813 92.4263 101.31C92.9238 101.808 93.2033 102.482 93.2033 103.186V111.144C93.2025 111.847 92.9228 112.522 92.4255 113.019C91.9282 113.516 91.2539 113.796 90.5506 113.797Z" fill="#4EAFBB"/>
<path d="M101.456 113.797C100.753 113.796 100.079 113.516 99.5813 113.019C99.084 112.522 98.8043 111.847 98.8035 111.144V103.186C98.8035 102.482 99.0829 101.808 99.5804 101.31C100.078 100.813 100.753 100.533 101.456 100.533C102.16 100.533 102.834 100.813 103.332 101.31C103.829 101.808 104.109 102.482 104.109 103.186V111.144C104.108 111.847 103.828 112.522 103.331 113.019C102.834 113.516 102.159 113.796 101.456 113.797Z" fill="#4EAFBB"/>
<path d="M108.53 113.797C107.827 113.796 107.152 113.516 106.655 113.019C106.158 112.522 105.878 111.847 105.877 111.144V103.186C105.877 102.482 106.157 101.808 106.654 101.31C107.152 100.813 107.826 100.533 108.53 100.533C109.233 100.533 109.908 100.813 110.406 101.31C110.903 101.808 111.183 102.482 111.183 103.186V111.144C111.182 111.847 110.902 112.522 110.405 113.019C109.907 113.516 109.233 113.796 108.53 113.797Z" fill="#4EAFBB"/>
<path d="M115.604 113.797C114.901 113.796 114.226 113.516 113.729 113.019C113.232 112.522 112.952 111.847 112.951 111.144V103.186C112.951 102.482 113.231 101.808 113.728 101.31C114.226 100.813 114.9 100.533 115.604 100.533C116.307 100.533 116.982 100.813 117.48 101.31C117.977 101.808 118.257 102.482 118.257 103.186V111.144C118.256 111.847 117.976 112.522 117.479 113.019C116.981 113.516 116.307 113.796 115.604 113.797Z" fill="#4EAFBB"/>
<path d="M126.509 113.797C125.806 113.796 125.132 113.516 124.634 113.019C124.137 112.522 123.857 111.847 123.856 111.144V103.186C123.856 102.482 124.136 101.808 124.633 101.31C125.131 100.813 125.806 100.533 126.509 100.533C127.213 100.533 127.887 100.813 128.385 101.31C128.882 101.808 129.162 102.482 129.162 103.186V111.144C129.161 111.847 128.881 112.522 128.384 113.019C127.887 113.516 127.212 113.796 126.509 113.797Z" fill="#4EAFBB"/>
<path d="M133.583 113.797C132.88 113.796 132.205 113.516 131.708 113.019C131.211 112.522 130.931 111.847 130.93 111.144V103.186C130.93 102.482 131.21 101.808 131.707 101.31C132.205 100.813 132.879 100.533 133.583 100.533C134.286 100.533 134.961 100.813 135.459 101.31C135.956 101.808 136.236 102.482 136.236 103.186V111.144C136.235 111.847 135.955 112.522 135.458 113.019C134.96 113.516 134.286 113.796 133.583 113.797Z" fill="#4EAFBB"/>
<path d="M140.657 113.797C139.954 113.796 139.279 113.516 138.782 113.019C138.285 112.522 138.005 111.847 138.004 111.144V103.186C138.004 102.482 138.284 101.808 138.781 101.31C139.279 100.813 139.953 100.533 140.657 100.533C141.36 100.533 142.035 100.813 142.533 101.31C143.03 101.808 143.309 102.482 143.309 103.186V111.144C143.309 111.847 143.029 112.522 142.532 113.019C142.034 113.516 141.36 113.796 140.657 113.797Z" fill="#4EAFBB"/>
<path d="M69.3347 143.32H31.1833C30.7106 143.32 30.2572 143.133 29.9229 142.798C29.5887 142.464 29.4009 142.011 29.4009 141.538C29.4009 141.065 29.5887 140.612 29.9229 140.278C30.2572 139.943 30.7106 139.755 31.1833 139.755H69.3347C69.8075 139.755 70.2608 139.943 70.5951 140.278C70.9294 140.612 71.1171 141.065 71.1171 141.538C71.1171 142.011 70.9294 142.464 70.5951 142.798C70.2608 143.133 69.8075 143.32 69.3347 143.32Z" fill="#E6E6E6"/>
<path d="M57.1029 135.657H43.415C42.9423 135.657 42.4889 135.469 42.1546 135.135C41.8204 134.8 41.6326 134.347 41.6326 133.874C41.6326 133.402 41.8204 132.948 42.1546 132.614C42.4889 132.28 42.9423 132.092 43.415 132.092H57.1029C57.5756 132.092 58.029 132.28 58.3632 132.614C58.6975 132.948 58.8853 133.402 58.8853 133.874C58.8853 134.347 58.6975 134.8 58.3632 135.135C58.029 135.469 57.5756 135.657 57.1029 135.657Z" fill="#E6E6E6"/>
<path d="M166.889 81.6702H21.5811V82.2596H166.889V81.6702Z" fill="#737B7D"/>
</g>
<defs>
<clipPath id="clip0_24_1134">
<rect width="167.169" height="152.473" fill="white" transform="translate(0.415771)"/>
</clipPath>
</defs>
</svg>
