<svg width="146" height="146" viewBox="0 0 146 146" fill="none" xmlns="http://www.w3.org/2000/svg">
<path d="M99.4656 82.3371H51.6001C50.5106 82.3339 49.4591 81.9367 48.6394 81.2189L28.9239 63.8305C28.2471 63.2326 27.375 62.903 26.4719 62.9035H9.45728V4.21914C9.45854 3.10054 9.90346 2.02812 10.6944 1.23715C11.4854 0.446185 12.5578 0.00126424 13.6764 0H95.2464C96.365 0.00126357 97.4375 0.446185 98.2284 1.23715C99.0194 2.02812 99.4643 3.10054 99.4656 4.21914L99.4656 82.3371Z" fill="#E6E6E6"/>
<path d="M29.0188 27.2328C33.9616 27.2328 37.9685 23.2258 37.9685 18.2831C37.9685 13.3403 33.9616 9.33337 29.0188 9.33337C24.076 9.33337 20.0691 13.3403 20.0691 18.2831C20.0691 23.2258 24.076 27.2328 29.0188 27.2328Z" fill="white"/>
<path d="M63.7947 13.4885H47.1739C46.8687 13.4885 46.576 13.6098 46.3602 13.8256C46.1444 14.0413 46.0232 14.334 46.0232 14.6392C46.0232 14.9444 46.1444 15.2371 46.3602 15.4528C46.576 15.6686 46.8687 15.7899 47.1739 15.7899H63.7947C64.0999 15.7899 64.3926 15.6686 64.6084 15.4528C64.8242 15.2371 64.9454 14.9444 64.9454 14.6392C64.9454 14.334 64.8242 14.0413 64.6084 13.8256C64.3926 13.6098 64.0999 13.4885 63.7947 13.4885Z" fill="white"/>
<path d="M87.923 20.7762H46.954C46.44 20.7762 46.0232 21.2928 46.0232 21.9269C46.0232 22.5611 46.44 23.0776 46.954 23.0776H87.923C88.4371 23.0776 88.8538 22.5611 88.8538 21.9269C88.8538 21.2928 88.4371 20.7762 87.923 20.7762Z" fill="white"/>
<path d="M84.7035 36.1823H24.219C23.728 36.1823 23.3291 36.6988 23.3291 37.3329C23.3291 37.9671 23.728 38.4836 24.219 38.4836H84.7035C85.1944 38.4836 85.5934 37.9671 85.5934 37.3329C85.5934 36.6988 85.1944 36.1823 84.7035 36.1823Z" fill="white"/>
<path d="M84.7035 43.3422H24.219C23.728 43.3422 23.3291 43.8587 23.3291 44.4928C23.3291 45.127 23.728 45.6435 24.219 45.6435H84.7035C85.1944 45.6435 85.5934 45.127 85.5934 44.4928C85.5934 43.8587 85.1944 43.3422 84.7035 43.3422Z" fill="white"/>
<path d="M84.7035 50.502H24.219C23.728 50.502 23.3291 51.0185 23.3291 51.6526C23.3291 52.2868 23.728 52.8033 24.219 52.8033H84.7035C85.1944 52.8033 85.5934 52.2868 85.5934 51.6526C85.5934 51.0185 85.1944 50.502 84.7035 50.502Z" fill="white"/>
<path d="M84.7035 57.6616H24.219C23.728 57.6616 23.3291 58.1781 23.3291 58.8123C23.3291 59.4464 23.728 59.963 24.219 59.963H84.7035C85.1944 59.963 85.5934 59.4464 85.5934 58.8123C85.5934 58.1781 85.1944 57.6616 84.7035 57.6616Z" fill="white"/>
<path d="M139.1 82.3372H51.6001C50.729 82.3387 49.8767 82.0841 49.1491 81.6051L49.0916 81.5673V21.8628C49.0928 20.7442 49.5377 19.6718 50.3287 18.8808C51.1197 18.0899 52.1921 17.6449 53.3107 17.6437H134.881C135.999 17.6449 137.072 18.0899 137.863 18.8808C138.654 19.6718 139.099 20.7442 139.1 21.8628L139.1 82.3372Z" fill="#24ACB1"/>
<path d="M68.6531 44.8766C73.5958 44.8766 77.6027 40.8696 77.6027 35.9269C77.6027 30.9841 73.5958 26.9772 68.6531 26.9772C63.7103 26.9772 59.7034 30.9841 59.7034 35.9269C59.7034 40.8696 63.7103 44.8766 68.6531 44.8766Z" fill="white"/>
<path d="M103.429 31.1323H86.8081C86.503 31.1323 86.2103 31.2536 85.9945 31.4694C85.7787 31.6851 85.6575 31.9778 85.6575 32.283C85.6575 32.5882 85.7787 32.8809 85.9945 33.0966C86.2103 33.3124 86.503 33.4337 86.8081 33.4337H103.429C103.734 33.4337 104.027 33.3124 104.243 33.0966C104.458 32.8809 104.58 32.5882 104.58 32.283C104.58 31.9778 104.458 31.6851 104.243 31.4694C104.027 31.2536 103.734 31.1323 103.429 31.1323Z" fill="white"/>
<path d="M127.557 38.4199H86.5883C86.0742 38.4199 85.6575 38.9364 85.6575 39.5706C85.6575 40.2047 86.0742 40.7213 86.5883 40.7213H127.557C128.071 40.7213 128.488 40.2047 128.488 39.5706C128.488 38.9364 128.071 38.4199 127.557 38.4199Z" fill="white"/>
<path d="M124.338 53.8259H63.8535C63.3625 53.8259 62.9636 54.3425 62.9636 54.9766C62.9636 55.6108 63.3625 56.1273 63.8535 56.1273H124.338C124.829 56.1273 125.228 55.6108 125.228 54.9766C125.228 54.3425 124.829 53.8259 124.338 53.8259Z" fill="white"/>
<path d="M124.338 60.986H63.8535C63.3625 60.986 62.9636 61.5025 62.9636 62.1366C62.9636 62.7708 63.3625 63.2873 63.8535 63.2873H124.338C124.829 63.2873 125.228 62.7708 125.228 62.1366C125.228 61.5025 124.829 60.986 124.338 60.986Z" fill="white"/>
<path d="M124.338 68.1456H63.8535C63.3625 68.1456 62.9636 68.6622 62.9636 69.2963C62.9636 69.9305 63.3625 70.447 63.8535 70.447H124.338C124.829 70.447 125.228 69.9305 125.228 69.2963C125.228 68.6622 124.829 68.1456 124.338 68.1456Z" fill="white"/>
<path d="M124.338 75.3053H63.8535C63.3625 75.3053 62.9636 75.8218 62.9636 76.456C62.9636 77.0901 63.3625 77.6066 63.8535 77.6066H124.338C124.829 77.6066 125.228 77.0901 125.228 76.456C125.228 75.8218 124.829 75.3053 124.338 75.3053Z" fill="white"/>
<path d="M141.529 81.6979H51.6001C50.7357 81.6989 49.8965 81.4069 49.2194 80.8694C49.1657 80.8285 49.1146 80.785 49.0635 80.739L41.4511 74.0267L29.3461 63.351C28.5526 62.6504 27.5304 62.2639 26.4719 62.2643H4.47102C3.31862 62.2659 2.21389 62.7244 1.39902 63.5393C0.584157 64.3542 0.125654 65.4589 0.124023 66.6113V141.653C0.125654 142.805 0.584157 143.91 1.39902 144.725C2.21389 145.54 3.31862 145.998 4.47102 146H141.529C142.682 145.998 143.786 145.54 144.601 144.725C145.416 143.91 145.874 142.805 145.876 141.653V86.0449C145.874 84.8925 145.416 83.7878 144.601 82.9729C143.786 82.158 142.682 81.6995 141.529 81.6979ZM145.365 141.653C145.363 142.67 144.959 143.645 144.24 144.364C143.521 145.083 142.546 145.487 141.529 145.489H4.47102C3.45414 145.487 2.47926 145.083 1.76022 144.364C1.04117 143.645 0.636671 142.67 0.635434 141.653V66.6113C0.636671 65.5944 1.04117 64.6195 1.76022 63.9005C2.47926 63.1814 3.45414 62.7769 4.47102 62.7757H26.4719C27.4061 62.775 28.3084 63.116 29.0085 63.7346L40.6789 74.0267L48.7234 81.1226C49.5197 81.8202 50.5414 82.2062 51.6001 82.2093H141.529C142.546 82.2105 143.521 82.615 144.24 83.3341C144.959 84.0531 145.363 85.028 145.365 86.0449V141.653Z" fill="#424D57"/>
</svg>
