<svg width="145" height="31" viewBox="0 0 145 31" fill="none" xmlns="http://www.w3.org/2000/svg">
<path d="M16.4233 20.051C17.155 19.8878 17.846 19.5614 18.4558 19.031C20.3867 17.3581 20.6306 14.4408 18.9639 12.4823C17.8257 11.1359 16.0981 10.6259 14.4924 10.9523C13.7607 11.1155 13.0696 11.4419 12.4599 11.9723C10.529 13.6452 10.2851 16.5625 11.9518 18.521C13.09 19.8674 14.8176 20.3978 16.4233 20.051Z" fill="#00A4AF"/>
<path d="M16.159 0.0174917C14.8988 -0.0437107 13.6793 0.058297 12.5005 0.282706C6.09807 1.54755 0.955825 6.85176 0.122497 13.584C-0.34498 17.3174 0.54932 20.8671 2.3989 23.7844C2.6428 24.172 3.06963 24.3148 3.47614 24.2332C3.65906 24.1924 3.84199 24.1108 3.98426 23.9476L7.31757 20.6019C4.65499 16.3381 5.67124 10.5647 10.0208 7.54539C11.1997 6.72936 12.5411 6.19893 13.9029 5.97452C16.911 5.48491 20.0817 6.44374 22.2972 8.70823C26.2402 12.7476 25.8947 19.1942 21.6874 22.8052C20.4273 23.8864 18.9842 24.58 17.4801 24.9065C17.4598 24.9065 17.4598 24.9065 17.4395 24.9065C17.3378 24.9269 17.2362 24.9473 17.1346 24.9677C15.0411 25.3349 12.846 25.0085 10.9558 23.9884L7.60212 27.3545C7.13465 27.8238 7.23627 28.6194 7.80537 28.9662C9.75658 30.0883 11.9923 30.8023 14.411 30.9655C15.6915 31.0471 16.9517 30.9859 18.1712 30.7615C24.7565 29.5578 30.0613 24.1108 30.8134 17.1746C31.789 8.27981 25.0817 0.425507 16.159 0.0174917Z" fill="#00A4AF"/>
<path d="M54.0456 6.50334C54.0456 5.83012 53.4968 5.2793 52.8261 5.2793H37.7449V9.15545H43.7001V9.72667V20.3555V26.7613H48.07V20.8655V9.72667V9.15545H54.0253V6.50334H54.0456Z" fill="#15324F"/>
<path d="M67.4198 13.154C66.81 12.3992 66.058 11.828 65.1027 11.3995C64.1678 10.9711 63.0499 10.7467 61.7491 10.7467C60.6515 10.7467 59.6353 10.9507 58.7003 11.3383C57.7654 11.726 56.9524 12.2768 56.2613 12.9908C55.5703 13.7048 55.0215 14.5617 54.6353 15.5613C54.2491 16.5609 54.0459 17.683 54.0459 18.9274C54.0459 20.0291 54.2491 21.0695 54.6557 22.0284C55.0622 22.9872 55.6516 23.8236 56.4036 24.5173C57.176 25.2109 58.0906 25.7617 59.1678 26.1493C60.245 26.5573 61.4645 26.7409 62.806 26.7409H67.2165V23.1504H62.867C61.7288 23.1504 60.7735 22.9056 60.0011 22.4364C59.2288 21.9468 58.7207 21.2327 58.4971 20.2739H69.0458C69.0865 20.1311 69.1068 19.9271 69.1474 19.6619C69.1678 19.3967 69.1881 19.1518 69.1881 18.9274C69.1881 17.8054 69.0458 16.7446 68.7612 15.7449C68.4564 14.7657 68.0092 13.9088 67.4198 13.154ZM58.4768 17.4586C58.5377 17.0506 58.6394 16.6426 58.802 16.2549C58.9646 15.8673 59.1678 15.5205 59.432 15.2145C59.6963 14.9085 60.0215 14.6637 60.428 14.4801C60.8345 14.2965 61.2816 14.1945 61.7897 14.1945C62.7654 14.1945 63.5174 14.4801 64.0458 15.0717C64.5743 15.6633 64.8995 16.4385 65.0011 17.4586H58.4768Z" fill="#15324F"/>
<path d="M95.8137 12.7256C95.1633 12.1136 94.3909 11.6444 93.4763 11.2771C92.5617 10.9099 91.5047 10.7467 90.3259 10.7467C89.1877 10.7467 88.1714 10.9507 87.2771 11.3384C86.3828 11.726 85.6105 12.2564 84.9601 12.9296C84.33 12.2564 83.5576 11.726 82.6633 11.3384C81.769 10.9507 80.7528 10.7467 79.6146 10.7467C78.4357 10.7467 77.3788 10.9303 76.4642 11.2771C75.5496 11.6444 74.7772 12.1136 74.1268 12.7256C73.4764 13.3376 72.9886 14.0313 72.6634 14.8677C72.3179 15.6837 72.1553 16.561 72.1553 17.479V26.7817H76.3422V17.479C76.3422 17.0506 76.4235 16.6426 76.6065 16.2753C76.7894 15.8877 77.013 15.5613 77.3178 15.2757C77.6227 14.9901 77.9682 14.7657 78.3544 14.6025C78.7609 14.4393 79.1674 14.3577 79.6146 14.3577C80.0617 14.3577 80.4886 14.4393 80.8747 14.6025C81.2812 14.7657 81.6268 14.9901 81.9113 15.2757C82.2162 15.5613 82.4398 15.8877 82.6227 16.2753C82.8056 16.663 82.8869 17.0506 82.8869 17.479V26.7817H87.0739V17.479C87.0739 17.0506 87.1552 16.6426 87.3381 16.2753C87.5007 15.8877 87.7446 15.5613 88.0495 15.2757C88.334 14.9901 88.6999 14.7657 89.0861 14.6025C89.4926 14.4393 89.8991 14.3577 90.3462 14.3577C90.7934 14.3577 91.2202 14.4393 91.6064 14.6025C92.0129 14.7657 92.3584 14.9901 92.6429 15.2757C92.9275 15.5613 93.1714 15.8877 93.3543 16.2753C93.5169 16.663 93.6185 17.0506 93.6185 17.479V26.7817H97.8055V17.479C97.8055 16.561 97.6429 15.6837 97.2974 14.8677C96.9519 14.0313 96.4641 13.3376 95.8137 12.7256Z" fill="#15324F"/>
<path d="M105.712 4.64683C105.468 4.40202 105.204 4.21842 104.879 4.07561C104.554 3.93281 104.229 3.8512 103.863 3.8512C103.497 3.8512 103.151 3.93281 102.846 4.07561C102.521 4.21842 102.257 4.40202 102.013 4.64683C101.769 4.89164 101.586 5.15685 101.444 5.48326C101.302 5.80968 101.22 6.13609 101.22 6.5033C101.22 6.87052 101.281 7.21733 101.444 7.52334C101.586 7.84976 101.769 8.11497 102.013 8.35978C102.257 8.60459 102.521 8.78819 102.846 8.931C103.172 9.0738 103.497 9.15541 103.863 9.15541C104.229 9.15541 104.574 9.0738 104.879 8.931C105.204 8.78819 105.468 8.60459 105.712 8.35978C105.956 8.11497 106.139 7.84976 106.281 7.52334C106.424 7.19693 106.505 6.87052 106.505 6.5033C106.505 6.13609 106.424 5.78928 106.281 5.48326C106.139 5.17725 105.956 4.89164 105.712 4.64683Z" fill="#15324F"/>
<path d="M105.975 11.114H101.748V26.7614H105.975V11.114Z" fill="#15324F"/>
<path d="M125.611 5.27935H121.201V11.6648C120.997 11.5628 120.794 11.4608 120.57 11.3792C119.534 10.9508 118.416 10.7468 117.237 10.7468C116.038 10.7468 114.92 10.9712 113.884 11.3996C112.847 11.828 111.973 12.4196 111.221 13.1541C110.469 13.8885 109.879 14.7453 109.453 15.745C109.026 16.7446 108.802 17.8054 108.802 18.9479C108.802 20.0903 109.026 21.1716 109.453 22.1712C109.879 23.1708 110.469 24.0481 111.221 24.7825C111.973 25.5169 112.847 26.0882 113.884 26.5166C114.92 26.945 116.038 27.149 117.237 27.149C118.436 27.149 119.554 26.945 120.57 26.5166C121.607 26.0882 122.481 25.5169 123.253 24.7825C123.965 24.0889 124.534 23.2728 124.94 22.3344C124.961 22.2732 124.981 22.2324 125.001 22.1712C125.327 21.3756 125.53 20.5187 125.591 19.6415C125.611 19.4171 125.611 19.1927 125.611 18.9683C125.611 18.7439 125.591 18.5195 125.591 18.2951V5.27935H125.611ZM120.266 22.212C119.9 22.6404 119.473 22.9668 118.965 23.1912C118.457 23.4361 117.867 23.5381 117.217 23.5381C116.587 23.5381 116.018 23.4157 115.489 23.1912C114.961 22.9464 114.534 22.62 114.168 22.212C113.802 21.7836 113.538 21.294 113.335 20.7432C113.131 20.1719 113.05 19.5803 113.05 18.9479C113.05 18.2951 113.152 17.683 113.335 17.1322C113.518 16.5814 113.802 16.0918 114.168 15.6838C114.514 15.2553 114.961 14.9289 115.489 14.7045C116.018 14.4597 116.587 14.3577 117.217 14.3577C117.867 14.3577 118.457 14.4801 118.965 14.7045C119.473 14.9493 119.9 15.2757 120.266 15.6838C120.631 16.1122 120.896 16.5814 121.099 17.1322C121.14 17.2546 121.18 17.3566 121.201 17.479C121.322 17.9278 121.383 18.4175 121.383 18.9275C121.383 19.4171 121.322 19.9067 121.201 20.3759C121.18 20.4983 121.14 20.6207 121.099 20.7432C120.896 21.294 120.631 21.7836 120.266 22.212Z" fill="#15324F"/>
<path d="M144.959 18.2542C144.898 17.3566 144.695 16.5202 144.37 15.7245C144.35 15.6633 144.329 15.6225 144.309 15.5613C143.903 14.6229 143.333 13.8068 142.622 13.1132C141.87 12.3788 140.976 11.8076 139.939 11.3791C138.903 10.9507 137.785 10.7467 136.606 10.7467C135.407 10.7467 134.289 10.9507 133.252 11.3791C132.216 11.8076 131.342 12.3788 130.59 13.1132C129.838 13.8476 129.248 14.7249 128.821 15.7245C128.394 16.7242 128.171 17.8054 128.171 18.9478C128.171 20.0903 128.394 21.1511 128.821 22.1508C129.248 23.1504 129.838 24.0072 130.59 24.7417C131.342 25.4761 132.216 26.0677 133.252 26.4961C134.289 26.9246 135.407 27.149 136.606 27.149C137.805 27.149 138.923 26.9246 139.939 26.5165C140.163 26.4349 140.366 26.3329 140.569 26.2309V27.149H144.98V19.6415C145 19.4171 145 19.1927 145 18.9682C144.98 18.703 144.98 18.4786 144.959 18.2542ZM140.447 20.7431C140.264 21.2939 139.98 21.7836 139.614 22.1916C139.248 22.62 138.821 22.9464 138.313 23.1708C137.805 23.3952 137.216 23.5176 136.565 23.5176C135.935 23.5176 135.366 23.3952 134.838 23.1708C134.309 22.926 133.882 22.5996 133.516 22.1916C133.151 21.7632 132.886 21.2939 132.683 20.7431C132.48 20.1923 132.399 19.5803 132.399 18.9274C132.399 18.295 132.5 17.683 132.683 17.1322C132.866 16.5814 133.151 16.0713 133.516 15.6633C133.862 15.2349 134.309 14.9085 134.838 14.6841C135.366 14.4393 135.935 14.3373 136.565 14.3373C137.216 14.3373 137.805 14.4597 138.313 14.6841C138.821 14.9085 139.248 15.2553 139.614 15.6633C139.98 16.0917 140.244 16.5814 140.447 17.1322C140.488 17.2546 140.529 17.377 140.549 17.4994C140.671 17.9482 140.732 18.4378 140.732 18.9478C140.732 19.4783 140.671 19.9475 140.549 20.3963C140.529 20.5187 140.488 20.6411 140.447 20.7431Z" fill="#15324F"/>
</svg>
