<svg width="66" height="14" viewBox="0 0 66 14" fill="none" xmlns="http://www.w3.org/2000/svg">
<path d="M7.44499 9.05558C7.77666 8.98187 8.08992 8.83446 8.36631 8.59492C9.24157 7.83943 9.35213 6.52193 8.59664 5.63746C8.0807 5.02938 7.29757 4.79905 6.56973 4.94647C6.23805 5.02017 5.9248 5.16758 5.6484 5.40713C4.77314 6.16262 4.66258 7.48011 5.41807 8.36458C5.93401 8.97266 6.71714 9.2122 7.44499 9.05558Z" fill="#AFB2B6"/>
<path d="M7.32479 0.00789947C6.75357 -0.0197403 6.20077 0.0263277 5.6664 0.127674C2.76423 0.698896 0.433271 3.09434 0.0555273 6.13472C-0.156378 7.82074 0.249004 9.42385 1.08741 10.7413C1.19797 10.9164 1.39145 10.9809 1.57572 10.944C1.65863 10.9256 1.74155 10.8888 1.80605 10.8151L3.31702 9.30408C2.11008 7.37851 2.57075 4.77116 4.54238 3.40759C5.07675 3.03906 5.68483 2.79952 6.30212 2.69817C7.66568 2.47705 9.10295 2.91008 10.1072 3.93275C11.8946 5.75697 11.7379 8.66836 9.8308 10.2991C9.25957 10.7874 8.60543 11.1007 7.92365 11.2481C7.91444 11.2481 7.91444 11.2481 7.90522 11.2481C7.85916 11.2573 7.81309 11.2665 7.76702 11.2757C6.81806 11.4416 5.82303 11.2941 4.96619 10.8335L3.44601 12.3537C3.2341 12.5656 3.28017 12.9249 3.53814 13.0815C4.42261 13.5882 5.43607 13.9107 6.53245 13.9844C7.11288 14.0213 7.68411 13.9936 8.2369 13.8923C11.222 13.3487 13.6267 10.8888 13.9676 7.75625C14.4098 3.73927 11.3694 0.192165 7.32479 0.00789947Z" fill="#AFB2B6"/>
<path d="M24.4984 2.93707C24.4984 2.63304 24.2497 2.38428 23.9456 2.38428H17.1094V4.1348H19.8089V4.39277V9.19287V12.0858H21.7897V9.42321V4.39277V4.1348H24.4892V2.93707H24.4984Z" fill="#AFB2B6"/>
<path d="M30.5604 5.94068C30.284 5.59979 29.9431 5.34182 29.5101 5.14834C29.0862 4.95486 28.5795 4.85352 27.9899 4.85352C27.4924 4.85352 27.0317 4.94565 26.6079 5.1207C26.1841 5.29575 25.8155 5.54451 25.5023 5.86697C25.189 6.18944 24.9403 6.57639 24.7652 7.02784C24.5902 7.47929 24.498 7.98602 24.498 8.54803C24.498 9.04555 24.5902 9.51542 24.7744 9.94845C24.9587 10.3815 25.2259 10.7592 25.5668 11.0725C25.9169 11.3857 26.3315 11.6345 26.8198 11.8095C27.3081 11.9938 27.8609 12.0767 28.469 12.0767H30.4682V10.4552H28.4966C27.9807 10.4552 27.5476 10.3446 27.1975 10.1327C26.8474 9.91159 26.6171 9.58913 26.5157 9.15611H31.2974C31.3159 9.09161 31.3251 8.99948 31.3435 8.87971C31.3527 8.75994 31.3619 8.64938 31.3619 8.54803C31.3619 8.0413 31.2974 7.56221 31.1684 7.11076C31.0302 6.66853 30.8276 6.28157 30.5604 5.94068ZM26.5065 7.88468C26.5342 7.70041 26.5802 7.51615 26.6539 7.3411C26.7277 7.16604 26.8198 7.00942 26.9396 6.87122C27.0593 6.73302 27.2067 6.62246 27.391 6.53954C27.5753 6.45662 27.778 6.41056 28.0083 6.41056C28.4505 6.41056 28.7914 6.53954 29.031 6.80673C29.2705 7.07391 29.4179 7.42401 29.464 7.88468H26.5065Z" fill="#AFB2B6"/>
<path d="M43.4322 5.7472C43.1374 5.4708 42.7873 5.2589 42.3727 5.09306C41.9581 4.92722 41.479 4.85352 40.9447 4.85352C40.4287 4.85352 39.9681 4.94565 39.5627 5.1207C39.1573 5.29575 38.8072 5.5353 38.5124 5.83933C38.2267 5.5353 37.8766 5.29575 37.4713 5.1207C37.0659 4.94565 36.6052 4.85352 36.0893 4.85352C35.5549 4.85352 35.0758 4.93643 34.6612 5.09306C34.2466 5.2589 33.8965 5.4708 33.6017 5.7472C33.3069 6.0236 33.0858 6.33685 32.9383 6.71459C32.7817 7.08312 32.708 7.47929 32.708 7.89389V12.0951H34.6059V7.89389C34.6059 7.70041 34.6428 7.51615 34.7257 7.35031C34.8086 7.17525 34.91 7.02784 35.0482 6.89886C35.1864 6.76987 35.343 6.66853 35.5181 6.59482C35.7023 6.52111 35.8866 6.48426 36.0893 6.48426C36.292 6.48426 36.4854 6.52111 36.6605 6.59482C36.8448 6.66853 37.0014 6.76987 37.1304 6.89886C37.2686 7.02784 37.3699 7.17525 37.4528 7.35031C37.5358 7.52536 37.5726 7.70041 37.5726 7.89389V12.0951H39.4705V7.89389C39.4705 7.70041 39.5074 7.51615 39.5903 7.35031C39.664 7.17525 39.7746 7.02784 39.9128 6.89886C40.0418 6.76987 40.2076 6.66853 40.3827 6.59482C40.5669 6.52111 40.7512 6.48426 40.9539 6.48426C41.1566 6.48426 41.35 6.52111 41.5251 6.59482C41.7094 6.66853 41.866 6.76987 41.995 6.89886C42.124 7.02784 42.2345 7.17525 42.3174 7.35031C42.3911 7.52536 42.4372 7.70041 42.4372 7.89389V12.0951H44.3351V7.89389C44.3351 7.47929 44.2614 7.08312 44.1048 6.71459C43.9482 6.33685 43.7271 6.0236 43.4322 5.7472Z" fill="#AFB2B6"/>
<path d="M47.9189 2.09857C47.8084 1.98802 47.6886 1.9051 47.5412 1.8406C47.3938 1.77611 47.2464 1.73926 47.0805 1.73926C46.9147 1.73926 46.7581 1.77611 46.6199 1.8406C46.4725 1.9051 46.3527 1.98802 46.2421 2.09857C46.1316 2.20913 46.0486 2.32891 45.9842 2.47632C45.9197 2.62373 45.8828 2.77114 45.8828 2.93698C45.8828 3.10282 45.9105 3.25945 45.9842 3.39764C46.0486 3.54506 46.1316 3.66483 46.2421 3.77539C46.3527 3.88595 46.4725 3.96887 46.6199 4.03336C46.7673 4.09785 46.9147 4.13471 47.0805 4.13471C47.2464 4.13471 47.403 4.09785 47.5412 4.03336C47.6886 3.96887 47.8084 3.88595 47.9189 3.77539C48.0295 3.66483 48.1124 3.54506 48.1769 3.39764C48.2414 3.25023 48.2783 3.10282 48.2783 2.93698C48.2783 2.77114 48.2414 2.61452 48.1769 2.47632C48.1124 2.33812 48.0295 2.20913 47.9189 2.09857Z" fill="#AFB2B6"/>
<path d="M48.0384 5.01904H46.122V12.0856H48.0384V5.01904Z" fill="#AFB2B6"/>
<path d="M56.9387 2.38428H54.9394V5.26803C54.8473 5.22196 54.7552 5.17589 54.6538 5.13904C54.1839 4.94556 53.6772 4.85343 53.1428 4.85343C52.5993 4.85343 52.0925 4.95478 51.6227 5.14826C51.1528 5.34173 50.7566 5.60892 50.4157 5.9406C50.0748 6.27227 49.8076 6.65923 49.6142 7.11068C49.4207 7.56213 49.3193 8.04122 49.3193 8.55716C49.3193 9.0731 49.4207 9.56141 49.6142 10.0129C49.8076 10.4643 50.0748 10.8605 50.4157 11.1922C50.7566 11.5238 51.1528 11.7818 51.6227 11.9753C52.0925 12.1688 52.5993 12.2609 53.1428 12.2609C53.6864 12.2609 54.1932 12.1688 54.6538 11.9753C55.1237 11.7818 55.5199 11.5238 55.87 11.1922C56.1924 10.8789 56.4504 10.5104 56.6347 10.0866C56.6439 10.0589 56.6531 10.0405 56.6623 10.0129C56.8097 9.65354 56.9019 9.26658 56.9295 8.87041C56.9387 8.76907 56.9387 8.66772 56.9387 8.56638C56.9387 8.46503 56.9295 8.36368 56.9295 8.26234V2.38428H56.9387ZM54.5156 10.0313C54.3498 10.2248 54.1563 10.3722 53.926 10.4735C53.6956 10.5841 53.4285 10.6301 53.1336 10.6301C52.848 10.6301 52.59 10.5749 52.3505 10.4735C52.111 10.363 51.9175 10.2155 51.7516 10.0313C51.5858 9.8378 51.466 9.61669 51.3739 9.36793C51.2818 9.10996 51.2449 8.84277 51.2449 8.55716C51.2449 8.26234 51.291 7.98594 51.3739 7.73718C51.4568 7.48842 51.5858 7.2673 51.7516 7.08304C51.9083 6.88956 52.111 6.74215 52.3505 6.6408C52.59 6.53025 52.848 6.48418 53.1336 6.48418C53.4285 6.48418 53.6956 6.53946 53.926 6.6408C54.1563 6.75136 54.3498 6.89877 54.5156 7.08304C54.6815 7.27652 54.8012 7.48842 54.8934 7.73718C54.9118 7.79246 54.9302 7.83853 54.9394 7.89381C54.9947 8.0965 55.0223 8.31762 55.0223 8.54795C55.0223 8.76907 54.9947 8.99018 54.9394 9.20209C54.9302 9.25737 54.9118 9.31265 54.8934 9.36793C54.8012 9.61669 54.6815 9.8378 54.5156 10.0313Z" fill="#AFB2B6"/>
<path d="M65.7098 8.24399C65.6821 7.83861 65.59 7.46087 65.4426 7.10155C65.4334 7.07391 65.4242 7.05548 65.4149 7.02784C65.2307 6.60403 64.9727 6.2355 64.6502 5.92225C64.3093 5.59057 63.904 5.3326 63.4341 5.13912C62.9642 4.94565 62.4575 4.85352 61.9231 4.85352C61.3795 4.85352 60.8728 4.94565 60.4029 5.13912C59.933 5.3326 59.5369 5.59057 59.196 5.92225C58.8551 6.25393 58.5879 6.6501 58.3944 7.10155C58.201 7.553 58.0996 8.0413 58.0996 8.55724C58.0996 9.07319 58.201 9.55228 58.3944 10.0037C58.5879 10.4552 58.8551 10.8421 59.196 11.1738C59.5369 11.5055 59.933 11.7727 60.4029 11.9662C60.8728 12.1596 61.3795 12.261 61.9231 12.261C62.4667 12.261 62.9734 12.1596 63.4341 11.9754C63.5354 11.9385 63.6276 11.8924 63.7197 11.8464V12.261H65.719V8.87049C65.7282 8.76915 65.7282 8.6678 65.7282 8.56646C65.719 8.44669 65.719 8.34534 65.7098 8.24399ZM63.6644 9.36801C63.5815 9.61677 63.4525 9.83789 63.2867 10.0222C63.1208 10.2156 62.9274 10.363 62.697 10.4644C62.4667 10.5657 62.1995 10.621 61.9047 10.621C61.6191 10.621 61.3611 10.5657 61.1216 10.4644C60.882 10.3538 60.6885 10.2064 60.5227 10.0222C60.3569 9.82867 60.2371 9.61677 60.145 9.36801C60.0528 9.11926 60.016 8.84285 60.016 8.54803C60.016 8.26242 60.062 7.98602 60.145 7.73726C60.2279 7.48851 60.3569 7.25817 60.5227 7.07391C60.6793 6.88043 60.882 6.73302 61.1216 6.63167C61.3611 6.52111 61.6191 6.47505 61.9047 6.47505C62.1995 6.47505 62.4667 6.53033 62.697 6.63167C62.9274 6.73302 63.1208 6.88964 63.2867 7.07391C63.4525 7.26739 63.5723 7.48851 63.6644 7.73726C63.6828 7.79254 63.7013 7.84782 63.7105 7.9031C63.7658 8.10579 63.7934 8.32691 63.7934 8.55724C63.7934 8.79679 63.7658 9.00869 63.7105 9.21139C63.7013 9.26667 63.6828 9.32195 63.6644 9.36801Z" fill="#AFB2B6"/>
</svg>
