<svg width="41" height="42" viewBox="0 0 41 42" fill="none" xmlns="http://www.w3.org/2000/svg">
<path d="M20.4282 28.7965L28.1586 21.0661L20.4282 13.3356L18.0413 15.7346L21.6695 19.3628H12.7249V22.7693H21.6695L18.0413 26.3976L20.4282 28.7965ZM20.5016 41.365C17.7193 41.365 15.0936 40.8337 12.6245 39.7711C10.1554 38.7085 7.9989 37.2551 6.1549 35.4111C4.3109 33.5671 2.85758 31.4111 1.79495 28.9431C0.73235 26.4751 0.20105 23.85 0.20105 21.0677C0.20105 18.2521 0.73235 15.6098 1.79495 13.1407C2.85758 10.6716 4.31027 8.52315 6.153 6.69539C7.99577 4.86765 10.1515 3.42069 12.6201 2.35449C15.0886 1.28829 17.7144 0.755188 20.4973 0.755188C23.3136 0.755188 25.9567 1.28799 28.4268 2.35359C30.8968 3.41915 33.0454 4.86529 34.8726 6.69199C36.6997 8.51869 38.1462 10.6667 39.212 13.1361C40.2779 15.6056 40.8109 18.2489 40.8109 21.0661C40.8109 23.8495 40.2777 26.4756 39.2115 28.9446C38.1453 31.4136 36.6984 33.5696 34.8706 35.4126C33.0429 37.2556 30.895 38.7085 28.427 39.7711C25.959 40.8337 23.3172 41.365 20.5016 41.365ZM20.5 37.9585C25.2014 37.9585 29.1921 36.3126 32.4722 33.0209C35.7523 29.7292 37.3924 25.7442 37.3924 21.0661C37.3924 16.3647 35.7523 12.3739 32.4722 9.09379C29.1921 5.81372 25.1994 4.17369 20.4939 4.17369C15.8218 4.17369 11.8394 5.81372 8.5467 9.09379C5.25393 12.3739 3.60755 16.3667 3.60755 21.0721C3.60755 25.7442 5.25342 29.7266 8.54515 33.0193C11.8369 36.3121 15.8218 37.9585 20.5 37.9585Z" fill="#4EAFBB"/>
</svg>
