<svg width="16" height="12" viewBox="0 0 16 12" fill="none" xmlns="http://www.w3.org/2000/svg">
<path d="M15.88 2.77462L6.24683 11.9125C6.16071 11.9708 6.08074 12 6.00692 12C5.9331 12 5.85313 11.9708 5.76701 11.9125L0.119954 6.5558C-0.0399846 6.40408 -0.0399846 6.25237 0.119954 6.10066L2.44521 3.89497C2.60515 3.74325 2.76509 3.74325 2.92503 3.89497L6.00692 6.83589L13.075 0.113786C13.2349 -0.0379285 13.3948 -0.0379285 13.5548 0.113786L15.88 2.31947C16.04 2.47119 16.04 2.6229 15.88 2.77462Z" fill="#5DBA60"/>
<path d="M15.88 2.77462L6.24683 11.9125C6.16071 11.9708 6.08074 12 6.00692 12C5.9331 12 5.85313 11.9708 5.76701 11.9125L0.119954 6.5558C-0.0399846 6.40408 -0.0399846 6.25237 0.119954 6.10066L2.44521 3.89497C2.60515 3.74325 2.76509 3.74325 2.92503 3.89497L6.00692 6.83589L13.075 0.113786C13.2349 -0.0379285 13.3948 -0.0379285 13.5548 0.113786L15.88 2.31947C16.04 2.47119 16.04 2.6229 15.88 2.77462Z" fill="#5DB960"/>
</svg>
