<svg width="12" height="12" viewBox="0 0 12 12" fill="none" xmlns="http://www.w3.org/2000/svg">
<path d="M11.9208 9.49868C11.9736 9.57256 12 9.64116 12 9.70449C12 9.76781 11.9736 9.83641 11.9208 9.91029L9.91029 11.9208C9.83641 11.9736 9.76781 12 9.70448 12C9.64116 12 9.57256 11.9736 9.49868 11.9208L6 8.42216L2.50132 11.9208C2.42744 11.9736 2.35884 12 2.29551 12C2.23219 12 2.16359 11.9736 2.08971 11.9208L0.0791557 9.91029C0.0263852 9.83641 0 9.76781 0 9.70449C0 9.64116 0.0263852 9.57256 0.0791557 9.49868L3.57784 6L0.0791557 2.50132C0.0263852 2.42744 0 2.35884 0 2.29551C0 2.23219 0.0263852 2.16359 0.0791557 2.08971L2.08971 0.0791554C2.16359 0.0263851 2.23219 0 2.29551 0C2.35884 0 2.42744 0.0263851 2.50132 0.0791554L6 3.57784L9.49868 0.0791554C9.57256 0.0263851 9.64116 0 9.70448 0C9.76781 0 9.83641 0.0263851 9.91029 0.0791554L11.9208 2.08971C11.9736 2.16359 12 2.23219 12 2.29551C12 2.35884 11.9736 2.42744 11.9208 2.50132L8.42216 6L11.9208 9.49868Z" fill="#E65F5F"/>
</svg>
