<svg width="64" height="64" viewBox="0 0 64 64" fill="none" xmlns="http://www.w3.org/2000/svg">
<path fill-rule="evenodd" clip-rule="evenodd" d="M30.5 5.875C30.5 5.32272 30.0523 4.875 29.5 4.875C28.9477 4.875 28.5 5.32272 28.5 5.875V14.3751H23.4584C20.9555 14.3751 18.5516 15.352 16.7765 17.0964L16.7765 17.0964C15.0009 18.8415 14 21.212 14 23.6876C14 26.1631 15.0009 28.5336 16.7765 30.2786L16.7765 30.2786C18.5516 32.023 20.9554 33.0001 23.4584 33.0001H28.5V47.6251H15C14.4477 47.6251 14 48.0728 14 48.6251C14 49.1773 14.4477 49.6251 15 49.6251H28.5V58.125C28.5 58.6773 28.9477 59.125 29.5 59.125C30.0523 59.125 30.5 58.6773 30.5 58.125V49.6251H35.5417C38.0447 49.6251 40.4485 48.648 42.2236 46.9036L42.2236 46.9036C43.9992 45.1585 45 42.788 45 40.3126C45 37.837 43.9993 35.4665 42.2236 33.7214L42.2236 33.7214C40.4485 31.977 38.0446 31.0001 35.5417 31.0001H30.5V16.3751H41.5834C42.1357 16.3751 42.5834 15.9273 42.5834 15.3751C42.5834 14.8228 42.1357 14.3751 41.5834 14.3751H30.5V5.875ZM28.5 16.3751H23.4584C21.4747 16.3751 19.5758 17.1496 18.1783 18.5229C16.7815 19.8957 16 21.7538 16 23.6876C16 25.6213 16.7815 27.4794 18.1783 28.8521C19.5758 30.2255 21.4748 31.0001 23.4584 31.0001H28.5V16.3751ZM30.5 33.0001V47.6251H35.5417C37.5253 47.6251 39.4243 46.8505 40.8218 45.4771C42.2186 44.1044 43 42.2463 43 40.3126C43 38.3787 42.2186 36.5206 40.8218 35.1479C39.4243 33.7746 37.5254 33.0001 35.5417 33.0001H30.5Z" fill="#4EAFBB"/>
</svg>
