<svg width="24" height="25" viewBox="0 0 24 25" fill="none" xmlns="http://www.w3.org/2000/svg">
<path d="M5.22343 18.5C4.887 18.5 4.59898 18.3882 4.35938 18.1647C4.11979 17.9411 4 17.6724 4 17.3584V9.69497H5.22343V17.3584H17.7464V18.5H5.22343ZM7.48139 16.3972C7.14223 16.3972 6.85281 16.2854 6.61314 16.0618C6.37348 15.8381 6.25365 15.5681 6.25365 15.2516V8.64557C6.25365 8.33054 6.37348 8.06085 6.61314 7.8365C6.85281 7.61217 7.14223 7.5 7.48139 7.5H18.7766C19.113 7.5 19.401 7.61217 19.6406 7.8365C19.8802 8.06085 20 8.33054 20 8.64557V15.2516C20 15.5681 19.8802 15.8381 19.6406 16.0618C19.401 16.2854 19.113 16.3972 18.7766 16.3972H7.48139ZM9.22559 15.2997C9.22559 14.8305 9.052 14.434 8.70483 14.1101C8.35765 13.7861 7.93266 13.6241 7.42985 13.6241V15.2997H9.22559ZM17.0281 15.2997H18.8238V13.6241C18.321 13.6241 17.896 13.7861 17.5488 14.1101C17.2016 14.434 17.0281 14.8305 17.0281 15.2997ZM13.1247 13.9593C13.7232 13.9593 14.232 13.7638 14.651 13.3728C15.07 12.9818 15.2796 12.5071 15.2796 11.9486C15.2796 11.3901 15.07 10.9153 14.651 10.5244C14.232 10.1334 13.7232 9.93793 13.1247 9.93793C12.5261 9.93793 12.0173 10.1334 11.5983 10.5244C11.1793 10.9153 10.9698 11.3901 10.9698 11.9486C10.9698 12.5071 11.1793 12.9818 11.5983 13.3728C12.0173 13.7638 12.5261 13.9593 13.1247 13.9593ZM7.42985 10.273C7.93266 10.273 8.35765 10.1104 8.70483 9.78512C9.052 9.45985 9.22559 9.06397 9.22559 8.59749H7.42985V10.273ZM18.8238 10.273V8.59749H17.0281C17.0281 9.06397 17.2016 9.45985 17.5488 9.78512C17.896 10.1104 18.321 10.273 18.8238 10.273Z" fill="#FFAA5B"/>
</svg>
