<svg width="64" height="64" viewBox="0 0 64 64" fill="none" xmlns="http://www.w3.org/2000/svg">
<path d="M21.7467 39.0651C19.5592 39.0628 17.462 38.1928 15.9152 36.646C14.3684 35.0992 13.4984 33.002 13.4961 30.8145C13.4988 28.6272 14.3689 26.5303 15.9157 24.9838C17.4624 23.4373 19.5595 22.5675 21.7467 22.5651C22.3967 22.5651 22.9247 23.0931 22.9247 23.7443V29.6366H28.8182C29.4681 29.6366 29.9961 30.1646 29.9961 30.8158C29.9934 33.003 29.1233 35.0999 27.5765 36.6464C26.0298 38.193 23.9327 39.0628 21.7455 39.0651H21.7467ZM27.5208 31.9924H21.7467C21.592 31.9928 21.4387 31.9626 21.2957 31.9036C21.1526 31.8446 21.0226 31.758 20.9131 31.6487C20.8035 31.5394 20.7166 31.4096 20.6573 31.2666C20.598 31.1237 20.5675 30.9705 20.5675 30.8158V25.0404C19.2374 25.314 18.0422 26.0378 17.1834 27.0898C16.3247 28.1418 15.8549 29.4577 15.8532 30.8158C15.8552 32.3781 16.4768 33.8758 17.5817 34.9804C18.6865 36.085 20.1844 36.7063 21.7467 36.708C23.1045 36.706 24.4201 36.2361 25.4719 35.3774C26.5236 34.5187 27.2473 33.3237 27.5208 31.9937V31.9924Z" fill="#4EAFBB"/>
<path d="M26.4533 27.2794H33.5248C34.176 27.2794 34.704 26.7514 34.704 26.1002C34.7013 23.9129 33.8311 21.816 32.2844 20.2695C30.7376 18.723 28.6406 17.8532 26.4533 17.8508C26.141 17.8512 25.8416 17.9754 25.6208 18.1962C25.3999 18.417 25.2757 18.7165 25.2754 19.0288V26.1002C25.2754 26.7514 25.8021 27.2794 26.4533 27.2794Z" fill="#4EAFBB"/>
<path d="M38.2467 24.9223H48.3818C48.6877 24.9123 48.9777 24.7837 49.1906 24.5638C49.4035 24.3439 49.5225 24.0498 49.5225 23.7437C49.5225 23.4376 49.4035 23.1435 49.1906 22.9236C48.9777 22.7037 48.6877 22.5751 48.3818 22.5651H38.2454C37.9395 22.5751 37.6495 22.7037 37.4366 22.9236C37.2237 23.1435 37.1047 23.4376 37.1047 23.7437C37.1047 24.0498 37.2237 24.3439 37.4366 24.5638C37.6495 24.7837 37.9395 24.9123 38.2454 24.9223H38.2467Z" fill="#4EAFBB"/>
<path d="M38.2467 34.3509H48.3818C48.6877 34.3409 48.9777 34.2123 49.1906 33.9924C49.4035 33.7724 49.5225 33.4784 49.5225 33.1723C49.5225 32.8662 49.4035 32.5721 49.1906 32.3522C48.9777 32.1323 48.6877 32.0037 48.3818 31.9937H38.2454C37.9395 32.0037 37.6495 32.1323 37.4366 32.3522C37.2237 32.5721 37.1047 32.8662 37.1047 33.1723C37.1047 33.4784 37.2237 33.7724 37.4366 33.9924C37.6495 34.2123 37.9395 34.3409 38.2454 34.3509H38.2467Z" fill="#4EAFBB"/>
<path d="M38.2467 39.0651H48.3818C48.6877 39.0551 48.9777 38.9265 49.1906 38.7066C49.4035 38.4867 49.5225 38.1926 49.5225 37.8865C49.5225 37.5804 49.4035 37.2864 49.1906 37.0664C48.9777 36.8465 48.6877 36.7179 48.3818 36.7079H38.2454C37.9395 36.7179 37.6495 36.8465 37.4366 37.0664C37.2237 37.2864 37.1047 37.5804 37.1047 37.8865C37.1047 38.1926 37.2237 38.4867 37.4366 38.7066C37.6495 38.9265 37.9395 39.0551 38.2454 39.0651H38.2467Z" fill="#4EAFBB"/>
<path d="M38.2467 29.6366H48.3818C48.6877 29.6266 48.9777 29.498 49.1906 29.2781C49.4035 29.0582 49.5225 28.7641 49.5225 28.458C49.5225 28.1519 49.4035 27.8578 49.1906 27.6379C48.9777 27.418 48.6877 27.2894 48.3818 27.2794H38.2454C37.9395 27.2894 37.6495 27.418 37.4366 27.6379C37.2237 27.8578 37.1047 28.1519 37.1047 28.458C37.1047 28.7641 37.2237 29.0582 37.4366 29.2781C37.6495 29.498 37.9395 29.6266 38.2454 29.6366H38.2467Z" fill="#4EAFBB"/>
<path d="M60.1649 43.7857C60.8149 43.7857 61.3429 44.3137 61.3429 44.9649C61.3402 47.1522 60.47 49.2491 58.9233 50.7956C57.3765 52.3421 55.2795 53.2119 53.0922 53.2143H9.25189C7.06418 53.2123 4.96663 52.3424 3.41957 50.7956C1.87251 49.2488 1.00233 47.1514 1 44.9636C1 44.3137 1.528 43.7857 2.1792 43.7857H5.71429V16.6779C5.71628 15.1156 6.33788 13.6179 7.44273 12.5133C8.54758 11.4086 10.0455 10.7874 11.6078 10.7857H50.7363C52.2987 10.7877 53.7964 11.4093 54.901 12.5141C56.0056 13.619 56.6269 15.1169 56.6286 16.6792V43.7857H60.1649ZM8.07143 43.7857H24.1C24.7512 43.7857 25.2792 44.3137 25.2792 44.9649C25.2792 45.6136 25.8072 46.1428 26.4571 46.1428H35.8857C36.5357 46.1428 37.0649 45.6148 37.0649 44.9636C37.0649 44.3137 37.5929 43.7857 38.2429 43.7857H54.2714V16.6779C54.2701 15.7406 53.8971 14.842 53.2341 14.1793C52.5712 13.5166 51.6725 13.1438 50.7351 13.1428H11.609C10.6714 13.1438 9.77254 13.5167 9.10956 14.1797C8.44658 14.8427 8.07368 15.7416 8.07269 16.6792L8.07143 43.7857ZM53.0935 50.8571C54.4513 50.8552 55.7669 50.3853 56.8187 49.5265C57.8704 48.6678 58.594 47.4728 58.8675 46.1428H39.2171C38.9728 46.8316 38.5213 47.4279 37.9246 47.8499C37.3279 48.2719 36.6153 48.499 35.8845 48.5H26.4559C25.7248 48.4993 25.0119 48.2723 24.415 47.8503C23.8181 47.4282 23.3664 46.8318 23.1219 46.1428H3.47657C3.75014 47.473 4.47393 48.6682 5.52595 49.5269C6.57797 50.3857 7.89388 50.8555 9.25189 50.8571H53.0935Z" fill="#4EAFBB"/>
</svg>
