<svg width="24" height="24" viewBox="0 0 24 24" fill="none" xmlns="http://www.w3.org/2000/svg">
<path d="M19.881 21.1374C17.8277 21.1374 15.7882 20.6333 13.7625 19.6252C11.7367 18.617 9.91564 17.306 8.29919 15.6923C6.68272 14.0785 5.3705 12.2576 4.36254 10.2293C3.35457 8.20102 2.85059 6.16225 2.85059 4.11298C2.85059 3.75283 2.97196 3.45138 3.21471 3.20863C3.45746 2.96587 3.75891 2.84448 4.11906 2.84448H7.61906C7.91366 2.84448 8.16802 2.93661 8.38214 3.12086C8.59625 3.30509 8.73628 3.56043 8.80221 3.88688L9.47721 6.94123C9.52251 7.22638 9.51778 7.48098 9.46301 7.70503C9.40825 7.92908 9.2974 8.11923 9.13049 8.27548L6.60656 10.7646C7.51598 12.2588 8.52707 13.5581 9.63984 14.6623C10.7526 15.7666 12.0102 16.7027 13.4125 17.4706L15.8174 15.0027C16.016 14.7914 16.2385 14.6443 16.4851 14.5613C16.7317 14.4784 16.9872 14.4679 17.2517 14.5298L20.1011 15.1679C20.4201 15.244 20.6746 15.3965 20.8645 15.6253C21.0545 15.854 21.1495 16.1316 21.1495 16.4581V19.863C21.1495 20.2271 21.0281 20.5306 20.7854 20.7733C20.5426 21.0161 20.2412 21.1374 19.881 21.1374ZM5.75494 9.22221L7.77396 7.21406L7.20494 4.54776H4.56579C4.55782 5.17796 4.65076 5.87045 4.84461 6.62523C5.03846 7.38 5.3419 8.24566 5.75494 9.22221ZM14.9919 18.3092C15.6553 18.6219 16.378 18.8762 17.1601 19.0722C17.9422 19.2682 18.7022 19.3849 19.4403 19.4222V16.7711L16.9549 16.2521L14.9919 18.3092Z" fill="#F4F6F7"/>
</svg>
