<svg width="24" height="25" viewBox="0 0 24 25" fill="none" xmlns="http://www.w3.org/2000/svg">
<g clip-path="url(#clip0_368_1656)">
<path d="M12 5L6 7.25V11.8175C6 15.605 8.5575 19.1375 12 20C15.4425 19.1375 18 15.605 18 11.8175V7.25L12 5ZM16.5 11.8175C16.5 14.8175 14.5875 17.5925 12 18.44C9.4125 17.5925 7.5 14.825 7.5 11.8175V8.2325L12 6.6425L16.5 8.2325V11.8175ZM9.615 11.4425L8.55 12.5L11.205 15.155L15.45 10.91L14.3925 9.8525L11.2125 13.0325L9.615 11.4425Z" fill="#E65F5F"/>
</g>
<defs>
<clipPath id="clip0_368_1656">
<rect width="24" height="24" fill="white" transform="translate(0 0.5)"/>
</clipPath>
</defs>
</svg>
