<svg width="64" height="64" viewBox="0 0 64 64" fill="none" xmlns="http://www.w3.org/2000/svg">
<path fill-rule="evenodd" clip-rule="evenodd" d="M32.25 8C32.8023 8 33.25 8.44772 33.25 9V13.2762C43.0109 13.7873 50.8127 21.7381 51.3083 31.625L55.5 31.625C56.0523 31.6249 56.5 32.0727 56.5 32.6249C56.5 33.1772 56.0523 33.6249 55.5 33.625L51.3083 33.625C50.8128 43.5118 43.011 51.4628 33.25 51.9739V56.2501C33.25 56.8023 32.8023 57.2501 32.25 57.2501C31.6977 57.2501 31.25 56.8023 31.25 56.2501V51.9739C21.4891 51.4628 13.6873 43.5119 13.1917 33.625L9 33.625C8.44772 33.6251 8 33.1773 8 32.6251C8 32.0728 8.44771 31.6251 9 31.625L13.1917 31.625C13.6873 21.7381 21.4891 13.7873 31.25 13.2762V9C31.25 8.44772 31.6977 8 32.25 8ZM31.25 15.2794C22.6182 15.7866 15.6853 22.8187 15.1945 31.625L31.25 31.625V15.2794ZM31.25 33.625L15.1945 33.625C15.6853 42.4313 22.6182 49.4635 31.25 49.9707V33.625ZM33.25 49.9707V33.625L49.3055 33.625C48.8147 42.4313 41.8819 49.4635 33.25 49.9707ZM49.3055 31.625L33.25 31.625V15.2794C41.8818 15.7866 48.8146 22.8186 49.3055 31.625Z" fill="#4EAFBB"/>
</svg>
