<svg width="54" height="26" viewBox="0 0 54 26" fill="none" xmlns="http://www.w3.org/2000/svg">
<g clip-path="url(#clip0_90_1337)">
<mask id="mask0_90_1337" style="mask-type:luminance" maskUnits="userSpaceOnUse" x="0" y="0" width="54" height="26">
<path d="M53.526 0.329102H0V25.6711H53.526V0.329102Z" fill="white"/>
</mask>
<g mask="url(#mask0_90_1337)">
<path d="M50.4071 0.329154H3.11805C2.70792 0.326766 2.3014 0.405785 1.92203 0.561633C1.54265 0.717481 1.19798 0.947061 0.907969 1.23707C0.617959 1.52708 0.38838 1.87176 0.232531 2.25113C0.0766831 2.6305 -0.00233582 3.03702 5.25687e-05 3.44715V22.5522C-0.00233582 22.9623 0.0766831 23.3688 0.232531 23.7482C0.38838 24.1276 0.617959 24.4722 0.907969 24.7622C1.19798 25.0522 1.54265 25.2818 1.92203 25.4377C2.3014 25.5935 2.70792 25.6725 3.11805 25.6702H50.4071C50.8172 25.6725 51.2237 25.5935 51.6031 25.4377C51.9825 25.2818 52.3271 25.0522 52.6171 24.7622C52.9071 24.4722 53.1367 24.1276 53.2926 23.7482C53.4484 23.3688 53.5274 22.9623 53.5251 22.5522V3.44715C53.5274 3.03702 53.4484 2.6305 53.2926 2.25113C53.1367 1.87176 52.9071 1.52708 52.6171 1.23707C52.3271 0.947061 51.9825 0.717481 51.6031 0.561633C51.2237 0.405785 50.8172 0.326766 50.4071 0.329154Z" fill="white"/>
</g>
<mask id="mask1_90_1337" style="mask-type:luminance" maskUnits="userSpaceOnUse" x="0" y="0" width="54" height="26">
<path d="M51.21 0.64502H2.31604C1.21147 0.64502 0.31604 1.54045 0.31604 2.64502V23.355C0.31604 24.4596 1.21147 25.355 2.31604 25.355H51.21C52.3146 25.355 53.21 24.4596 53.21 23.355V2.64502C53.21 1.54045 52.3146 0.64502 51.21 0.64502Z" fill="white"/>
</mask>
<g mask="url(#mask1_90_1337)">
<path d="M53.21 0.64502H0.31604V25.355H53.21V0.64502Z" fill="url(#paint0_linear_90_1337)"/>
</g>
<mask id="mask2_90_1337" style="mask-type:luminance" maskUnits="userSpaceOnUse" x="0" y="0" width="54" height="26">
<path d="M53.526 0.329102H0V25.6711H53.526V0.329102Z" fill="white"/>
</mask>
<g mask="url(#mask2_90_1337)">
<path d="M17.627 3.41309C18.1808 3.41309 18.7222 3.5773 19.1826 3.88497C19.6431 4.19264 20.002 4.62994 20.2139 5.14157C20.4258 5.65321 20.4813 6.21619 20.3732 6.75934C20.2652 7.30249 19.9985 7.8014 19.6069 8.19298C19.2153 8.58457 18.7164 8.85125 18.1733 8.95928C17.6301 9.06732 17.0671 9.01187 16.5555 8.79995C16.0439 8.58802 15.6066 8.22914 15.2989 7.76868C14.9912 7.30822 14.827 6.76687 14.827 6.21309C14.827 5.47048 15.122 4.75829 15.6471 4.23319C16.1722 3.70808 16.8844 3.41309 17.627 3.41309Z" fill="url(#paint1_linear_90_1337)"/>
<path d="M25.757 4.32104H22.639V22.084H25.757V4.32104Z" fill="white"/>
<path d="M31.679 10.4402H28.521V22.0452H31.679V10.4402Z" fill="white"/>
<path d="M14.508 10.321C13.5297 10.3181 12.5665 10.5627 11.708 11.032V4.32202H8.58704V16.242C8.58704 17.4131 8.9343 18.5578 9.58491 19.5316C10.2355 20.5053 11.1602 21.2642 12.2422 21.7123C13.3241 22.1605 14.5146 22.2777 15.6632 22.0493C16.8117 21.8208 17.8667 21.2569 18.6948 20.4288C19.5229 19.6007 20.0868 18.5457 20.3153 17.3972C20.5437 16.2486 20.4265 15.0581 19.9783 13.9762C19.5302 12.8942 18.7713 11.9695 17.7976 11.3189C16.8239 10.6683 15.6791 10.321 14.508 10.321ZM14.508 19.084C13.9459 19.084 13.3965 18.9173 12.9291 18.6051C12.4617 18.2928 12.0975 17.8489 11.8824 17.3296C11.6673 16.8103 11.611 16.2389 11.7206 15.6876C11.8303 15.1363 12.101 14.6299 12.4984 14.2324C12.8959 13.835 13.4023 13.5643 13.9536 13.4546C14.5049 13.345 15.0763 13.4013 15.5956 13.6164C16.1149 13.8315 16.5588 14.1957 16.8711 14.6631C17.1834 15.1305 17.35 15.6799 17.35 16.242C17.3516 16.6157 17.2792 16.986 17.1369 17.3315C16.9947 17.677 16.7854 17.9909 16.5212 18.2552C16.257 18.5194 15.943 18.7287 15.5975 18.8709C15.252 19.0132 14.8817 19.0856 14.508 19.084Z" fill="white"/>
</g>
<mask id="mask3_90_1337" style="mask-type:luminance" maskUnits="userSpaceOnUse" x="0" y="0" width="54" height="26">
<path d="M53.526 0.329102H0V25.6711H53.526V0.329102Z" fill="white"/>
</mask>
<g mask="url(#mask3_90_1337)">
<path d="M25.757 4.32104H22.639V22.084H25.757V4.32104Z" fill="white"/>
<path d="M31.679 10.4402H28.521V22.0452H31.679V10.4402Z" fill="white"/>
<path d="M14.508 10.321C13.5297 10.3181 12.5665 10.5627 11.708 11.032V4.32202H8.58704V16.242C8.58704 17.4131 8.9343 18.5578 9.58491 19.5316C10.2355 20.5053 11.1602 21.2642 12.2422 21.7123C13.3241 22.1605 14.5146 22.2777 15.6632 22.0493C16.8117 21.8208 17.8667 21.2569 18.6948 20.4288C19.5229 19.6007 20.0868 18.5457 20.3153 17.3972C20.5437 16.2486 20.4265 15.0581 19.9783 13.9762C19.5302 12.8942 18.7713 11.9695 17.7976 11.3189C16.8239 10.6683 15.6791 10.321 14.508 10.321ZM14.508 19.084C13.9459 19.084 13.3965 18.9173 12.9291 18.6051C12.4617 18.2928 12.0975 17.8489 11.8824 17.3296C11.6673 16.8103 11.611 16.2389 11.7206 15.6876C11.8303 15.1363 12.101 14.6299 12.4984 14.2324C12.8959 13.835 13.4023 13.5643 13.9536 13.4546C14.5049 13.345 15.0763 13.4013 15.5956 13.6164C16.1149 13.8315 16.5588 14.1957 16.8711 14.6631C17.1834 15.1305 17.35 15.6799 17.35 16.242C17.3516 16.6157 17.2792 16.986 17.1369 17.3315C16.9947 17.677 16.7854 17.9909 16.5212 18.2552C16.257 18.5194 15.943 18.7287 15.5975 18.8709C15.252 19.0132 14.8817 19.0856 14.508 19.084Z" fill="white"/>
<path d="M41.962 22.0381H45.988L41.133 15.8011L45.515 10.4331H41.84L37.577 15.8411V4.31812H34.462V22.0781H37.58V15.8781L41.962 22.0381Z" fill="white"/>
</g>
</g>
<defs>
<linearGradient id="paint0_linear_90_1337" x1="15.1264" y1="25.355" x2="15.1264" y2="1.65813" gradientUnits="userSpaceOnUse">
<stop stop-color="#5A5A5A"/>
<stop offset="0.146" stop-color="#484848"/>
<stop offset="0.52" stop-color="#212121"/>
<stop offset="0.817" stop-color="#080808"/>
<stop offset="1"/>
</linearGradient>
<linearGradient id="paint1_linear_90_1337" x1="15.527" y1="8.23469" x2="19.8054" y2="4.34269" gradientUnits="userSpaceOnUse">
<stop stop-color="#E52F09"/>
<stop offset="1" stop-color="#E94E94"/>
</linearGradient>
<clipPath id="clip0_90_1337">
<rect width="53.526" height="25.342" fill="white" transform="translate(0 0.329102)"/>
</clipPath>
</defs>
</svg>
