<svg width="57" height="30" viewBox="0 0 57 30" fill="none" xmlns="http://www.w3.org/2000/svg">
<g clip-path="url(#clip0_90_1387)">
<mask id="mask0_90_1387" style="mask-type:luminance" maskUnits="userSpaceOnUse" x="0" y="0" width="57" height="30">
<path d="M56.5391 0.510498H0.966064V29.4895H56.5391V0.510498Z" fill="white"/>
</mask>
<g mask="url(#mask0_90_1387)">
<path d="M0.966064 12.6384V0.511399H5.43006C6.14905 0.498399 6.86679 0.576691 7.56606 0.744399C8.08441 0.867629 8.57362 1.09117 9.00606 1.4024C9.36406 1.66769 9.64445 2.02404 9.81806 2.4344C9.99152 2.86514 10.0775 3.32609 10.0711 3.7904C10.0754 4.05649 10.04 4.32174 9.96606 4.5774C9.88632 4.83437 9.7621 5.07536 9.59906 5.2894C9.41917 5.52267 9.2027 5.72529 8.95806 5.8894C8.66558 6.08531 8.34938 6.24324 8.01706 6.3594C8.69083 6.48742 9.30884 6.81982 9.78706 7.3114C10.182 7.77655 10.3885 8.37264 10.3661 8.9824C10.3701 9.47832 10.2678 9.96935 10.0661 10.4224C9.86408 10.8703 9.56402 11.2671 9.18806 11.5834C8.76645 11.9365 8.27907 12.2026 7.75406 12.3664C7.12664 12.5617 6.47211 12.6559 5.81506 12.6454L0.966064 12.6384ZM3.77906 5.6114H5.24406C5.52549 5.6137 5.80657 5.59128 6.08406 5.5444C6.30995 5.50932 6.52673 5.43015 6.72206 5.3114C6.89715 5.20094 7.03617 5.04176 7.12206 4.8534C7.22073 4.62236 7.2675 4.37248 7.25906 4.1214C7.26502 3.87631 7.22709 3.63213 7.14706 3.4004C7.08083 3.21836 6.96475 3.05862 6.81206 2.9394C6.64323 2.81435 6.44842 2.72891 6.24206 2.6894C5.97214 2.63558 5.69728 2.61044 5.42206 2.6144H3.77906V5.6114ZM3.77906 7.4914V10.5134H5.76006C6.07029 10.5238 6.3797 10.4757 6.67206 10.3714C6.88364 10.2966 7.07475 10.1733 7.23006 10.0114C7.36082 9.86634 7.4551 9.69219 7.50506 9.5034C7.55504 9.31582 7.58025 9.12252 7.58006 8.9284C7.58296 8.72506 7.55359 8.52254 7.49306 8.3284C7.43564 8.15514 7.33189 8.0009 7.19306 7.8824C7.0293 7.74968 6.83905 7.65353 6.63506 7.6004C6.34701 7.52696 6.05025 7.49331 5.75306 7.5004L3.77906 7.4914Z" fill="#0068B4"/>
<path d="M15.2571 10.3905H19.7511V12.6385H12.4441V0.511475H15.2571V10.3905Z" fill="#0068B4"/>
<path d="M26.327 10.4155C26.6738 10.4218 27.0183 10.3582 27.34 10.2285C27.6285 10.109 27.886 9.92531 28.093 9.69147C28.3071 9.44238 28.4671 9.15159 28.563 8.83747C28.6766 8.46662 28.7316 8.0803 28.726 7.69247V0.511475H31.54V7.69347C31.5482 8.39284 31.4251 9.08752 31.177 9.74148C30.9478 10.3439 30.5945 10.8914 30.14 11.3485C29.673 11.8092 29.1142 12.1666 28.5 12.3975C27.0921 12.8956 25.5559 12.8956 24.148 12.3975C23.5343 12.1663 22.976 11.809 22.509 11.3485C22.0551 10.8919 21.7034 10.3442 21.477 9.74148C21.2323 9.08676 21.1109 8.39239 21.119 7.69347V0.511475H23.933V7.68547C23.9272 8.07324 23.9818 8.45955 24.095 8.83047C24.1904 9.14439 24.3486 9.43563 24.56 9.68647C24.7659 9.92248 25.0237 10.1076 25.313 10.2275C25.6354 10.3574 25.9806 10.421 26.328 10.4145" fill="#0068B4"/>
<path d="M41.8731 0.511475V2.67547H36.8961V5.50547H40.7081V7.58547H36.8961V10.4745H41.8731V12.6385H34.0631V0.511475H41.8731Z" fill="#0068B4"/>
<path d="M7.48506 24.6024C7.58506 24.8254 7.68506 25.0624 7.78506 25.3024C7.87906 25.0584 7.97806 24.8204 8.08506 24.5874C8.19206 24.3544 8.29706 24.1324 8.41306 23.9174L11.5261 17.7914C11.5709 17.7018 11.6285 17.6193 11.6971 17.5464C11.7538 17.4898 11.822 17.4462 11.8971 17.4184C11.976 17.3891 12.059 17.3723 12.1431 17.3683C12.2351 17.3623 12.3431 17.3604 12.4631 17.3604H14.6111V29.4904H12.1191V22.5144C12.1191 22.1764 12.1357 21.8097 12.1691 21.4144L8.95606 27.6523C8.86714 27.8342 8.72843 27.9872 8.55606 28.0934C8.38014 28.1947 8.18006 28.2465 7.97706 28.2433H7.59706C7.39435 28.2468 7.19453 28.1949 7.01906 28.0934C6.84641 27.9875 6.70762 27.8345 6.61906 27.6523L3.39006 21.4034C3.41206 21.6034 3.42906 21.7903 3.44006 21.9823C3.45106 22.1743 3.45706 22.3493 3.45706 22.5103V29.4863H0.966064V17.3613H3.11406C3.23606 17.3613 3.33706 17.3614 3.43406 17.3694C3.51781 17.3734 3.60044 17.3902 3.67906 17.4194C3.75405 17.4474 3.82222 17.491 3.87906 17.5473C3.94729 17.6206 4.00486 17.7031 4.05006 17.7924L7.16606 23.9444C7.27473 24.1557 7.37973 24.375 7.48106 24.6024" fill="#0068B4"/>
<path d="M25.086 17.3623V19.5263H20.109V22.3563H23.925V24.4363H20.113V27.3253H25.09V29.4893H17.275V17.3623H25.086Z" fill="#0068B4"/>
<path d="M38.154 23.4204C38.163 24.2513 38.0091 25.0758 37.701 25.8474C37.4112 26.5692 36.9762 27.2237 36.423 27.7704C35.855 28.3234 35.1793 28.7536 34.438 29.0344C33.6154 29.3458 32.7415 29.4998 31.862 29.4884H27.151V17.3624H31.862C32.7419 17.3507 33.6161 17.5061 34.438 17.8204C35.1785 18.1033 35.8538 18.5337 36.423 19.0854C36.9767 19.6298 37.4118 20.2828 37.701 21.0034C38.0084 21.7718 38.1623 22.5929 38.154 23.4204ZM35.275 23.4204C35.2822 22.8706 35.2036 22.323 35.042 21.7974C34.9045 21.3471 34.6766 20.9296 34.372 20.5704C34.0791 20.2342 33.7131 19.9694 33.302 19.7964C32.8452 19.6098 32.3553 19.518 31.862 19.5264H29.981V27.3264H31.862C32.3554 27.3352 32.8455 27.2429 33.302 27.0554C33.713 26.8828 34.079 26.6184 34.372 26.2824C34.6765 25.9229 34.9044 25.505 35.042 25.0544C35.2032 24.5254 35.2808 23.9744 35.272 23.4214L35.275 23.4204Z" fill="#0068B4"/>
<path d="M42.9811 17.3623H40.1511V29.4893H42.9811V17.3623Z" fill="#0068B4"/>
<path d="M56.539 29.4893H54.359C54.1488 29.4993 53.9413 29.4391 53.769 29.3183C53.6188 29.2052 53.5012 29.0545 53.428 28.8813L52.712 26.7673H48.101L47.381 28.8813C47.3116 29.0489 47.1979 29.1944 47.052 29.3023C46.8838 29.4305 46.6764 29.4965 46.465 29.4893H44.265L48.96 17.3623H51.84L56.539 29.4893ZM48.749 24.8523H52.062L50.946 21.5313C50.8633 21.3206 50.7743 21.0726 50.679 20.7873C50.585 20.5013 50.49 20.1923 50.397 19.8593C50.3077 20.1986 50.2173 20.5123 50.126 20.8003C50.034 21.0893 49.947 21.3383 49.864 21.5493L48.749 24.8523Z" fill="#0068B4"/>
</g>
</g>
<defs>
<clipPath id="clip0_90_1387">
<rect width="55.573" height="28.979" fill="white" transform="translate(0.966064 0.510498)"/>
</clipPath>
</defs>
</svg>
