<svg width="50" height="32" viewBox="0 0 50 32" fill="none" xmlns="http://www.w3.org/2000/svg">
<g clip-path="url(#clip0_90_1320)">
<path d="M48 0H2C0.89543 0 0 0.89543 0 2V30C0 31.1046 0.89543 32 2 32H48C49.1046 32 50 31.1046 50 30V2C50 0.89543 49.1046 0 48 0Z" fill="white"/>
<path d="M48 0.5H2C1.17157 0.5 0.5 1.17157 0.5 2V30C0.5 30.8284 1.17157 31.5 2 31.5H48C48.8284 31.5 49.5 30.8284 49.5 30V2C49.5 1.17157 48.8284 0.5 48 0.5Z" stroke="#707070"/>
<mask id="mask0_90_1320" style="mask-type:luminance" maskUnits="userSpaceOnUse" x="6" y="7" width="39" height="17">
<path d="M44.735 7.99902H6V23.394H44.735V7.99902Z" fill="white"/>
</mask>
<g mask="url(#mask0_90_1320)">
<path d="M24.3081 15.5032V20.0032H22.8561V8.86721H26.6311C27.5473 8.86394 28.4302 9.21012 29.1001 9.83521C29.4311 10.1334 29.6934 10.5 29.8688 10.9095C30.0443 11.3191 30.1286 11.7618 30.1161 12.2072C30.1238 12.6519 30.0373 13.0932 29.8622 13.5021C29.6871 13.9109 29.4273 14.278 29.1001 14.5792C28.4349 15.2117 27.5489 15.5591 26.6311 15.5472L24.3081 15.5032ZM24.3081 10.2272V14.1002H26.7311C26.9921 14.107 27.2517 14.0587 27.4929 13.9586C27.7341 13.8585 27.9515 13.7088 28.1311 13.5192C28.3122 13.3495 28.4575 13.1451 28.5582 12.9182C28.659 12.6913 28.7132 12.4466 28.7177 12.1984C28.7222 11.9501 28.6768 11.7036 28.5843 11.4732C28.4918 11.2428 28.354 11.0334 28.1791 10.8572L28.1311 10.8082C27.9555 10.6135 27.7388 10.4603 27.4966 10.3598C27.2545 10.2593 26.9929 10.214 26.7311 10.2272H24.3081Z" fill="#5F6368"/>
<path d="M33.4571 12.1592C34.3775 12.1106 35.2806 12.4231 35.9741 13.0302C36.2862 13.3291 36.5298 13.6921 36.6883 14.0941C36.8467 14.4962 36.9163 14.9278 36.8921 15.3592V20.0062H35.5381V18.9402H35.4921C35.2431 19.3442 34.8938 19.6769 34.4781 19.906C34.0625 20.135 33.5946 20.2526 33.1201 20.2472C32.3462 20.2669 31.5908 20.0095 30.9901 19.5212C30.7215 19.2844 30.5054 18.9942 30.3554 18.6691C30.2054 18.344 30.1249 17.9912 30.1191 17.6332C30.109 17.2727 30.1824 16.9147 30.3335 16.5872C30.4846 16.2597 30.7093 15.9716 30.9901 15.7452C31.6776 15.2498 32.5166 15.01 33.3621 15.0672C34.0878 15.0257 34.8102 15.1937 35.4431 15.5512V15.2122C35.4496 14.972 35.4006 14.7334 35.2998 14.5152C35.199 14.297 35.0492 14.105 34.8621 13.9542C34.623 13.7483 34.3425 13.5962 34.0395 13.5082C33.7365 13.4202 33.4182 13.3985 33.106 13.4444C32.7939 13.4903 32.4952 13.6028 32.2304 13.7743C31.9656 13.9457 31.7407 14.1722 31.5711 14.4382L30.3131 13.6642C30.6731 13.1742 31.1487 12.7807 31.6976 12.519C32.2465 12.2573 32.8517 12.1354 33.4591 12.1642M31.6201 17.6822C31.6187 17.8636 31.6621 18.0425 31.7465 18.203C31.831 18.3635 31.9538 18.5007 32.1041 18.6022C32.4259 18.8436 32.8149 18.9788 33.2171 18.9892C33.819 18.9835 34.3943 18.7398 34.8171 18.3112C35.0429 18.1208 35.2247 17.8838 35.35 17.6164C35.4753 17.349 35.5412 17.0575 35.5431 16.7622C34.9904 16.3799 34.3261 16.1927 33.6551 16.2302C33.1362 16.2113 32.6257 16.3646 32.2031 16.6662C32.0233 16.7671 31.8743 16.9149 31.772 17.0938C31.6696 17.2728 31.6178 17.4761 31.6221 17.6822" fill="#5F6368"/>
<path d="M44.7351 12.406L39.9431 23.394H38.4911L40.2821 19.57L37.1361 12.455H38.6851L40.9601 17.925H41.0111L43.2381 12.455H44.7381L44.7351 12.406Z" fill="#5F6368"/>
<path d="M18.5481 14.536C18.5388 14.0988 18.5055 13.6625 18.4481 13.229H12.3981V15.698H15.8351C15.767 16.0891 15.6204 16.4623 15.404 16.795C15.1876 17.1278 14.9059 17.4132 14.5761 17.634V19.234H16.6571C17.2835 18.6266 17.7753 17.8943 18.1005 17.0846C18.4258 16.275 18.5772 15.406 18.5451 14.534" fill="#4285F4"/>
<path d="M12.4021 20.7802C13.9667 20.8201 15.4885 20.2667 16.6621 19.2312L14.5811 17.6312C13.9344 18.0542 13.1757 18.2733 12.4031 18.2602C11.6008 18.2523 10.8218 17.9901 10.1779 17.5114C9.53409 17.0327 9.05868 16.3622 8.82006 15.5962H6.69006V17.2422C7.22133 18.3025 8.03677 19.1943 9.04538 19.8182C10.054 20.442 11.2161 20.7734 12.4021 20.7752" fill="#34A853"/>
<path d="M8.82005 15.6002C8.52944 14.8029 8.52944 13.9285 8.82005 13.1312V11.4812H6.69005C6.23659 12.3735 6.00024 13.3603 6.00024 14.3612C6.00024 15.3621 6.23659 16.3489 6.69005 17.2412L8.82005 15.6002Z" fill="#FBBC04"/>
<path d="M12.401 10.5181C13.3172 10.5148 14.2002 10.861 14.87 11.4861L16.713 9.64711C15.5581 8.56797 14.0305 7.97742 12.45 7.99911C11.2624 7.99452 10.0972 8.32354 9.08739 8.94868C8.07754 9.57383 7.26352 10.47 6.73804 11.5351L8.86804 13.1811C9.08973 12.4149 9.55388 11.7411 10.1909 11.261C10.8279 10.7809 11.6034 10.5202 12.401 10.5181Z" fill="#EA4335"/>
</g>
</g>
<defs>
<clipPath id="clip0_90_1320">
<rect width="50" height="32" fill="white"/>
</clipPath>
</defs>
</svg>
