<svg width="50" height="32" viewBox="0 0 50 32" fill="none" xmlns="http://www.w3.org/2000/svg">
<g clip-path="url(#clip0_90_1368)">
<path d="M49.4769 25.4656V24.8726H49.322L49.1429 25.2795L48.965 24.8726H48.8099V25.4656H48.9199V25.0186L49.0869 25.4036H49.2009L49.3679 25.0176V25.4656H49.4769ZM48.4969 25.4656V24.9745H48.697V24.8746H48.192V24.9745H48.392V25.4656H48.502H48.4969Z" fill="#F79410"/>
<path d="M31.923 28.0085H18.558V3.9895H31.923V28.0085Z" fill="#FF5F00"/>
<mask id="mask0_90_1368" style="mask-type:luminance" maskUnits="userSpaceOnUse" x="0" y="0" width="50" height="32">
<path d="M49.954 0.724609H0.526001V31.2756H49.954V0.724609Z" fill="white"/>
</mask>
<g mask="url(#mask0_90_1368)">
<path d="M19.4051 16.0006C19.4029 13.6874 19.9271 11.4039 20.9378 9.32319C21.9485 7.24244 23.4194 5.4189 25.239 3.99061C22.9857 2.21949 20.2794 1.1181 17.4297 0.812298C14.5799 0.506499 11.7016 1.00864 9.12373 2.26132C6.54586 3.514 4.37242 5.46668 2.85185 7.89619C1.33127 10.3257 0.524902 13.134 0.524902 16.0001C0.524902 18.8662 1.33127 21.6745 2.85185 24.104C4.37242 26.5335 6.54586 28.4862 9.12373 29.7389C11.7016 30.9916 14.5799 31.4937 17.4297 31.1879C20.2794 30.8821 22.9857 29.7807 25.239 28.0096C23.4195 26.5814 21.9488 24.758 20.938 22.6775C19.9273 20.5969 19.4031 18.3137 19.4051 16.0006Z" fill="#EB001B"/>
<path d="M49.954 16.0006C49.9539 18.8666 49.1474 21.6748 47.6268 24.1042C46.1062 26.5336 43.9328 28.4862 41.355 29.7388C38.7772 30.9914 35.8989 31.4936 33.0493 31.1878C30.1996 30.882 27.4934 29.7806 25.24 28.0096C27.0582 26.58 28.5281 24.7563 29.5388 22.676C30.5495 20.5956 31.0746 18.3129 31.0746 16.0001C31.0746 13.6872 30.5495 11.4045 29.5388 9.32417C28.5281 7.24382 27.0582 5.42011 25.24 3.99057C27.4932 2.21913 30.1995 1.11743 33.0493 0.811427C35.8991 0.505423 38.7776 1.00746 41.3555 2.26015C43.9335 3.51283 46.107 5.46562 47.6276 7.89526C49.1481 10.3249 49.9543 13.1334 49.954 15.9996" fill="#F79E1B"/>
</g>
</g>
<defs>
<clipPath id="clip0_90_1368">
<rect width="49.428" height="30.551" fill="white" transform="translate(0.526001 0.724609)"/>
</clipPath>
</defs>
</svg>
