<svg width="323" height="246" viewBox="0 0 323 246" fill="none" xmlns="http://www.w3.org/2000/svg">
<g clip-path="url(#clip0_6_1091)">
<path d="M30.5859 245.616L30.5708 245.713C30.553 245.619 30.5359 245.521 30.5195 245.426C30.4897 245.271 30.4639 245.116 30.4395 244.96C29.4722 238.871 30.0045 232.639 31.9903 226.802C32.372 225.663 32.8068 224.545 33.2946 223.447C35.1601 219.197 37.8046 215.334 41.0917 212.056C42.159 210.964 43.3767 210.03 44.7081 209.282C44.9035 209.178 45.1001 209.08 45.3009 208.99C46.5322 208.392 47.9184 208.192 49.2686 208.415C49.7591 208.507 50.2345 208.667 50.6812 208.889C50.8379 208.965 50.9887 209.049 51.1367 209.138C52.0391 209.73 52.8097 210.501 53.4002 211.405C53.9906 212.308 54.3881 213.323 54.5679 214.387C54.8244 215.974 54.7657 217.596 54.3953 219.161C54.3635 219.31 54.3293 219.459 54.2928 219.607C54.0302 220.65 53.7002 221.675 53.305 222.675C49.349 232.852 40.8473 241.881 30.5859 245.616Z" fill="#F2F2F2"/>
<path d="M50.6549 208.922C47.568 213.357 44.6521 217.904 41.9069 222.564C39.1652 227.22 36.6027 231.976 34.2195 236.831C32.8863 239.548 31.6114 242.292 30.3948 245.063C30.2601 245.37 30.7145 245.636 30.8509 245.326C33.0237 240.378 35.3815 235.518 37.9245 230.745C40.4659 225.977 43.1858 221.309 46.0842 216.743C47.7059 214.188 49.3815 211.669 51.111 209.185C51.3044 208.907 50.8476 208.645 50.6549 208.922Z" fill="white"/>
<path d="M53.9579 219.188C51.6383 222.202 48.2238 224.18 44.4549 224.694C43.4035 224.837 42.3389 224.859 41.2826 224.757C40.9447 224.725 40.9423 225.252 41.2773 225.283C45.2084 225.614 49.1112 224.381 52.1385 221.852C52.9876 221.142 53.7513 220.336 54.4141 219.45C54.617 219.18 54.1595 218.919 53.9579 219.188Z" fill="white"/>
<path d="M34.1459 235.538C33.6066 234.77 33.1585 233.941 32.8106 233.07C32.016 231.082 31.7339 228.927 31.9904 226.802C32.3721 225.663 32.8068 224.545 33.2946 223.447C33.3242 223.49 33.342 223.54 33.3462 223.593C33.3505 223.645 33.3411 223.697 33.319 223.744C32.9755 224.568 32.7285 225.428 32.5831 226.308C32.061 229.447 32.7858 232.665 34.603 235.277C34.626 235.305 34.6412 235.339 34.6474 235.375C34.6535 235.411 34.6502 235.449 34.6379 235.483C34.6176 235.529 34.5856 235.568 34.5452 235.598C34.5048 235.628 34.4574 235.646 34.4076 235.652C34.3579 235.657 34.3075 235.649 34.2616 235.63C34.2157 235.61 34.1758 235.578 34.1459 235.538Z" fill="white"/>
<path d="M44.7867 208.948C44.1518 211.478 44.3409 214.144 45.3264 216.558C45.3613 216.619 45.4186 216.663 45.4858 216.681C45.553 216.7 45.6248 216.691 45.6855 216.656C45.7448 216.621 45.7881 216.563 45.8064 216.497C45.8246 216.43 45.8164 216.358 45.7835 216.297C44.8607 214.006 44.6895 211.482 45.2945 209.087C45.3102 209.021 45.2995 208.951 45.2647 208.892C45.2298 208.833 45.1735 208.79 45.1076 208.772C45.0417 208.754 44.9714 208.763 44.9115 208.796C44.8517 208.828 44.8069 208.883 44.7867 208.948Z" fill="white"/>
<path d="M30.5212 232.905L30.5532 232.999C30.4933 232.923 30.4329 232.845 30.374 232.768C30.2757 232.644 30.1808 232.519 30.0868 232.393C26.4014 227.45 23.9771 221.683 23.024 215.593C22.8328 214.406 22.6982 213.214 22.6202 212.016C22.2976 207.385 22.8445 202.736 24.2328 198.307C24.6706 196.844 25.3149 195.451 26.1463 194.17C26.2713 193.988 26.3997 193.81 26.5356 193.636C27.3485 192.536 28.4827 191.714 29.7821 191.285C30.2593 191.138 30.7544 191.059 31.2534 191.048C31.4275 191.043 31.5999 191.047 31.7724 191.057C32.8465 191.162 33.8874 191.488 34.8299 192.013C35.7724 192.539 36.5962 193.254 37.2498 194.112C38.2142 195.399 38.9159 196.862 39.3148 198.42C39.3561 198.567 39.395 198.715 39.4315 198.863C39.6833 199.908 39.8672 200.969 39.9818 202.038C41.2068 212.888 37.8731 224.832 30.5212 232.905Z" fill="#F2F2F2"/>
<path d="M31.2452 191.09C30.5722 196.451 30.1027 201.832 29.8368 207.234C29.572 212.631 29.5123 218.032 29.6575 223.438C29.739 226.463 29.8848 229.485 30.095 232.505C30.1182 232.839 30.6446 232.864 30.6211 232.525C30.2466 227.135 30.0766 221.736 30.1109 216.328C30.146 210.925 30.3862 205.528 30.8313 200.138C31.0804 197.123 31.3938 194.114 31.7713 191.111C31.8134 190.775 31.2872 190.755 31.2452 191.09Z" fill="white"/>
<path d="M38.9398 198.647C38.286 202.393 36.1816 205.731 33.0827 207.937C32.2182 208.552 31.2853 209.065 30.3026 209.466C29.9885 209.594 30.2311 210.062 30.5425 209.934C34.1773 208.401 37.0606 205.497 38.5664 201.851C38.9887 200.828 39.2906 199.76 39.4659 198.667C39.5202 198.334 38.9937 198.315 38.9398 198.647Z" fill="white"/>
<path d="M28.9916 222.327C28.1571 221.897 27.3755 221.372 26.6625 220.762C25.0354 219.371 23.7843 217.593 23.0242 215.593C22.8329 214.406 22.6983 213.214 22.6204 212.016C22.6666 212.04 22.7056 212.076 22.7336 212.12C22.7616 212.165 22.7776 212.215 22.78 212.268C22.8584 213.156 23.0394 214.033 23.3195 214.88C24.3153 217.902 26.4524 220.415 29.275 221.884C29.3087 221.898 29.338 221.921 29.3602 221.95C29.3824 221.98 29.3967 222.014 29.4018 222.05C29.4051 222.1 29.3952 222.15 29.3731 222.195C29.3511 222.24 29.3176 222.278 29.2762 222.306C29.2347 222.334 29.1866 222.351 29.1366 222.355C29.0867 222.358 29.0367 222.349 28.9916 222.327Z" fill="white"/>
<path d="M26.061 193.839C26.674 196.374 28.0801 198.647 30.0746 200.327C30.1335 200.364 30.2048 200.377 30.2728 200.362C30.3409 200.347 30.4003 200.306 30.4381 200.247C30.4741 200.188 30.4858 200.117 30.4709 200.049C30.456 199.982 30.4156 199.922 30.3581 199.884C28.4765 198.284 27.1518 196.127 26.5751 193.726C26.5582 193.66 26.5162 193.603 26.458 193.567C26.3999 193.531 26.3301 193.519 26.2634 193.534C26.1967 193.548 26.1383 193.588 26.1005 193.645C26.0628 193.702 26.0486 193.772 26.061 193.839Z" fill="white"/>
<path d="M30.749 245.681L30.8262 245.742C30.735 245.71 30.642 245.677 30.5508 245.644C30.4016 245.593 30.2543 245.539 30.1068 245.482C24.3392 243.302 19.1902 239.749 15.1063 235.13C14.3062 234.234 13.5505 233.301 12.8393 232.334C10.0734 228.606 8.02972 224.394 6.81374 219.915C6.39463 218.446 6.18726 216.926 6.1979 215.399C6.20492 215.178 6.21718 214.959 6.23825 214.739C6.33021 213.374 6.84333 212.071 7.70692 211.01C8.03024 210.629 8.4046 210.296 8.81935 210.018C8.9632 209.92 9.11063 209.831 9.26152 209.746C10.223 209.256 11.2754 208.97 12.3527 208.906C13.4299 208.841 14.509 208.999 15.5222 209.371C17.0277 209.936 18.4074 210.791 19.5824 211.889C19.6964 211.99 19.8087 212.094 19.9193 212.199C20.6947 212.944 21.4208 213.739 22.0933 214.578C28.9698 223.06 32.5949 234.92 30.749 245.681Z" fill="#F2F2F2"/>
<path d="M8.83456 210.057C11.1553 214.937 13.6585 219.724 16.3441 224.419C19.028 229.109 21.8872 233.692 24.9218 238.169C26.6197 240.674 28.3704 243.142 30.174 245.572C30.3735 245.841 30.8306 245.579 30.6285 245.307C27.4095 240.967 24.3578 236.509 21.4736 231.934C18.5929 227.362 15.8883 222.686 13.36 217.905C11.9456 215.23 10.5886 212.525 9.28909 209.792C9.14369 209.486 8.68969 209.753 8.83456 210.057Z" fill="white"/>
<path d="M19.3886 212.282C20.8558 215.79 20.8806 219.736 19.4576 223.263C19.0606 224.247 18.5509 225.182 17.9387 226.048C17.7434 226.326 18.1996 226.589 18.3933 226.314C20.6301 223.065 21.495 219.065 20.8 215.183C20.605 214.094 20.2838 213.031 19.8431 212.016C19.7092 211.706 19.2556 211.974 19.3886 212.282Z" fill="white"/>
<path d="M23.7621 237.591C22.8275 237.679 21.8859 237.657 20.9564 237.527C18.8362 237.231 16.8246 236.407 15.1064 235.13C14.3062 234.234 13.5506 233.301 12.8394 232.334C12.8915 232.329 12.9438 232.339 12.9912 232.361C13.0386 232.383 13.0794 232.417 13.1096 232.46C13.6543 233.167 14.279 233.808 14.9712 234.37C17.438 236.38 20.5925 237.347 23.7621 237.065C23.7983 237.059 23.8353 237.063 23.8697 237.075C23.9041 237.088 23.9347 237.109 23.9585 237.137C23.9882 237.177 24.0067 237.225 24.0124 237.275C24.018 237.324 24.0105 237.375 23.9907 237.421C23.9708 237.467 23.9392 237.506 23.8991 237.536C23.859 237.566 23.8118 237.585 23.7621 237.591Z" fill="white"/>
<path d="M5.9475 215.165C7.82938 216.971 10.2385 218.129 12.8243 218.471C12.9664 218.49 13.0862 218.337 13.0875 218.208C13.0859 218.139 13.0576 218.073 13.0086 218.024C12.9596 217.975 12.8936 217.947 12.8243 217.945C10.377 217.61 8.09927 216.506 6.31972 214.793C6.07574 214.558 5.70304 214.93 5.9475 215.165Z" fill="white"/>
<path d="M66.6785 176.266C67.1926 175.914 67.6231 175.453 67.9398 174.917C68.2565 174.38 68.4516 173.78 68.5115 173.16C68.5713 172.54 68.4944 171.914 68.2862 171.327C68.078 170.739 67.7435 170.205 67.3063 169.761L68.96 132.854L60.5407 133.799L61.0298 169.899C60.3323 170.683 59.9466 171.695 59.9458 172.744C59.945 173.793 60.3291 174.806 61.0254 175.591C61.7216 176.376 62.6817 176.878 63.7236 177.003C64.7655 177.127 65.8169 176.865 66.6785 176.266Z" fill="#FFB8B8"/>
<path d="M82.0374 238.742L86.8293 239.584L91.5652 221.506L85.2867 220.263L82.0374 238.742Z" fill="#FFB8B8"/>
<path d="M95.2881 245.657L80.2283 243.01L81.2512 237.193L90.4925 238.817C91.2566 238.951 91.9867 239.235 92.6413 239.651C93.2958 240.068 93.8619 240.609 94.3072 241.244C94.7525 241.879 95.0683 242.596 95.2366 243.353C95.4049 244.11 95.4224 244.893 95.2881 245.657Z" fill="#132D46"/>
<path d="M68.8851 241.14L73.7504 241.14L76.0648 222.377L68.8843 222.378L68.8851 241.14Z" fill="#FFB8B8"/>
<path d="M83.1335 245.657L67.8428 245.657L67.8425 239.751L77.2255 239.75C78.7923 239.75 80.295 240.372 81.403 241.48C82.511 242.588 83.1335 244.09 83.1335 245.657Z" fill="#132D46"/>
<path d="M89.5816 236.002C89.5057 236.002 89.4298 235.998 89.3544 235.989L83.6279 235.518C83.3672 235.487 83.1154 235.404 82.8879 235.273C82.6604 235.142 82.4619 234.966 82.3044 234.756C82.1469 234.546 82.0338 234.306 81.9719 234.051C81.91 233.796 81.9006 233.531 81.9443 233.272L87.2321 203.641L83.6591 184.804C83.63 184.651 83.5465 184.514 83.424 184.418C83.3016 184.321 83.1484 184.272 82.9928 184.28C82.8372 184.288 82.6896 184.352 82.5773 184.46C82.465 184.568 82.3955 184.713 82.3817 184.868L77.9149 235.11C77.8658 235.614 77.6228 236.08 77.2371 236.408C76.8514 236.737 76.3532 236.903 75.8475 236.871L70.4525 236.67C69.9797 236.636 69.5355 236.431 69.2038 236.093C68.8721 235.754 68.6759 235.306 68.6522 234.832L68.2896 174.615L96.2597 171.12L98.2136 201.29L98.2058 201.322L91.4631 234.523C91.3604 234.944 91.1192 235.319 90.778 235.587C90.4369 235.856 90.0156 236.002 89.5816 236.002Z" fill="#132D46"/>
<path d="M77.5113 108.937C82.8944 108.937 87.2582 104.574 87.2582 99.1923C87.2582 93.8102 82.8944 89.4471 77.5113 89.4471C72.1282 89.4471 67.7644 93.8102 67.7644 99.1923C67.7644 104.574 72.1282 108.937 77.5113 108.937Z" fill="#FFB8B8"/>
<path d="M86.6953 179.016C85.1709 179.025 83.6757 178.598 82.3868 177.784C77.6653 174.834 72.3027 176.006 69.5263 176.968C69.2507 177.064 68.957 177.097 68.6669 177.064C68.3769 177.031 68.0981 176.933 67.8514 176.777C67.6074 176.624 67.4013 176.418 67.2484 176.173C67.0956 175.929 66.9999 175.654 66.9686 175.368L61.9197 130.284C61.0737 122.73 65.6246 115.629 72.7408 113.397C73.0081 113.314 73.28 113.234 73.5564 113.159C75.7709 112.559 78.09 112.451 80.3507 112.843C82.6113 113.235 84.7585 114.118 86.6412 115.43C88.5588 116.755 90.1626 118.485 91.3396 120.497C92.5166 122.509 93.2383 124.755 93.4537 127.076L97.7041 172.462C97.7331 172.756 97.6934 173.052 97.5882 173.328C97.4831 173.604 97.3153 173.852 97.0981 174.052C95.6081 175.43 91.2836 179.016 86.6953 179.016Z" fill="#24ACB1"/>
<path d="M71.3209 139.952L59.9301 138.7C59.606 138.664 59.2934 138.559 59.0136 138.392C58.7338 138.224 58.4933 137.999 58.3085 137.73C58.1238 137.462 57.9991 137.156 57.943 136.835C57.8869 136.514 57.9007 136.185 57.9834 135.869L60.8828 124.82C61.0745 123.164 61.9156 121.65 63.2215 120.613C64.5275 119.575 66.1917 119.097 67.8494 119.284C69.5071 119.471 71.0229 120.308 72.0644 121.611C73.106 122.914 73.5884 124.576 73.4058 126.234L73.8362 137.612C73.8484 137.938 73.7903 138.262 73.6657 138.564C73.5412 138.865 73.3532 139.136 73.1145 139.358C72.8758 139.58 72.592 139.748 72.2825 139.85C71.973 139.953 71.645 139.988 71.3209 139.952Z" fill="#24ACB1"/>
<path d="M97.6586 174.686C98.1264 174.274 98.4983 173.765 98.748 173.194C98.9977 172.623 99.1191 172.005 99.1038 171.382C99.0884 170.759 98.9366 170.147 98.6591 169.589C98.3816 169.031 97.9851 168.54 97.4976 168.152L94.6907 131.315L86.4409 133.172L91.2836 169.046C90.6856 169.908 90.4248 170.959 90.5504 172.001C90.676 173.042 91.1795 174.002 91.9653 174.697C92.7511 175.392 93.7646 175.775 94.814 175.773C95.8633 175.771 96.8754 175.384 97.6586 174.686Z" fill="#FFB8B8"/>
<path d="M83.278 137.636C83.0392 137.414 82.8511 137.143 82.7265 136.842C82.602 136.541 82.5439 136.216 82.5563 135.89L82.9867 124.513C82.8041 122.855 83.2865 121.192 84.3281 119.889C85.3697 118.587 86.8855 117.75 88.5432 117.563C90.2008 117.376 91.8651 117.853 93.171 118.891C94.4769 119.929 95.318 121.442 95.5097 123.099L98.4091 134.148C98.4918 134.463 98.5056 134.793 98.4495 135.114C98.3934 135.435 98.2687 135.74 98.084 136.009C97.8993 136.277 97.6588 136.503 97.3789 136.67C97.0991 136.838 96.7865 136.943 96.4624 136.978L85.0716 138.231C84.7475 138.266 84.4194 138.232 84.1099 138.129C83.8003 138.027 83.5166 137.858 83.278 137.636Z" fill="#24ACB1"/>
<path d="M76.9316 109.305C76.7583 109.304 76.5856 109.284 76.417 109.245L76.3675 109.233C67.7978 107.922 65.904 102.959 65.4883 100.886C65.058 98.7405 65.5479 96.6692 66.6551 95.8648C66.0515 93.9592 66.1483 92.2696 66.9437 90.8408C68.3308 88.349 71.3411 87.5064 71.7449 87.4033C74.149 85.6301 77.0254 86.8138 77.5488 87.0538C82.1992 85.3336 83.9767 86.7655 84.2982 87.0852C86.377 87.4585 87.644 88.2614 88.0647 89.4721C88.8548 91.746 86.3561 94.5745 86.2494 94.6939L86.194 94.7557L82.4715 94.9329C82.1183 94.9498 81.7725 95.0407 81.4567 95.1997C81.1409 95.3588 80.862 95.5824 80.6382 95.8562C80.4144 96.1299 80.2507 96.4476 80.1576 96.7887C80.0645 97.1298 80.0442 97.4866 80.0979 97.8361C80.1986 98.287 80.3259 98.7315 80.479 99.1675C81.1148 101.154 81.5911 102.851 80.9767 103.496C80.8376 103.621 80.666 103.704 80.4818 103.736C80.2975 103.768 80.108 103.747 79.9349 103.676C79.3529 103.521 78.9577 103.554 78.7609 103.774C78.4552 104.115 78.5485 104.978 79.0236 106.204C79.1727 106.592 79.2128 107.013 79.1396 107.422C79.0665 107.831 78.8828 108.212 78.6086 108.524C78.402 108.768 78.1452 108.963 77.8557 109.098C77.5662 109.233 77.2509 109.303 76.9316 109.305Z" fill="#132D46"/>
<path d="M192.041 140.458H144.023C142.234 140.456 140.52 139.745 139.255 138.48C137.99 137.216 137.279 135.501 137.277 133.713V61.5668C137.279 59.7785 137.99 58.0641 139.255 56.7995C140.52 55.535 142.234 54.8237 144.023 54.8217H192.041C193.83 54.8237 195.545 55.535 196.809 56.7995C198.074 58.0641 198.786 59.7785 198.788 61.5668V133.713C198.786 135.501 198.074 137.216 196.809 138.48C195.545 139.745 193.83 140.456 192.041 140.458ZM144.023 55.6152C142.445 55.617 140.932 56.2446 139.816 57.3604C138.7 58.4762 138.072 59.9889 138.07 61.5668V133.713C138.072 135.291 138.7 136.804 139.816 137.919C140.932 139.035 142.445 139.663 144.023 139.665H192.041C193.619 139.663 195.132 139.035 196.248 137.919C197.364 136.804 197.992 135.291 197.994 133.713V61.5668C197.992 59.9889 197.364 58.4762 196.248 57.3604C195.132 56.2446 193.619 55.617 192.041 55.6152H144.023Z" fill="#424D57"/>
<path d="M184.7 89.5061H151.365C150.47 89.5051 149.613 89.1494 148.981 88.5172C148.348 87.8849 147.992 87.0277 147.991 86.1335V70.2625C147.992 69.3684 148.348 68.5111 148.981 67.8789C149.613 67.2466 150.47 66.891 151.365 66.89H184.7C185.594 66.891 186.451 67.2466 187.084 67.8789C187.716 68.5112 188.072 69.3684 188.073 70.2625V86.1335C188.072 87.0277 187.716 87.8849 187.084 88.5171C186.451 89.1494 185.594 89.5051 184.7 89.5061Z" fill="#24ACB1"/>
<path d="M182.318 104.385H153.746C152.904 104.385 152.096 104.051 151.501 103.455C150.905 102.86 150.571 102.053 150.571 101.211C150.571 100.369 150.905 99.5617 151.501 98.9664C152.096 98.3711 152.904 98.0367 153.746 98.0367H182.318C183.16 98.0367 183.968 98.3711 184.563 98.9664C185.159 99.5617 185.493 100.369 185.493 101.211C185.493 102.053 185.159 102.86 184.563 103.455C183.968 104.051 183.16 104.385 182.318 104.385Z" fill="#CCCCCC"/>
<path d="M182.318 116.288H153.746C152.904 116.288 152.096 115.954 151.501 115.359C150.905 114.763 150.571 113.956 150.571 113.114C150.571 112.272 150.905 111.465 151.501 110.87C152.096 110.274 152.904 109.94 153.746 109.94H182.318C183.16 109.94 183.968 110.274 184.563 110.87C185.159 111.465 185.493 112.272 185.493 113.114C185.493 113.956 185.159 114.763 184.563 115.359C183.968 115.954 183.16 116.288 182.318 116.288Z" fill="#CCCCCC"/>
<path d="M182.318 128.192H153.746C152.904 128.192 152.096 127.857 151.501 127.262C150.905 126.667 150.571 125.859 150.571 125.017C150.571 124.175 150.905 123.368 151.501 122.773C152.096 122.178 152.904 121.843 153.746 121.843H182.318C183.16 121.843 183.968 122.178 184.563 122.773C185.159 123.368 185.493 124.175 185.493 125.017C185.493 125.859 185.159 126.667 184.563 127.262C183.968 127.857 183.16 128.192 182.318 128.192Z" fill="#CCCCCC"/>
<path d="M309.111 180.929H261.092C259.304 180.927 257.589 180.216 256.324 178.951C255.059 177.687 254.348 175.972 254.346 174.184V102.038C254.348 100.25 255.059 98.535 256.324 97.2705C257.589 96.006 259.304 95.2947 261.092 95.2927H309.111C310.899 95.2947 312.614 96.006 313.879 97.2705C315.143 98.535 315.855 100.25 315.857 102.038V174.184C315.855 175.972 315.143 177.687 313.879 178.951C312.614 180.216 310.899 180.927 309.111 180.929ZM261.092 96.0862C259.514 96.088 258.001 96.7156 256.885 97.8314C255.769 98.9471 255.141 100.46 255.14 102.038V174.184C255.141 175.762 255.769 177.275 256.885 178.39C258.001 179.506 259.514 180.134 261.092 180.136H309.111C310.689 180.134 312.202 179.506 313.318 178.39C314.434 177.275 315.061 175.762 315.063 174.184V102.038C315.061 100.46 314.434 98.9471 313.318 97.8314C312.202 96.7156 310.689 96.088 309.111 96.0862H261.092Z" fill="#424D57"/>
<path d="M299.388 113.114H270.815C269.973 113.114 269.165 112.78 268.57 112.184C267.975 111.589 267.64 110.782 267.64 109.94C267.64 109.098 267.975 108.291 268.57 107.695C269.165 107.1 269.973 106.766 270.815 106.766H299.388C300.23 106.766 301.037 107.1 301.633 107.695C302.228 108.291 302.562 109.098 302.562 109.94C302.562 110.782 302.228 111.589 301.633 112.184C301.037 112.78 300.23 113.114 299.388 113.114Z" fill="#E65F5F"/>
<path d="M299.388 125.017H270.815C269.973 125.017 269.165 124.683 268.57 124.088C267.975 123.492 267.64 122.685 267.64 121.843C267.64 121.001 267.975 120.194 268.57 119.599C269.165 119.003 269.973 118.669 270.815 118.669H299.388C300.23 118.669 301.037 119.003 301.633 119.599C302.228 120.194 302.562 121.001 302.562 121.843C302.562 122.685 302.228 123.492 301.633 124.088C301.037 124.683 300.23 125.017 299.388 125.017Z" fill="#CCCCCC"/>
<path d="M301.769 155.37H268.434C267.539 155.369 266.682 155.014 266.05 154.381C265.417 153.749 265.062 152.892 265.061 151.998V136.127C265.062 135.233 265.417 134.376 266.05 133.743C266.682 133.111 267.539 132.755 268.434 132.754H301.769C302.663 132.755 303.52 133.111 304.153 133.743C304.785 134.376 305.141 135.233 305.142 136.127V151.998C305.141 152.892 304.785 153.749 304.153 154.381C303.52 155.014 302.663 155.369 301.769 155.37Z" fill="#E6E6E6"/>
<path d="M299.388 169.456H270.815C269.973 169.456 269.165 169.122 268.57 168.526C267.975 167.931 267.64 167.124 267.64 166.282C267.64 165.44 267.975 164.633 268.57 164.037C269.165 163.442 269.973 163.108 270.815 163.108H299.388C300.23 163.108 301.037 163.442 301.633 164.037C302.228 164.633 302.562 165.44 302.562 166.282C302.562 167.124 302.228 167.931 301.633 168.526C301.037 169.122 300.23 169.456 299.388 169.456Z" fill="#CCCCCC"/>
<path d="M279.744 66.2613H231.726C229.937 66.2593 228.222 65.548 226.957 64.2835C225.693 63.0189 224.981 61.3045 224.979 59.5161V14.7475C224.981 12.9592 225.693 11.2447 226.957 9.98017C228.222 8.71564 229.937 8.00435 231.726 8.00233H279.744C281.532 8.00435 283.247 8.71564 284.512 9.98017C285.777 11.2447 286.488 12.9592 286.49 14.7475V59.5161C286.488 61.3045 285.777 63.0189 284.512 64.2835C283.247 65.548 281.532 66.2593 279.744 66.2613ZM231.726 8.79588C230.147 8.79767 228.634 9.42529 227.518 10.541C226.402 11.6568 225.775 13.1696 225.773 14.7475V59.5161C225.775 61.0941 226.402 62.6068 227.518 63.7226C228.634 64.8383 230.147 65.466 231.726 65.4678H279.744C281.322 65.466 282.835 64.8383 283.951 63.7226C285.067 62.6068 285.695 61.0941 285.697 59.5161V14.7475C285.695 13.1696 285.067 11.6568 283.951 10.541C282.835 9.42529 281.322 8.79767 279.744 8.79588H231.726Z" fill="#424D57"/>
<path d="M270.021 52.2093H241.448C240.606 52.2093 239.799 51.8749 239.204 51.2796C238.608 50.6843 238.274 49.8769 238.274 49.0351C238.274 48.1933 238.608 47.3859 239.204 46.7906C239.799 46.1953 240.606 45.8609 241.448 45.8609H270.021C270.863 45.8609 271.671 46.1953 272.266 46.7906C272.862 47.3859 273.196 48.1933 273.196 49.0351C273.196 49.8769 272.862 50.6843 272.266 51.2796C271.671 51.8749 270.863 52.2093 270.021 52.2093Z" fill="#CCCCCC"/>
<path d="M270.021 40.306H241.448C240.606 40.306 239.799 39.9716 239.204 39.3763C238.608 38.7811 238.274 37.9737 238.274 37.1319C238.274 36.29 238.608 35.4826 239.204 34.8874C239.799 34.2921 240.606 33.9577 241.448 33.9577H270.021C270.863 33.9577 271.671 34.2921 272.266 34.8874C272.862 35.4826 273.196 36.29 273.196 37.1319C273.196 37.9737 272.862 38.7811 272.266 39.3763C271.671 39.9716 270.863 40.306 270.021 40.306Z" fill="#CCCCCC"/>
<path d="M270.021 28.4028H241.448C240.606 28.4028 239.799 28.0684 239.204 27.4731C238.608 26.8779 238.274 26.0705 238.274 25.2286C238.274 24.3868 238.608 23.5794 239.204 22.9841C239.799 22.3889 240.606 22.0544 241.448 22.0544H270.021C270.863 22.0544 271.671 22.3889 272.266 22.9841C272.862 23.5794 273.196 24.3868 273.196 25.2286C273.196 26.0705 272.862 26.8779 272.266 27.4731C271.671 28.0684 270.863 28.4028 270.021 28.4028Z" fill="#FFDB5C"/>
<path d="M194.819 65.8645C199.86 65.8645 203.947 61.7788 203.947 56.7387C203.947 51.6987 199.86 47.6129 194.819 47.6129C189.778 47.6129 185.692 51.6987 185.692 56.7387C185.692 61.7788 189.778 65.8645 194.819 65.8645Z" fill="#24ACB1"/>
<path d="M193.914 60.22C193.709 60.2204 193.509 60.154 193.345 60.0308L193.335 60.0232L191.19 58.3812C191.09 58.3053 191.006 58.2104 190.943 58.102C190.88 57.9936 190.839 57.8738 190.822 57.7495C190.805 57.6252 190.813 57.4989 190.846 57.3777C190.878 57.2565 190.934 57.1429 191.01 57.0433C191.086 56.9438 191.181 56.8603 191.29 56.7976C191.399 56.7349 191.519 56.6943 191.643 56.678C191.767 56.6618 191.894 56.6703 192.015 56.703C192.136 56.7356 192.249 56.7919 192.349 56.8686L193.738 57.9337L197.021 53.6526C197.098 53.5533 197.193 53.4699 197.301 53.4073C197.409 53.3447 197.529 53.3041 197.653 53.2877C197.777 53.2713 197.903 53.2796 198.024 53.3119C198.145 53.3442 198.258 53.4001 198.358 53.4762L198.337 53.5039L198.358 53.4766C198.558 53.6306 198.689 53.8577 198.723 54.1081C198.756 54.3585 198.688 54.6119 198.534 54.8125L194.673 59.8481C194.583 59.9642 194.468 60.0581 194.337 60.1226C194.205 60.1871 194.061 60.2204 193.914 60.22Z" fill="white"/>
<path d="M313.873 106.732C318.913 106.732 323 102.647 323 97.6065C323 92.5664 318.913 88.4807 313.873 88.4807C308.832 88.4807 304.745 92.5664 304.745 97.6065C304.745 102.647 308.832 106.732 313.873 106.732Z" fill="#E65F5F"/>
<path d="M312.968 101.088C312.763 101.088 312.563 101.022 312.398 100.899L312.388 100.891L310.243 99.2489C310.143 99.173 310.06 99.0781 309.996 98.9697C309.933 98.8613 309.892 98.7416 309.876 98.6173C309.859 98.493 309.867 98.3666 309.899 98.2454C309.932 98.1242 309.987 98.0106 310.064 97.9111C310.14 97.8115 310.235 97.728 310.344 97.6653C310.452 97.6026 310.572 97.562 310.697 97.5458C310.821 97.5295 310.948 97.538 311.069 97.5707C311.19 97.6034 311.303 97.6597 311.402 97.7363L312.792 98.8014L316.075 94.5203C316.151 94.421 316.246 94.3377 316.355 94.2751C316.463 94.2125 316.583 94.1718 316.707 94.1554C316.831 94.1391 316.957 94.1473 317.078 94.1796C317.199 94.212 317.312 94.2678 317.411 94.3439L317.391 94.3717L317.412 94.3444C317.612 94.4983 317.743 94.7254 317.776 94.9758C317.809 95.2263 317.742 95.4796 317.588 95.6802L313.726 100.716C313.637 100.832 313.522 100.926 313.391 100.99C313.259 101.055 313.114 101.088 312.968 101.088Z" fill="white"/>
<path d="M284.903 18.2516C289.944 18.2516 294.03 14.1658 294.03 9.12581C294.03 4.08576 289.944 0 284.903 0C279.862 0 275.775 4.08576 275.775 9.12581C275.775 14.1658 279.862 18.2516 284.903 18.2516Z" fill="#FFDB5C"/>
<path d="M283.998 12.6071C283.793 12.6075 283.593 12.5411 283.429 12.418L283.419 12.4103L281.274 10.7683C281.174 10.6924 281.09 10.5975 281.027 10.4891C280.964 10.3807 280.923 10.2609 280.906 10.1366C280.889 10.0123 280.897 9.88598 280.93 9.76479C280.962 9.6436 281.018 9.52998 281.094 9.43043C281.17 9.33088 281.265 9.24737 281.374 9.18469C281.483 9.122 281.603 9.08137 281.727 9.06513C281.851 9.04889 281.978 9.05736 282.099 9.09006C282.22 9.12275 282.333 9.17902 282.433 9.25565L283.822 10.3208L287.105 6.03966C287.182 5.94036 287.277 5.85703 287.385 5.79443C287.493 5.73183 287.613 5.69118 287.737 5.67481C287.861 5.65843 287.987 5.66665 288.108 5.69899C288.229 5.73134 288.342 5.78718 288.442 5.86332L288.421 5.89103L288.442 5.86372C288.642 6.01766 288.773 6.24476 288.807 6.4952C288.84 6.74564 288.772 6.99897 288.618 7.1996L284.756 12.2353C284.667 12.3513 284.552 12.4452 284.421 12.5097C284.289 12.5742 284.145 12.6075 283.998 12.6071Z" fill="white"/>
<path d="M152.452 246H1.25402C1.14877 246 1.04783 245.958 0.973411 245.884C0.898988 245.809 0.857178 245.708 0.857178 245.603C0.857178 245.498 0.898988 245.397 0.973411 245.323C1.04783 245.248 1.14877 245.206 1.25402 245.206H152.452C152.557 245.206 152.658 245.248 152.733 245.323C152.807 245.397 152.849 245.498 152.849 245.603C152.849 245.708 152.807 245.809 152.733 245.884C152.658 245.958 152.557 246 152.452 246Z" fill="#424D57"/>
</g>
<defs>
<clipPath id="clip0_6_1091">
<rect width="322.143" height="246" fill="white" transform="translate(0.857178)"/>
</clipPath>
</defs>
</svg>
