<svg width="30" height="31" viewBox="0 0 30 31" fill="none" xmlns="http://www.w3.org/2000/svg">
<path d="M9.08767 30.6556C8.33072 30.6556 7.68544 30.3861 7.1518 29.8471C6.61817 29.3081 6.35136 28.6601 6.35136 27.9031C6.35136 27.1462 6.62087 26.5009 7.15989 25.9673C7.69893 25.4336 8.34691 25.1668 9.10383 25.1668C9.86077 25.1668 10.5061 25.4363 11.0397 25.9754C11.5733 26.5144 11.8401 27.1624 11.8401 27.9193C11.8401 28.6762 11.5706 29.3215 11.0316 29.8552C10.4926 30.3888 9.84458 30.6556 9.08767 30.6556ZM24.3343 30.6556C23.5773 30.6556 22.932 30.3861 22.3984 29.8471C21.8648 29.3081 21.598 28.6601 21.598 27.9031C21.598 27.1462 21.8675 26.5009 22.4065 25.9673C22.9455 25.4336 23.5935 25.1668 24.3504 25.1668C25.1074 25.1668 25.7527 25.4363 26.2863 25.9754C26.8199 26.5144 27.0868 27.1624 27.0868 27.9193C27.0868 28.6762 26.8172 29.3215 26.2782 29.8552C25.7392 30.3888 25.0912 30.6556 24.3343 30.6556ZM7.28689 5.49869L11.3247 13.8794H22.275L26.8572 5.49869H7.28689ZM6.034 3.01121H28.2231C28.8869 3.01121 29.392 3.31144 29.7384 3.9119C30.0847 4.51236 30.0872 5.11587 29.7458 5.72243L24.755 14.7204C24.4633 15.2154 24.0885 15.615 23.6304 15.9194C23.1724 16.2238 22.6652 16.376 22.1088 16.376H10.6246L8.55384 20.2399H27.187V22.7274H8.71458C7.59871 22.7274 6.79661 22.3534 6.30829 21.6054C5.81994 20.8575 5.82933 20.0236 6.33645 19.1038L8.74854 14.6608L3.00953 2.48749H0V0H4.62369L6.034 3.01121Z" fill="#132D46"/>
</svg>
