<svg width="64" height="64" viewBox="0 0 64 64" fill="none" xmlns="http://www.w3.org/2000/svg">
<path d="M13 8V7C12.4477 7 12 7.44772 12 8H13ZM49.75 55.25V56.25C50.3023 56.25 50.75 55.8022 50.75 55.25H49.75ZM13 55.25H12C12 55.8022 12.4477 56.25 13 56.25V55.25ZM36.625 8L37.3321 7.29289C37.1446 7.10536 36.8902 7 36.625 7V8ZM49.75 21.125H50.75C50.75 20.8597 50.6446 20.6055 50.4571 20.4179L49.75 21.125ZM20.875 43.75C20.3227 43.75 19.875 44.1978 19.875 44.75C19.875 45.3022 20.3227 45.75 20.875 45.75V43.75ZM41.875 45.75C42.4273 45.75 42.875 45.3022 42.875 44.75C42.875 44.1978 42.4273 43.75 41.875 43.75V45.75ZM20.875 33.2501C20.3227 33.2501 19.875 33.6978 19.875 34.2501C19.875 34.8023 20.3227 35.2501 20.875 35.2501V33.2501ZM36.625 35.2501C37.1773 35.2501 37.625 34.8023 37.625 34.2501C37.625 33.6978 37.1773 33.2501 36.625 33.2501V35.2501ZM49.75 54.25H13V56.25H49.75V54.25ZM14 55.25V8H12V55.25H14ZM13 9H36.625V7H13V9ZM48.75 21.125V55.25H50.75V21.125H48.75ZM35.9179 8.70711L49.0429 21.8321L50.4571 20.4179L37.3321 7.29289L35.9179 8.70711ZM33 8V18.5H35V8H33ZM39.25 24.75H49.75V22.75H39.25V24.75ZM33 18.5C33 21.9517 35.7982 24.75 39.25 24.75V22.75C36.9028 22.75 35 20.8472 35 18.5H33ZM20.875 45.75H41.875V43.75H20.875V45.75ZM20.875 35.2501H36.625V33.2501H20.875V35.2501Z" fill="#4EAFBB"/>
</svg>
