<svg width="64" height="64" viewBox="0 0 64 64" fill="none" xmlns="http://www.w3.org/2000/svg">
<path d="M34.9469 24.179C34.7758 24.1778 34.6075 24.2217 34.4587 24.3063C34.31 24.3909 34.1863 24.5133 34.0999 24.661L31.1959 29.666L30.4459 26.884C30.3963 26.6993 30.2929 26.5336 30.1488 26.4079C30.0048 26.2822 29.8266 26.2022 29.6369 26.178C29.4473 26.1534 29.2547 26.1853 29.083 26.2696C28.9114 26.3539 28.7684 26.4869 28.6719 26.652L26.6359 30.162L26.1129 29.258C26.0277 29.1109 25.9051 28.9889 25.7576 28.9042C25.6102 28.8196 25.443 28.7754 25.2729 28.776H22.8319C22.6391 28.7737 22.4499 28.8287 22.2885 28.9341C22.127 29.0395 22.0004 29.1905 21.9249 29.368C21.8751 29.4859 21.8493 29.6126 21.8491 29.7407C21.849 29.8687 21.8744 29.9955 21.924 30.1136C21.9736 30.2316 22.0462 30.3386 22.1378 30.4281C22.2293 30.5177 22.3378 30.588 22.4569 30.635C22.5769 30.682 22.7039 30.706 22.8319 30.705H24.7129L25.7959 32.573C25.8811 32.7199 26.0035 32.8419 26.1508 32.9265C26.2981 33.0111 26.4651 33.0554 26.6349 33.055C26.8049 33.055 26.9718 33.0105 27.1192 32.9259C27.2665 32.8414 27.3892 32.7197 27.4749 32.573L29.1809 29.631L29.9309 32.413C29.9806 32.5976 30.084 32.7633 30.228 32.889C30.3721 33.0148 30.5503 33.0948 30.7399 33.119C30.9296 33.1435 31.1222 33.1117 31.2939 33.0274C31.4655 32.9431 31.6085 32.8101 31.7049 32.645L34.6099 27.64L35.3459 30.37C35.4012 30.5757 35.523 30.7573 35.6923 30.8865C35.8616 31.0156 36.069 31.0851 36.2819 31.084H41.3819C41.5746 31.0861 41.7636 31.031 41.9248 30.9256C42.0861 30.8202 42.2125 30.6693 42.2879 30.492C42.3378 30.374 42.3636 30.2473 42.3638 30.1193C42.3639 29.9912 42.3385 29.8644 42.2889 29.7464C42.2393 29.6283 42.1666 29.5214 42.0751 29.4318C41.9836 29.3423 41.8751 29.272 41.7559 29.225C41.6368 29.1771 41.5093 29.1533 41.3809 29.155H37.0249L35.8749 24.893C35.8201 24.6886 35.6995 24.508 35.5318 24.3789C35.3641 24.2499 35.1585 24.1796 34.9469 24.179Z" fill="#4EAFBB"/>
<path d="M59.867 43.328C60.493 43.328 61 43.835 61 44.461C61 48.833 57.443 52.391 53.07 52.391H10.93C6.557 52.391 3 48.833 3 44.461C3 43.835 3.507 43.328 4.133 43.328H7.53V17.273C7.53159 15.7711 8.12898 14.3312 9.19106 13.2694C10.2531 12.2075 11.6931 11.6103 13.195 11.609H50.805C52.3067 11.6106 53.7464 12.2078 54.8083 13.2697C55.8702 14.3316 56.4674 15.7713 56.469 17.273V43.329L59.867 43.328ZM9.797 43.328H25.203C25.829 43.328 26.336 43.835 26.336 44.461C26.336 45.085 26.844 45.593 27.469 45.593H36.531C37.156 45.593 37.664 45.085 37.664 44.461C37.664 43.835 38.171 43.328 38.797 43.328H54.203V17.273C54.2019 16.3721 53.8436 15.5084 53.2066 14.8714C52.5696 14.2344 51.7059 13.8761 50.805 13.875H13.195C12.2941 13.8761 11.4304 14.2344 10.7934 14.8714C10.1564 15.5084 9.79806 16.3721 9.797 17.273V43.328ZM53.07 50.125C54.3754 50.1231 55.6401 49.6713 56.6511 48.8455C57.6621 48.0198 58.3575 46.8707 58.62 45.592H39.737C39.5022 46.2545 39.0681 46.8282 38.4942 47.2341C37.9204 47.64 37.2349 47.8583 36.532 47.859H27.47C26.7672 47.8584 26.0818 47.6402 25.508 47.2345C24.9342 46.8288 24.5 46.2554 24.265 45.593H5.38C5.6427 46.8715 6.33815 48.0204 7.34912 48.8459C8.3601 49.6714 9.62478 50.1232 10.93 50.125H53.07Z" fill="#4EAFBB"/>
</svg>
