<svg width="24" height="25" viewBox="0 0 24 25" fill="none" xmlns="http://www.w3.org/2000/svg">
<path d="M11.9974 16.94C12.22 16.94 12.4128 16.8586 12.5755 16.6959C12.7383 16.5331 12.8197 16.3404 12.8197 16.1177C12.8197 15.8963 12.7383 15.7031 12.5755 15.5379C12.4128 15.3728 12.22 15.2902 11.9974 15.2902C11.7747 15.2902 11.582 15.3728 11.4192 15.5379C11.2565 15.7031 11.1751 15.8963 11.1751 16.1177C11.1751 16.3391 11.2565 16.5315 11.4192 16.6949C11.582 16.8583 11.7747 16.94 11.9974 16.94ZM11.3105 13.8142H12.6843V7.88423H11.3105V13.8142ZM8.66732 20.5L4 15.8336V9.16734L8.66638 4.5H15.3327L20 9.1664V15.8327L15.3336 20.5H8.66732Z" fill="#E65F5F"/>
</svg>
