<svg width="210" height="165" viewBox="0 0 210 165" fill="none" xmlns="http://www.w3.org/2000/svg">
<g clip-path="url(#clip0_256_1736)">
<path d="M63.7624 63.3279C62.644 61.8787 61.0634 60.5378 60.9633 58.7495C60.8715 57.1094 62.0945 55.4809 61.5787 53.9118C61.1821 52.7053 59.8738 51.9773 58.5953 51.5918C56.1475 50.8643 53.5282 50.9651 51.1436 51.8786L51.2731 51.7874C49.8177 51.2689 48.1165 51.8041 46.9715 52.7954C45.8263 53.7866 45.1458 55.1606 44.6178 56.5375C44.0897 57.9144 43.6805 59.3417 42.9468 60.6325C42.213 61.9234 41.0896 63.0973 39.6074 63.5434C40.1036 64.5332 41.6548 64.8727 42.5646 64.1907C42.797 64.002 43.0059 63.786 43.1868 63.5474C43.7935 62.8096 44.4003 62.0718 45.0071 61.334C45.6314 62.4444 44.6987 63.977 45.4662 65.005C45.8619 65.5351 46.5846 65.7364 47.2559 65.8808C52.5022 67.0002 57.9444 66.7983 63.0934 65.2934C63.5072 65.1714 63.9638 65.0035 64.1355 64.6289C64.3337 64.1965 64.0565 63.709 63.7624 63.3279Z" fill="#132D46"/>
<path d="M78.6378 68.9834C78.6051 69.1274 78.5837 69.2738 78.574 69.4212L67.1071 76.0364L64.3199 74.4318L61.3486 78.3217L66.0067 81.6417C66.3831 81.9099 66.8362 82.0488 67.2982 82.0376C67.7602 82.0263 68.206 81.8655 68.5688 81.5793L80.3931 72.251C80.9268 72.4486 81.5079 72.4789 82.0592 72.3381C82.6105 72.1973 83.1059 71.892 83.4795 71.4628C83.853 71.0336 84.0871 70.5008 84.1504 69.9354C84.2138 69.3699 84.1036 68.7985 83.8343 68.2973C83.565 67.796 83.1495 67.3886 82.643 67.1292C82.1366 66.8699 81.5632 66.7708 80.999 66.8453C80.4349 66.9198 79.9069 67.1643 79.4851 67.5462C79.0633 67.9281 78.7678 68.4294 78.6378 68.9834Z" fill="#FFB7B7"/>
<path d="M66.7245 76.3497L63.0184 81.1529C62.913 81.2896 62.7793 81.4019 62.6265 81.4823C62.4737 81.5626 62.3055 81.6091 62.1331 81.6185C61.9607 81.628 61.7884 81.6001 61.6277 81.537C61.4671 81.4738 61.322 81.3767 61.2022 81.2524L57.0067 76.8957C56.3104 76.3523 55.858 75.5549 55.7488 74.6784C55.6395 73.8019 55.8823 72.9179 56.4239 72.2202C56.9656 71.5225 57.7618 71.068 58.638 70.9565C59.5142 70.845 60.3988 71.0855 61.0979 71.6253L66.36 74.5677C66.5106 74.6519 66.6413 74.7677 66.7432 74.9071C66.8451 75.0464 66.9157 75.2061 66.9503 75.3752C66.9849 75.5443 66.9826 75.7189 66.9436 75.8871C66.9047 76.0552 66.8299 76.213 66.7245 76.3497Z" fill="#24ACB1"/>
<path d="M61.624 160.04L64.8965 160.04L66.4533 147.417L61.6233 147.417L61.624 160.04Z" fill="#FFB7B7"/>
<path d="M60.7888 158.972L67.2337 158.971H67.234C68.3232 158.972 69.3679 159.404 70.1381 160.174C70.9083 160.945 71.3411 161.989 71.3412 163.079V163.212L60.789 163.212L60.7888 158.972Z" fill="#132D46"/>
<path d="M39.2009 160.04L42.4736 160.04L44.0304 147.417L39.2004 147.417L39.2009 160.04Z" fill="#FFB7B7"/>
<path d="M38.366 158.972L44.8109 158.971H44.8111C45.9004 158.972 46.945 159.404 47.7152 160.174C48.4855 160.945 48.9182 161.989 48.9183 163.079V163.212L38.3662 163.212L38.366 158.972Z" fill="#132D46"/>
<path d="M59.6578 61.5435C59.9986 58.4385 57.7579 55.6452 54.6529 55.3043C51.548 54.9635 48.7546 57.2042 48.4138 60.3092C48.0729 63.4141 50.3137 66.2075 53.4186 66.5483C56.5236 66.8892 59.3169 64.6484 59.6578 61.5435Z" fill="#FFB7B7"/>
<path d="M57.3454 69.405L60.6773 71.0556C60.6773 71.0556 64.4001 77.5253 62.2647 83.6648C61.2279 86.6456 64.1475 96.1475 64.1475 96.1475C64.1475 96.1475 68.6711 139.187 68.6854 152.471C63.0655 153.335 57.7268 154.403 57.4598 151.733C57.1929 149.064 54.2709 117.502 54.2709 117.502C54.2709 117.502 50.2526 152.534 47.0494 153.068C43.8461 153.602 37.4397 152.801 37.4397 152.801C37.4397 152.801 42.5257 101.486 45.9959 98.283L46.5298 95.6137L46.5155 71.6528L50.5135 69.7448L57.3454 69.405Z" fill="#132D46"/>
<path d="M45.4259 105.78C45.7946 105.581 46.1151 105.303 46.3648 104.966C46.6144 104.629 46.7873 104.242 46.871 103.831C46.9548 103.42 46.9474 102.996 46.8496 102.589C46.7517 102.181 46.5656 101.8 46.3044 101.472L50.1794 75.6427L45.1168 75.3996L42.0961 101.122C41.5743 101.597 41.2449 102.247 41.1704 102.949C41.0959 103.651 41.2815 104.356 41.6919 104.93C42.1023 105.504 42.7091 105.908 43.3973 106.065C44.0855 106.221 44.8073 106.12 45.4259 105.78Z" fill="#FFB7B7"/>
<path d="M50.0694 82.1145L44.0147 81.7322C43.8424 81.7214 43.6745 81.6735 43.5224 81.5918C43.3703 81.5102 43.2376 81.3968 43.1333 81.2592C43.029 81.1217 42.9555 80.9633 42.9179 80.7948C42.8804 80.6264 42.8796 80.4518 42.9156 80.2829L44.1772 74.3676C44.2377 73.4864 44.6452 72.6652 45.3103 72.084C45.9755 71.5029 46.8439 71.2092 47.7253 71.2674C48.6066 71.3257 49.4289 71.731 50.0118 72.3947C50.5946 73.0583 50.8906 73.926 50.8346 74.8075L51.342 80.8149C51.3565 80.9869 51.3338 81.16 51.2753 81.3225C51.2168 81.4849 51.1241 81.6328 51.0033 81.7561C50.8825 81.8794 50.7366 81.9753 50.5754 82.0371C50.4143 82.099 50.2417 82.1254 50.0694 82.1145Z" fill="#24ACB1"/>
<path d="M59.964 57.2498C59.7436 56.2501 59.0278 55.4217 58.2032 54.8151C56.8437 53.815 55.1766 53.3234 53.492 53.4259C51.8075 53.5283 50.2122 54.2183 48.984 55.3757C48.2977 55.9818 47.8029 56.7749 47.5602 57.6578C47.4444 58.0991 47.4382 58.5619 47.5422 59.0062C47.6461 59.4504 47.8571 59.8624 48.1567 60.2065L48.2697 60.2773C48.1673 59.8427 48.5049 59.4085 48.9081 59.2167C49.3275 59.0628 49.7654 58.9646 50.2104 58.9248C50.8836 58.7975 51.5217 58.5273 52.0815 58.1322C52.6414 57.7372 53.1099 57.2266 53.4554 56.6349C53.7114 57.3631 54.1204 58.0281 54.6549 58.585C55.1893 59.142 55.8368 59.578 56.5538 59.8639C57.3013 60.1562 59.3544 60.5582 60.0661 60.1871C60.9739 59.7137 60.1845 58.2496 59.964 57.2498Z" fill="#132D46"/>
<path d="M18.3486 152.243C19.3272 152.587 20.3779 152.673 21.3995 152.493C22.4211 152.313 23.3791 151.873 24.1813 151.215C26.2242 149.501 26.8648 146.677 27.3858 144.061L28.9273 136.324L25.7001 138.546C23.3791 140.144 21.006 141.794 19.3991 144.108C17.7922 146.423 17.0912 149.583 18.3819 152.087" fill="#E6E6E6"/>
<path d="M18.8467 162.148C18.4405 159.189 18.0226 156.191 18.3082 153.2C18.5613 150.544 19.3718 147.95 21.0218 145.822C21.8976 144.695 22.9632 143.729 24.1709 142.968C24.4857 142.77 24.7756 143.268 24.4621 143.466C22.3724 144.787 20.7562 146.737 19.8463 149.035C18.8414 151.591 18.68 154.377 18.8531 157.092C18.9577 158.734 19.18 160.365 19.4033 161.995C19.421 162.068 19.41 162.146 19.3725 162.212C19.3351 162.278 19.2741 162.327 19.2018 162.35C19.128 162.369 19.0494 162.359 18.983 162.322C18.9165 162.284 18.8677 162.221 18.8469 162.148L18.8467 162.148Z" fill="#F2F2F2"/>
<path d="M21.7705 157.4C22.1901 158.038 22.7671 158.557 23.4456 158.907C24.1242 159.258 24.8815 159.427 25.6447 159.4C27.6064 159.307 29.2412 157.938 30.7127 156.639L35.066 152.795L32.1849 152.657C30.113 152.558 27.9876 152.465 26.0142 153.104C24.0407 153.744 22.2207 155.281 21.8599 157.324" fill="#E6E6E6"/>
<path d="M17.6993 163.849C19.6549 160.389 21.923 156.544 25.9761 155.315C27.1029 154.974 28.2845 154.852 29.4571 154.955C29.8268 154.987 29.7345 155.557 29.3656 155.525C27.3999 155.362 25.438 155.881 23.8101 156.995C22.2436 158.061 21.0239 159.544 19.9917 161.115C19.3593 162.078 18.7929 163.082 18.2265 164.085C18.0455 164.405 17.5162 164.174 17.6993 163.849Z" fill="#F2F2F2"/>
<path d="M149.844 99.8803C146.175 94.9695 139.458 93.7843 136.121 96.2782C132.783 98.7722 132.017 105.549 135.686 110.46C139.083 115.005 145.237 116.245 148.627 114.542C148.616 114.595 148.615 114.65 148.625 114.703L148.816 115.648C148.83 115.72 148.863 115.787 148.911 115.843C148.959 115.899 149.02 115.942 149.089 115.967C149.158 115.993 149.232 116 149.305 115.989C149.377 115.977 149.446 115.948 149.504 115.902L151.122 114.638C151.18 114.593 151.225 114.534 151.254 114.466C151.282 114.398 151.293 114.324 151.285 114.251C151.277 114.178 151.25 114.109 151.208 114.049C151.165 113.989 151.108 113.941 151.042 113.909L150.171 113.495C150.141 113.481 150.108 113.471 150.075 113.465C152.688 110.703 153.248 104.436 149.844 99.8803Z" fill="#FFDB5C"/>
<path d="M141.818 98.0262C143.613 98.3114 145.23 99.2748 146.335 100.718C147.441 102.161 147.95 103.973 147.758 105.78C147.718 106.194 148.365 106.191 148.404 105.78C148.589 103.832 148.031 101.886 146.841 100.332C145.652 98.7786 143.919 97.7321 141.99 97.4027C141.583 97.3335 141.408 97.9565 141.818 98.0262Z" fill="white"/>
<path d="M176.048 17.6384C179.257 12.4144 177.877 5.7353 174.327 3.55493C170.777 1.37455 164.196 3.16507 160.988 8.38901C158.018 13.2244 159.139 19.4011 161.974 21.9221C161.92 21.9315 161.869 21.9511 161.823 21.9798L161.015 22.5063C160.954 22.5465 160.904 22.6017 160.869 22.6667C160.835 22.7317 160.818 22.8044 160.82 22.8779C160.822 22.9513 160.842 23.0231 160.88 23.0864C160.917 23.1497 160.97 23.2024 161.033 23.2395L162.806 24.2764C162.869 24.3135 162.941 24.3338 163.015 24.3353C163.088 24.3368 163.161 24.3195 163.226 24.2851C163.291 24.2507 163.346 24.2002 163.385 24.1385C163.425 24.0768 163.449 24.0059 163.454 23.9326L163.517 22.9708C163.518 22.9372 163.516 22.9036 163.509 22.8706C167.041 24.2784 173.072 22.4843 176.048 17.6384Z" fill="#CCCCCC"/>
<path d="M174.807 9.49428C175.205 11.2677 174.907 13.1263 173.974 14.6864C173.042 16.2464 171.546 17.3889 169.795 17.8779C169.396 17.9942 169.637 18.5943 170.034 18.4788C171.913 17.9313 173.515 16.6937 174.519 15.0143C175.524 13.335 175.856 11.3379 175.45 9.42373C175.364 9.01993 174.72 9.08749 174.807 9.49428Z" fill="white"/>
<path d="M54.3322 33.2923C58.7023 28.501 58.5945 21.2874 55.3382 18.3174C52.0819 15.3475 44.8889 15.9022 40.5188 20.6935C36.4738 25.1285 36.4129 31.7688 38.8579 34.9506C38.8004 34.9498 38.7434 34.96 38.6898 34.9807L37.7464 35.3676C37.6745 35.3971 37.6114 35.4445 37.5629 35.5053C37.5145 35.5661 37.4823 35.6382 37.4696 35.7149C37.4569 35.7916 37.464 35.8702 37.4902 35.9434C37.5165 36.0166 37.561 36.0818 37.6195 36.1329L39.2555 37.562C39.314 37.6132 39.3847 37.6485 39.4607 37.6647C39.5367 37.6808 39.6156 37.6773 39.6899 37.6544C39.7642 37.6314 39.8314 37.5899 39.8851 37.5338C39.9388 37.4776 39.9773 37.4086 39.9969 37.3334L40.2534 36.3465C40.2616 36.3119 40.2657 36.2765 40.2655 36.241C43.656 38.4045 50.2784 37.737 54.3322 33.2923Z" fill="#24ACB1"/>
<path d="M54.6584 24.5841C54.72 26.5058 54.0416 28.3778 52.763 29.8137C51.4844 31.2497 49.7033 32.1399 47.7874 32.3007C47.3494 32.3423 47.4812 33.0137 47.9163 32.9724C49.977 32.7763 51.8873 31.8083 53.2642 30.2626C54.6411 28.717 55.3827 26.7079 55.3404 24.6384C55.3311 24.2017 54.649 24.1442 54.6584 24.5841Z" fill="white"/>
<path d="M118.055 80.4089C116.45 80.3078 114.892 79.828 113.509 79.0087C112.126 78.1894 110.957 77.054 110.097 75.6955C109.856 75.3104 109.542 74.8872 109.709 74.4131C109.767 74.2314 109.885 74.0747 110.043 73.9687C110.202 73.8628 110.392 73.8137 110.582 73.8297C111.074 73.8895 111.391 74.3705 111.452 74.8314C111.521 75.3542 111.152 75.7647 110.696 75.9589C109.584 76.4336 108.461 75.7 107.554 75.1146C105.489 73.7806 103.217 72.5742 100.715 72.4222C98.3993 72.2815 95.9163 73.1894 94.6284 75.1974C94.4031 75.5487 94.9625 75.8733 95.1867 75.5238C96.464 73.5323 99.0462 72.8171 101.291 73.1249C102.629 73.336 103.921 73.7747 105.111 74.4218C105.728 74.742 106.327 75.097 106.913 75.4702C107.471 75.8596 108.063 76.1986 108.681 76.4834C109.711 76.9068 111.075 76.8737 111.795 75.899C112.467 74.9897 111.948 73.4758 110.825 73.2201C110.578 73.1715 110.324 73.1849 110.084 73.2589C109.844 73.333 109.626 73.4654 109.45 73.6444C109.273 73.8233 109.144 74.0432 109.074 74.2843C109.004 74.5254 108.994 74.7802 109.047 75.0258C109.159 75.5613 109.562 76.0854 109.874 76.5231C110.812 77.8423 112.034 78.9343 113.449 79.7187C114.865 80.5031 116.439 80.96 118.055 81.0555C118.47 81.0761 118.469 80.4294 118.055 80.4089Z" fill="#CCCCCC"/>
<path d="M180.153 35.8589C181.923 35.0354 184.097 34.7654 185.898 35.5307C187.7 36.2959 188.928 38.2575 188.345 39.9934C188.081 40.7805 187.48 41.5545 187.714 42.3494C187.894 42.9612 188.524 43.3652 189.141 43.6524C189.759 43.9396 190.435 44.1811 190.882 44.6656C191.329 45.15 191.422 45.9839 190.864 46.3596C190.68 46.4834 190.45 46.5421 190.272 46.6725C190.12 46.796 190.01 46.9638 189.958 47.1526C189.906 47.3414 189.914 47.5418 189.981 47.7257C190.13 48.0958 190.376 48.419 190.693 48.6613C191.326 49.2078 192.164 49.8333 191.967 50.6091C191.894 50.8165 191.772 51.0031 191.611 51.1533C191.451 51.3035 191.257 51.4127 191.045 51.4717C190.605 51.5985 190.149 51.6587 189.691 51.6503L170.991 52.2394C170.374 52.2858 169.753 52.2511 169.145 52.1363C168.849 52.0824 168.568 51.968 168.318 51.8004C168.069 51.6328 167.857 51.4155 167.695 51.1622C167.337 50.4994 167.572 49.6829 168.014 49.0639C168.456 48.445 169.082 47.9567 169.599 47.3884C170.117 46.82 170.54 46.1106 170.449 45.376C170.376 44.788 169.988 44.2798 169.709 43.7455C169.431 43.2112 169.269 42.5436 169.63 42.0521C170.138 41.3594 171.358 41.4221 171.935 40.7767C172.371 40.2896 172.287 39.5885 172.331 38.9604C172.435 37.4496 173.481 36.0228 174.97 35.3603C175.727 35.0353 176.55 34.895 177.372 34.951C178.195 35.0069 178.991 35.2576 179.698 35.6823L180.153 35.8589Z" fill="#132D46"/>
<path d="M202.927 110.622V113.681L191.131 115.136L191.131 110.622L202.927 110.622Z" fill="#F6ABAB"/>
<path d="M205.891 109.843L205.891 119.703H205.766C204.748 119.703 203.772 119.299 203.052 118.579C202.333 117.859 201.928 116.883 201.928 115.865V115.865L201.928 109.842L205.891 109.843Z" fill="#132D46"/>
<path d="M188.345 115.825L187.594 118.789L175.802 117.304L176.91 112.929L188.345 115.825Z" fill="#F6ABAB"/>
<path d="M191.41 115.796L188.989 125.355L188.868 125.324C187.882 125.075 187.035 124.443 186.514 123.568C185.993 122.694 185.84 121.648 186.09 120.662L187.569 114.823L191.41 115.796Z" fill="#132D46"/>
<path d="M185.334 81.5296L185.97 82.1931C185.97 82.1931 190.127 85.4521 187.052 94.0367L182.022 108.527L198.881 109.184L198.52 115.806C198.52 115.806 174.07 117.166 174.284 113.136C174.498 109.107 175.4 94.1873 175.4 94.1873L170.32 90.108L171.545 83.2084L185.334 81.5296Z" fill="#132D46"/>
<path d="M172.273 88.1055L170.32 90.108L163.772 108.109C163.772 108.109 162.774 112.599 165.019 113.597C167.264 114.595 181.709 120.176 181.709 120.176L183.184 114.867L172.054 108.187L177.242 101.374L178.022 90.6368L172.273 88.1055Z" fill="#132D46"/>
<path d="M172.377 56.3496L188.999 53.026L189.36 62.1453L185.055 71.3224L185.97 82.1931L171.073 84.7958L171.54 70.5017C171.54 70.5017 167.539 64.858 169.896 59.1695L172.377 56.3496Z" fill="#E4E4E4"/>
<path d="M209.441 34.7164C209.525 35.0992 209.523 35.4956 209.437 35.8777C209.35 36.2598 209.181 36.6183 208.941 36.9279C208.701 37.2375 208.396 37.4908 208.047 37.6698C207.699 37.8488 207.315 37.9492 206.924 37.964L190.985 56.4471L187.279 51.9496L204.112 35.1956C204.131 34.5363 204.391 33.9068 204.843 33.4263C205.294 32.9459 205.907 32.6479 206.564 32.5888C207.221 32.5298 207.877 32.7137 208.407 33.1059C208.937 33.498 209.305 34.071 209.441 34.7164Z" fill="#F6ABAB"/>
<path d="M194.455 54.4303C194.458 54.6029 194.425 54.7743 194.356 54.9328C194.288 55.0913 194.186 55.2331 194.058 55.3486L189.576 59.3833C189.013 60.0642 188.203 60.4943 187.324 60.5793C186.445 60.6642 185.568 60.3971 184.885 59.8365C184.203 59.2759 183.77 58.4675 183.683 57.5885C183.595 56.7095 183.86 55.8317 184.418 55.1475L187.547 49.9692C187.636 49.8214 187.756 49.6946 187.899 49.5974C188.042 49.5002 188.204 49.4349 188.374 49.406C188.544 49.3771 188.719 49.3852 188.885 49.4297C189.052 49.4743 189.207 49.5543 189.341 49.6643L194.019 53.5296C194.152 53.6395 194.26 53.7769 194.335 53.9323C194.41 54.0878 194.451 54.2576 194.455 54.4303Z" fill="#E4E4E4"/>
<path d="M146.314 78.1529C146.289 77.762 146.35 77.3703 146.493 77.0055C146.636 76.6407 146.857 76.3117 147.141 76.0416C147.424 75.7715 147.764 75.5669 148.135 75.4422C148.507 75.3175 148.901 75.2757 149.29 75.3198L167.822 59.4377L170.812 64.4403L151.655 78.4789C151.537 79.1279 151.186 79.7113 150.667 80.1185C150.148 80.5256 149.498 80.7284 148.84 80.6882C148.181 80.648 147.561 80.3677 147.095 79.9005C146.63 79.4332 146.352 78.8114 146.314 78.1529Z" fill="#F6ABAB"/>
<path d="M164.089 60.9109C164.111 60.7397 164.17 60.5753 164.262 60.4289C164.353 60.2825 164.475 60.1575 164.62 60.0626L169.656 56.7461C170.315 56.1572 171.18 55.8533 172.062 55.9012C172.944 55.9491 173.771 56.3448 174.362 57.0016C174.952 57.6583 175.259 58.5225 175.213 59.4047C175.168 60.2869 174.775 61.1152 174.119 61.7078L170.249 66.3581C170.139 66.4908 170.001 66.5981 169.845 66.6728C169.69 66.7474 169.52 66.7877 169.347 66.7907C169.175 66.7938 169.003 66.7596 168.845 66.6905C168.687 66.6214 168.545 66.5191 168.43 66.3904L164.385 61.8668C164.27 61.7382 164.184 61.5862 164.133 61.4212C164.082 61.2562 164.067 61.0822 164.089 60.9109Z" fill="#E4E4E4"/>
<path d="M179.461 52.0945C182.845 52.0945 185.588 49.3515 185.588 45.9679C185.588 42.5843 182.845 39.8413 179.461 39.8413C176.078 39.8413 173.335 42.5843 173.335 45.9679C173.335 49.3515 176.078 52.0945 179.461 52.0945Z" fill="#F6ABAB"/>
<path d="M185.729 45.0969C183.795 44.9415 182.188 43.0087 182.389 41.0782C182.412 41.8739 182.142 42.6502 181.629 43.2594C181.117 43.8686 180.398 44.2682 179.61 44.3822C178.723 44.48 177.75 44.2115 176.977 44.6592C176.122 45.1551 175.848 46.3594 174.957 46.7877C174.096 47.2015 173.002 46.6371 172.576 45.7816C172.151 44.9261 172.255 43.8982 172.537 42.9853C172.939 41.6834 173.671 40.5077 174.663 39.5726C175.654 38.6375 176.87 37.9748 178.193 37.649C179.516 37.3231 180.901 37.3453 182.213 37.7132C183.525 38.0812 184.719 38.7824 185.68 39.7487C186.494 40.567 187.14 41.61 187.244 42.7591C187.349 43.9082 186.816 45.1551 185.784 45.6713L185.729 45.0969Z" fill="#132D46"/>
<path d="M95.7874 163.61H0.749443C0.683287 163.61 0.619844 163.584 0.573064 163.537C0.526284 163.49 0.5 163.427 0.5 163.361C0.5 163.295 0.526284 163.231 0.573064 163.184C0.619844 163.138 0.683287 163.111 0.749443 163.111H95.7874C95.8536 163.111 95.917 163.138 95.9638 163.184C96.0106 163.231 96.0368 163.295 96.0368 163.361C96.0368 163.427 96.0106 163.49 95.9638 163.537C95.917 163.584 95.8536 163.61 95.7874 163.61Z" fill="#CACACA"/>
<path d="M146.46 6.61392H86.0269C85.7966 6.61418 85.5758 6.70578 85.4129 6.86863C85.2501 7.03148 85.1585 7.25227 85.1582 7.48258V48.4335C85.1585 48.6638 85.2501 48.8846 85.4129 49.0474C85.5758 49.2103 85.7966 49.3019 86.0269 49.3021H146.46C146.691 49.3019 146.912 49.2103 147.074 49.0474C147.237 48.8846 147.329 48.6638 147.329 48.4335V7.48258C147.329 7.25227 147.237 7.03148 147.074 6.86863C146.912 6.70578 146.691 6.61418 146.46 6.61392ZM147.081 48.4335C147.081 48.598 147.015 48.7558 146.899 48.8721C146.783 48.9885 146.625 49.0539 146.46 49.0539H86.0269C85.8623 49.0539 85.7045 48.9885 85.5882 48.8721C85.4718 48.7558 85.4065 48.598 85.4064 48.4335V7.48258C85.4065 7.31804 85.4718 7.16026 85.5882 7.04391C85.7045 6.92757 85.8623 6.86218 86.0269 6.86211H146.46C146.625 6.86218 146.783 6.92757 146.899 7.04391C147.015 7.16026 147.081 7.31804 147.081 7.48258V48.4335Z" fill="#3F3D56"/>
<path d="M147.206 10.0935H85.283V10.3417H147.206V10.0935Z" fill="#3F3D56"/>
<path d="M87.3923 9.21987C87.8035 9.21987 88.1368 8.88652 88.1368 8.47531C88.1368 8.0641 87.8035 7.73075 87.3923 7.73075C86.9811 7.73075 86.6477 8.0641 86.6477 8.47531C86.6477 8.88652 86.9811 9.21987 87.3923 9.21987Z" fill="#3F3D56"/>
<path d="M89.5326 9.21987C89.9439 9.21987 90.2772 8.88652 90.2772 8.47531C90.2772 8.0641 89.9439 7.73075 89.5326 7.73075C89.1214 7.73075 88.7881 8.0641 88.7881 8.47531C88.7881 8.88652 89.1214 9.21987 89.5326 9.21987Z" fill="#3F3D56"/>
<path d="M91.6733 9.21987C92.0845 9.21987 92.4178 8.88652 92.4178 8.47531C92.4178 8.0641 92.0845 7.73075 91.6733 7.73075C91.2621 7.73075 90.9287 8.0641 90.9287 8.47531C90.9287 8.88652 91.2621 9.21987 91.6733 9.21987Z" fill="#3F3D56"/>
<path d="M100.406 15.8589H89.9817C89.7513 15.8589 89.5304 15.7674 89.3675 15.6045C89.2046 15.4416 89.113 15.2206 89.113 14.9902C89.113 14.7598 89.2046 14.5389 89.3675 14.376C89.5304 14.2131 89.7513 14.1216 89.9817 14.1216H100.406C100.636 14.1216 100.857 14.2131 101.02 14.376C101.183 14.5389 101.274 14.7598 101.274 14.9902C101.274 15.2206 101.183 15.4416 101.02 15.6045C100.857 15.7674 100.636 15.8589 100.406 15.8589Z" fill="#CCCCCC"/>
<path d="M114.676 20.0781H89.9817C89.7513 20.0781 89.5304 19.9865 89.3675 19.8236C89.2046 19.6607 89.113 19.4398 89.113 19.2094C89.113 18.979 89.2046 18.7581 89.3675 18.5952C89.5304 18.4323 89.7513 18.3408 89.9817 18.3408H114.676C114.907 18.3408 115.128 18.4323 115.291 18.5952C115.453 18.7581 115.545 18.979 115.545 19.2094C115.545 19.4398 115.453 19.6607 115.291 19.8236C115.128 19.9865 114.907 20.0781 114.676 20.0781Z" fill="#CCCCCC"/>
<path d="M122.646 21.7562C121.482 23.4522 120.804 25.4337 120.685 27.4869C120.565 29.54 121.008 31.5868 121.967 33.4065C122.925 35.2261 124.362 36.7495 126.123 37.8122C127.884 38.8749 129.901 39.4366 131.958 39.4367V29.5787L122.646 21.7562Z" fill="#24ACB1"/>
<path d="M131.957 16.8517C130.123 16.8505 128.317 17.2965 126.694 18.1512C125.071 19.0058 123.682 20.2432 122.645 21.7562L131.957 29.5787V16.8517Z" fill="#CCCCCC"/>
<path d="M131.958 39.5608H131.834V16.7275H131.958C134.986 16.7275 137.89 17.9304 140.031 20.0714C142.172 22.2124 143.375 25.1163 143.375 28.1442C143.375 31.172 142.172 34.0759 140.031 36.2169C137.89 38.3579 134.986 39.5608 131.958 39.5608ZM132.082 16.9764V39.3119C135.023 39.2792 137.832 38.0882 139.899 35.9974C141.967 33.9066 143.127 31.0847 143.127 28.1442C143.127 25.2036 141.967 22.3817 139.899 20.2909C137.832 18.2001 135.023 17.0091 132.082 16.9764Z" fill="#3F3D56"/>
<path d="M97.1788 44.2143H95.0692C94.9211 44.2141 94.7792 44.1552 94.6745 44.0505C94.5698 43.9458 94.5109 43.8039 94.5107 43.6559V37.5753C94.5109 37.4272 94.5698 37.2853 94.6745 37.1806C94.7792 37.0759 94.9211 37.017 95.0692 37.0168H97.1788C97.3268 37.017 97.4688 37.0759 97.5734 37.1806C97.6781 37.2853 97.737 37.4272 97.7372 37.5753V43.6559C97.737 43.8039 97.6781 43.9458 97.5734 44.0505C97.4687 44.1552 97.3268 44.2141 97.1788 44.2143Z" fill="#CCCCCC"/>
<path d="M103.384 44.2143H101.274C101.126 44.2141 100.984 44.1552 100.88 44.0505C100.775 43.9458 100.716 43.8039 100.716 43.6558V34.7211C100.716 34.5731 100.775 34.4311 100.88 34.3264C100.984 34.2217 101.126 34.1629 101.274 34.1627H103.384C103.532 34.1629 103.674 34.2217 103.779 34.3264C103.883 34.4311 103.942 34.5731 103.942 34.7211V43.6558C103.942 43.8039 103.883 43.9458 103.779 44.0505C103.674 44.1552 103.532 44.2141 103.384 44.2143Z" fill="#FFDB5C"/>
<path d="M109.589 44.2143H107.479C107.331 44.2141 107.189 44.1552 107.085 44.0505C106.98 43.9458 106.921 43.8039 106.921 43.6558V32.2392C106.921 32.0912 106.98 31.9492 107.085 31.8446C107.189 31.7399 107.331 31.681 107.479 31.6808H109.589C109.737 31.681 109.879 31.7399 109.984 31.8446C110.088 31.9492 110.147 32.0912 110.147 32.2392V43.6558C110.147 43.8039 110.088 43.9458 109.984 44.0505C109.879 44.1552 109.737 44.2141 109.589 44.2143Z" fill="#24ACB1"/>
<path d="M97.1788 44.2763H95.0692C94.9047 44.2761 94.747 44.2107 94.6307 44.0944C94.5144 43.9781 94.4489 43.8203 94.4487 43.6558V30.0056C94.4489 29.8411 94.5144 29.6833 94.6307 29.567C94.747 29.4507 94.9047 29.3853 95.0692 29.3851H97.1788C97.3433 29.3853 97.501 29.4507 97.6173 29.567C97.7336 29.6833 97.7991 29.8411 97.7993 30.0056V43.6558C97.7991 43.8203 97.7336 43.9781 97.6173 44.0944C97.501 44.2107 97.3433 44.2761 97.1788 44.2763ZM95.0692 29.6333C94.9705 29.6334 94.8759 29.6726 94.8061 29.7424C94.7363 29.8122 94.697 29.9069 94.6969 30.0056V43.6558C94.697 43.7545 94.7363 43.8492 94.8061 43.919C94.8759 43.9888 94.9705 44.028 95.0692 44.0281H97.1788C97.2775 44.028 97.3721 43.9888 97.4419 43.919C97.5117 43.8492 97.551 43.7545 97.5511 43.6558V30.0056C97.551 29.9069 97.5117 29.8122 97.4419 29.7424C97.3721 29.6726 97.2775 29.6334 97.1788 29.6333H95.0692Z" fill="#3F3D56"/>
<path d="M103.384 44.2763H101.274C101.11 44.2761 100.952 44.2107 100.836 44.0944C100.719 43.9781 100.654 43.8203 100.654 43.6558V30.0056C100.654 29.8411 100.719 29.6833 100.836 29.567C100.952 29.4507 101.11 29.3853 101.274 29.3851H103.384C103.548 29.3853 103.706 29.4507 103.822 29.567C103.939 29.6833 104.004 29.8411 104.004 30.0056V43.6558C104.004 43.8203 103.939 43.9781 103.822 44.0944C103.706 44.2107 103.548 44.2761 103.384 44.2763ZM101.274 29.6333C101.176 29.6334 101.081 29.6726 101.011 29.7424C100.941 29.8122 100.902 29.9069 100.902 30.0056V43.6558C100.902 43.7545 100.941 43.8492 101.011 43.919C101.081 43.9888 101.176 44.028 101.274 44.0281H103.384C103.483 44.028 103.577 43.9888 103.647 43.919C103.717 43.8492 103.756 43.7545 103.756 43.6558V30.0056C103.756 29.9069 103.717 29.8122 103.647 29.7424C103.577 29.6726 103.483 29.6334 103.384 29.6333H101.274Z" fill="#3F3D56"/>
<path d="M109.588 44.2763H107.479C107.314 44.2761 107.156 44.2107 107.04 44.0944C106.924 43.9781 106.858 43.8203 106.858 43.6558V30.0056C106.858 29.8411 106.924 29.6833 107.04 29.567C107.156 29.4507 107.314 29.3853 107.479 29.3851H109.588C109.753 29.3853 109.91 29.4507 110.027 29.567C110.143 29.6833 110.208 29.8411 110.209 30.0056V43.6558C110.208 43.8203 110.143 43.9781 110.027 44.0944C109.91 44.2107 109.753 44.2761 109.588 44.2763ZM107.479 29.6333C107.38 29.6334 107.285 29.6726 107.215 29.7424C107.146 29.8122 107.106 29.9069 107.106 30.0056V43.6558C107.106 43.7545 107.146 43.8492 107.215 43.919C107.285 43.9888 107.38 44.028 107.479 44.0281H109.588C109.687 44.028 109.782 43.9888 109.851 43.919C109.921 43.8492 109.96 43.7545 109.96 43.6558V30.0056C109.96 29.9069 109.921 29.8122 109.851 29.7424C109.782 29.6726 109.687 29.6334 109.588 29.6333H107.479Z" fill="#3F3D56"/>
</g>
<defs>
<clipPath id="clip0_256_1736">
<rect width="209" height="164.238" fill="white" transform="translate(0.5)"/>
</clipPath>
</defs>
</svg>
