<svg width="121" height="142" viewBox="0 0 121 142" fill="none" xmlns="http://www.w3.org/2000/svg">
<g clip-path="url(#clip0_256_1678)">
<path d="M24.7988 91.0988H4.04355C2.9715 91.0976 1.94371 90.6712 1.18566 89.9132C0.42761 89.1551 0.00120685 88.1273 0 87.0553V4.04355C0.00120685 2.97151 0.42761 1.94371 1.18566 1.18566C1.94371 0.427612 2.9715 0.00120685 4.04355 0H60.3395L70.6432 9.19984V25.9263H70.1675V9.41285L60.158 0.475712H4.04355C3.09763 0.476782 2.19076 0.853022 1.52189 1.52189C0.85302 2.19076 0.476782 3.09763 0.475712 4.04355V87.0553C0.476782 88.0012 0.85302 88.9081 1.52189 89.5769C2.19076 90.2458 3.09763 90.622 4.04355 90.6231H24.7988V91.0988Z" fill="#A4A4A4"/>
<path d="M70.4051 9.51424H63.983C62.911 9.51303 61.8832 9.08663 61.1251 8.32858C60.3671 7.57053 59.9407 6.54273 59.9395 5.47069V0.237856C59.9395 0.174773 59.9645 0.114273 60.0091 0.0696662C60.0537 0.0250596 60.1142 0 60.1773 0C60.2404 0 60.3009 0.0250596 60.3455 0.0696662C60.3901 0.114273 60.4152 0.174773 60.4152 0.237856V5.47069C60.4162 6.41661 60.7925 7.32348 61.4613 7.99235C62.1302 8.66122 63.0371 9.03746 63.983 9.03853H70.4051C70.4682 9.03853 70.5287 9.06359 70.5733 9.10819C70.6179 9.1528 70.643 9.2133 70.643 9.27638C70.643 9.33947 70.6179 9.39997 70.5733 9.44457C70.5287 9.48918 70.4682 9.51424 70.4051 9.51424Z" fill="#A4A4A4"/>
<path d="M62.4465 21.5259H8.21535C7.71068 21.5259 7.22668 21.7264 6.86983 22.0833C6.51298 22.4401 6.3125 22.9241 6.3125 23.4288C6.3125 23.9335 6.51298 24.4174 6.86983 24.7743C7.22668 25.1312 7.71068 25.3316 8.21535 25.3316H62.4465C62.9512 25.3316 63.4352 25.1312 63.792 24.7743C64.1489 24.4174 64.3493 23.9335 64.3493 23.4288C64.3493 22.9241 64.1489 22.4401 63.792 22.0833C63.4352 21.7264 62.9512 21.5259 62.4465 21.5259Z" fill="#C8C8C8"/>
<path d="M35.0931 13.4389H8.21535C7.71068 13.4389 7.22668 13.6394 6.86983 13.9962C6.51298 14.3531 6.3125 14.8371 6.3125 15.3418C6.3125 15.8464 6.51298 16.3304 6.86983 16.6873C7.22668 17.0441 7.71068 17.2446 8.21535 17.2446H35.0931C35.5977 17.2446 36.0817 17.0441 36.4386 16.6873C36.7954 16.3304 36.9959 15.8464 36.9959 15.3418C36.9959 14.8371 36.7954 14.3531 36.4386 13.9962C36.0817 13.6394 35.5977 13.4389 35.0931 13.4389Z" fill="#C8C8C8"/>
<path d="M8.21535 37.4623C7.71068 37.4623 7.22668 37.6628 6.86983 38.0197C6.51298 38.3765 6.3125 38.8605 6.3125 39.3652C6.3125 39.8699 6.51298 40.3539 6.86983 40.7107C7.22668 41.0676 7.71068 41.268 8.21535 41.268H25.2125V37.4623H8.21535Z" fill="#C8C8C8"/>
<path d="M8.21535 29.3752C7.96546 29.3752 7.71802 29.4244 7.48716 29.52C7.2563 29.6157 7.04653 29.7558 6.86983 29.9325C6.69313 30.1092 6.55297 30.319 6.45735 30.5498C6.36172 30.7807 6.3125 31.0281 6.3125 31.278C6.3125 31.5279 6.36172 31.7754 6.45735 32.0062C6.55297 32.2371 6.69313 32.4468 6.86983 32.6235C7.04653 32.8002 7.2563 32.9404 7.48716 33.036C7.71802 33.1317 7.96546 33.1809 8.21535 33.1809H25.2125V29.3752H8.21535Z" fill="#C8C8C8"/>
<path d="M25.3312 77.7789H10.0989C9.05843 77.7777 8.06086 77.3639 7.32511 76.6281C6.58936 75.8924 6.17549 74.8948 6.17432 73.8543V53.8744C6.17549 52.8339 6.58936 51.8363 7.32511 51.1006C8.06087 50.3648 9.05843 49.9509 10.0989 49.9498H25.3312V77.7789Z" fill="#C8C8C8"/>
<path d="M49.8926 116.668H29.1373C28.0653 116.667 27.0375 116.241 26.2794 115.483C25.5214 114.725 25.095 113.697 25.0938 112.625V29.6131C25.095 28.541 25.5214 27.5132 26.2794 26.7552C27.0375 25.9971 28.0653 25.5707 29.1373 25.5695H85.4333L95.737 34.7694V50.5444H95.2613V34.9824L85.2517 26.0452H29.1373C28.1914 26.0463 27.2845 26.4225 26.6156 27.0914C25.9468 27.7603 25.5705 28.6671 25.5695 29.6131V112.625C25.5705 113.571 25.9468 114.478 26.6156 115.146C27.2845 115.815 28.1914 116.192 29.1373 116.193H49.8926V116.668Z" fill="#A4A4A4"/>
<path d="M95.4991 35.0838H89.077C88.005 35.0825 86.9772 34.6561 86.2191 33.8981C85.4611 33.14 85.0347 32.1123 85.0334 31.0402V25.8074C85.0334 25.7443 85.0585 25.6838 85.1031 25.6392C85.1477 25.5946 85.2082 25.5695 85.2713 25.5695C85.3344 25.5695 85.3949 25.5946 85.4395 25.6392C85.4841 25.6838 85.5092 25.7443 85.5092 25.8074V31.0402C85.5102 31.9861 85.8865 32.893 86.5553 33.5619C87.2242 34.2307 88.1311 34.607 89.077 34.608H95.4991C95.5622 34.608 95.6227 34.6331 95.6673 34.6777C95.7119 34.7223 95.737 34.7828 95.737 34.8459C95.737 34.909 95.7119 34.9695 95.6673 35.0141C95.6227 35.0587 95.5622 35.0838 95.4991 35.0838Z" fill="#A4A4A4"/>
<path d="M87.5405 47.0955H33.3093C32.8047 47.0955 32.3207 47.296 31.9638 47.6529C31.607 48.0097 31.4065 48.4937 31.4065 48.9984C31.4065 49.503 31.607 49.987 31.9638 50.3439C32.3207 50.7007 32.8047 50.9012 33.3093 50.9012H87.5405C88.0452 50.9012 88.5292 50.7007 88.886 50.3439C89.2429 49.987 89.4433 49.503 89.4433 48.9984C89.4433 48.4937 89.2429 48.0097 88.886 47.6529C88.5292 47.296 88.0452 47.0955 87.5405 47.0955Z" fill="#C8C8C8"/>
<path d="M60.1871 39.0084H33.3093C32.8047 39.0084 32.3207 39.2088 31.9638 39.5657C31.607 39.9226 31.4065 40.4065 31.4065 40.9112C31.4065 41.4159 31.607 41.8999 31.9638 42.2567C32.3207 42.6136 32.8047 42.8141 33.3093 42.8141H60.1871C60.6917 42.8141 61.1757 42.6136 61.5326 42.2567C61.8894 41.8999 62.0899 41.4159 62.0899 40.9112C62.0899 40.4065 61.8894 39.9226 61.5326 39.5657C61.1757 39.2088 60.6917 39.0084 60.1871 39.0084Z" fill="#C8C8C8"/>
<path d="M87.5405 47.0955H33.3093C32.8047 47.0955 32.3207 47.296 31.9638 47.6529C31.607 48.0097 31.4065 48.4937 31.4065 48.9984C31.4065 49.503 31.607 49.987 31.9638 50.3439C32.3207 50.7007 32.8047 50.9012 33.3093 50.9012H87.5405C88.0452 50.9012 88.5292 50.7007 88.886 50.3439C89.2429 49.987 89.4433 49.503 89.4433 48.9984C89.4433 48.4937 89.2429 48.0097 88.886 47.6529C88.5292 47.296 88.0452 47.0955 87.5405 47.0955Z" fill="#C8C8C8"/>
<path d="M60.1871 39.0084H33.3093C32.8047 39.0084 32.3207 39.2088 31.9638 39.5657C31.607 39.9226 31.4065 40.4065 31.4065 40.9112C31.4065 41.4159 31.607 41.8999 31.9638 42.2567C32.3207 42.6136 32.8047 42.8141 33.3093 42.8141H60.1871C60.6917 42.8141 61.1757 42.6136 61.5326 42.2567C61.8894 41.8999 62.0899 41.4159 62.0899 40.9112C62.0899 40.4065 61.8894 39.9226 61.5326 39.5657C61.1757 39.2088 60.6917 39.0084 60.1871 39.0084Z" fill="#C8C8C8"/>
<path d="M33.3093 63.0319C32.8047 63.0319 32.3207 63.2323 31.9638 63.5892C31.607 63.9461 31.4065 64.43 31.4065 64.9347C31.4065 65.4394 31.607 65.9234 31.9638 66.2802C32.3207 66.6371 32.8047 66.8376 33.3093 66.8376H50.3065V63.0319H33.3093Z" fill="#C8C8C8"/>
<path d="M33.3093 54.9447C32.8047 54.9447 32.3207 55.1452 31.9638 55.502C31.607 55.8589 31.4065 56.3429 31.4065 56.8475C31.4065 57.3522 31.607 57.8362 31.9638 58.1931C32.3207 58.5499 32.8047 58.7504 33.3093 58.7504H50.3065V54.9447H33.3093Z" fill="#C8C8C8"/>
<path d="M33.3093 63.0319C32.8047 63.0319 32.3207 63.2323 31.9638 63.5892C31.607 63.9461 31.4065 64.43 31.4065 64.9347C31.4065 65.4394 31.607 65.9234 31.9638 66.2802C32.3207 66.6371 32.8047 66.8376 33.3093 66.8376H50.3065V63.0319H33.3093Z" fill="#C8C8C8"/>
<path d="M33.3093 54.9447C32.8047 54.9447 32.3207 55.1452 31.9638 55.502C31.607 55.8589 31.4065 56.3429 31.4065 56.8475C31.4065 57.3522 31.607 57.8362 31.9638 58.1931C32.3207 58.5499 32.8047 58.7504 33.3093 58.7504H50.3065V54.9447H33.3093Z" fill="#C8C8C8"/>
<path d="M50.4252 103.348H35.1929C34.1524 103.347 33.1549 102.933 32.4191 102.198C31.6833 101.462 31.2695 100.464 31.2683 99.4238V79.4438C31.2695 78.4033 31.6833 77.4058 32.4191 76.67C33.1549 75.9343 34.1524 75.5204 35.1929 75.5192H50.4252V103.348Z" fill="#C8C8C8"/>
<path d="M51.767 51.3769C51.1758 51.7377 50.6873 52.2444 50.3483 52.8483C50.0092 53.4523 49.831 54.1332 49.8308 54.8258V55.4204H50.3065V54.8258C50.3075 54.0392 50.5679 53.2749 51.0474 52.6513C51.5269 52.0278 52.1986 51.5798 52.9586 51.3769H51.767ZM110.17 50.7822H53.8744C52.8023 50.7835 51.7746 51.2099 51.0165 51.9679C50.2585 52.726 49.8321 53.7537 49.8308 54.8258V137.838C49.8323 138.909 50.2588 139.937 51.0168 140.695C51.7748 141.453 52.8024 141.88 53.8744 141.881H116.43C117.502 141.88 118.53 141.453 119.288 140.695C120.046 139.937 120.473 138.909 120.474 137.838V59.9825L110.17 50.7822ZM119.998 137.838C119.997 138.783 119.621 139.69 118.952 140.359C118.283 141.028 117.376 141.404 116.43 141.405H53.8744C52.9285 141.404 52.0216 141.028 51.3528 140.359C50.6839 139.69 50.3077 138.783 50.3065 137.838L50.3065 54.8258C50.3075 54.0392 50.5679 53.2749 51.0474 52.6513C51.5269 52.0278 52.1986 51.5798 52.9586 51.3769C53.2573 51.2973 53.5652 51.2573 53.8744 51.2579H109.989L119.998 60.1942V137.838ZM51.767 51.3769C51.1758 51.7377 50.6873 52.2444 50.3483 52.8483C50.0092 53.4523 49.831 54.1332 49.8308 54.8258V55.4204H50.3065V54.8258C50.3075 54.0392 50.5679 53.2749 51.0474 52.6513C51.5269 52.0278 52.1986 51.5798 52.9586 51.3769H51.767Z" fill="#A4A4A4"/>
<path d="M120.236 60.2965H113.814C112.742 60.2953 111.714 59.8689 110.956 59.1108C110.198 58.3528 109.772 57.325 109.771 56.2529V51.0201C109.771 50.957 109.796 50.8965 109.84 50.8519C109.885 50.8073 109.945 50.7822 110.008 50.7822C110.071 50.7822 110.132 50.8073 110.177 50.8519C110.221 50.8965 110.246 50.957 110.246 51.0201V56.2529C110.247 57.1988 110.624 58.1057 111.292 58.7746C111.961 59.4434 112.868 59.8197 113.814 59.8208H120.236C120.299 59.8208 120.36 59.8458 120.404 59.8904C120.449 59.935 120.474 59.9955 120.474 60.0586C120.474 60.1217 120.449 60.1822 120.404 60.2268C120.36 60.2714 120.299 60.2965 120.236 60.2965Z" fill="#A4A4A4"/>
<path d="M112.278 76.1139H58.0466C57.542 76.1139 57.058 75.9134 56.7011 75.5566C56.3443 75.1997 56.1438 74.7157 56.1438 74.2111C56.1438 73.7064 56.3443 73.2224 56.7011 72.8656C57.058 72.5087 57.542 72.3082 58.0466 72.3082H112.278C112.782 72.3082 113.266 72.5087 113.623 72.8656C113.98 73.2224 114.181 73.7064 114.181 74.2111C114.181 74.7157 113.98 75.1997 113.623 75.5566C113.266 75.9134 112.782 76.1139 112.278 76.1139Z" fill="#24ACB1"/>
<path d="M84.9244 68.0268H58.0466C57.542 68.0268 57.058 67.8263 56.7011 67.4694C56.3443 67.1126 56.1438 66.6286 56.1438 66.1239C56.1438 65.6193 56.3443 65.1353 56.7011 64.7784C57.058 64.4216 57.542 64.2211 58.0466 64.2211H84.9244C85.429 64.2211 85.913 64.4216 86.2699 64.7784C86.6267 65.1353 86.8272 65.6193 86.8272 66.1239C86.8272 66.6286 86.6267 67.1126 86.2699 67.4694C85.913 67.8263 85.429 68.0268 84.9244 68.0268Z" fill="#24ACB1"/>
<path d="M112.278 92.0503H58.0466C57.542 92.0503 57.058 91.8498 56.7011 91.4929C56.3443 91.1361 56.1438 90.6521 56.1438 90.1474C56.1438 89.6427 56.3443 89.1588 56.7011 88.8019C57.058 88.4451 57.542 88.2446 58.0466 88.2446H112.278C112.782 88.2446 113.266 88.4451 113.623 88.8019C113.98 89.1588 114.181 89.6427 114.181 90.1474C114.181 90.6521 113.98 91.1361 113.623 91.4929C113.266 91.8498 112.782 92.0503 112.278 92.0503Z" fill="#24ACB1"/>
<path d="M84.9244 83.9632H58.0466C57.542 83.9632 57.058 83.7627 56.7011 83.4058C56.3443 83.049 56.1438 82.565 56.1438 82.0603C56.1438 81.5557 56.3443 81.0717 56.7011 80.7148C57.058 80.358 57.542 80.1575 58.0466 80.1575H84.9244C85.429 80.1575 85.913 80.358 86.2699 80.7148C86.6267 81.0717 86.8272 81.5557 86.8272 82.0603C86.8272 82.565 86.6267 83.049 86.2699 83.4058C85.913 83.7627 85.429 83.9632 84.9244 83.9632Z" fill="#24ACB1"/>
<path d="M110.355 128.561H59.9298C58.8892 128.56 57.8917 128.146 57.1559 127.41C56.4202 126.675 56.0063 125.677 56.0051 124.637V104.657C56.0063 103.616 56.4202 102.619 57.1559 101.883C57.8917 101.147 58.8892 100.733 59.9298 100.732H110.355C111.396 100.733 112.393 101.147 113.129 101.883C113.865 102.619 114.279 103.616 114.28 104.657V124.637C114.279 125.677 113.865 126.675 113.129 127.41C112.393 128.146 111.396 128.56 110.355 128.561Z" fill="#24ACB1"/>
</g>
<defs>
<clipPath id="clip0_256_1678">
<rect width="120.593" height="142" fill="white"/>
</clipPath>
</defs>
</svg>
